# Blender 3.3.1
# www.blender.org
o Cylinder.432
v 0.453778 -0.741483 -0.305652
v 0.492365 -0.723651 -0.297994
v 0.471527 -0.734195 -0.270407
v 0.385302 -0.187373 -0.275066
v 0.363701 -0.207631 -0.307387
v 0.389019 -0.173541 -0.299622
v 0.376483 -0.152943 -0.274756
v 0.326573 -0.212916 -0.280604
v 0.332913 -0.183699 -0.334988
v 0.365887 -0.139157 -0.304127
v 0.290911 -0.194890 -0.263285
v 0.261223 -0.150593 -0.321886
v 0.297714 -0.139400 -0.279520
v 0.249303 -0.168512 -0.286625
v 0.303715 -0.155807 -0.338390
v 0.214929 -0.222145 -0.337886
v 0.228169 -0.221162 -0.334450
v 0.231223 -0.209759 -0.339552
v 0.212669 -0.271563 -0.355897
v 0.207791 -0.278670 -0.377983
v 0.224791 -0.309051 -0.379654
v 0.196872 -0.293293 -0.371324
v 0.215682 -0.315403 -0.371334
v 0.349960 -0.163628 -0.252436
v 0.408814 -0.601322 -0.304860
v 0.467790 -0.211138 -0.296054
v 0.495543 -0.306752 -0.316799
v 0.500192 -0.396145 -0.319584
v 0.450054 -0.647896 -0.303723
v 0.446489 -0.553658 -0.307955
v 0.472595 -0.212949 -0.277401
v 0.517766 -0.324046 -0.301631
v 0.438131 -0.604689 -0.275077
v 0.488463 -0.295769 -0.287794
v 0.456588 -0.221497 -0.280748
v 0.477309 -0.391790 -0.295257
v 0.410288 -0.598288 -0.274306
v 0.512662 -0.732027 -0.301357
v 0.502088 -0.745198 -0.272513
v 0.655117 -0.248152 -0.222405
v 0.480714 -0.722822 -0.297985
v 0.674633 -0.221286 -0.213453
v 0.692134 -0.256150 -0.213320
v 0.639144 -0.233647 -0.210712
v 0.716439 -0.221020 -0.161126
v 0.682106 -0.277110 -0.203535
v 0.637878 -0.267148 -0.181942
v 0.694246 -0.230678 -0.105208
v 0.731004 -0.264890 -0.107176
v 0.657723 -0.231693 -0.132041
v 0.707015 -0.293587 -0.082055
v 0.697111 -0.293916 -0.077270
v 0.701860 -0.298810 -0.062623
v 0.677572 -0.345755 -0.035911
v 0.679110 -0.340416 -0.053337
v 0.681916 -0.362305 -0.048769
v 0.655601 -0.366743 -0.052190
v 0.661439 -0.380280 -0.041642
v 0.655312 -0.208581 -0.183375
v 0.606889 -0.271160 -0.277843
v 0.555425 -0.365386 -0.292461
v 0.550074 -0.667395 -0.248282
v 0.568602 -0.583053 -0.263920
v 0.544862 -0.587604 -0.239169
v 0.594803 -0.261773 -0.264787
v 0.543619 -0.344452 -0.280911
v 0.522566 -0.425065 -0.274420
v 0.515842 -0.661082 -0.262987
v 0.591307 -0.259055 -0.279713
v 0.537891 -0.579826 -0.269745
v 0.535378 -0.356447 -0.306218
v 0.476015 -0.722446 -0.297154
v 0.495656 -0.744870 -0.321144
v 0.525218 -0.301743 -0.476587
v 0.556305 -0.276826 -0.483228
v 0.530595 -0.278835 -0.493107
v 0.562556 -0.281110 -0.548383
v 0.569220 -0.312135 -0.476388
v 0.542148 -0.311241 -0.566097
v 0.603540 -0.301080 -0.542013
v 0.519840 -0.326368 -0.505831
v 0.587634 -0.321694 -0.585072
v 0.618056 -0.367444 -0.585859
v 0.602055 -0.360536 -0.581147
v 0.610196 -0.361865 -0.575663
v 0.645026 -0.417938 -0.567642
v 0.638473 -0.427158 -0.581116
v 0.631489 -0.421535 -0.563077
v 0.636690 -0.444515 -0.560532
v 0.549095 -0.331265 -0.484675
v 0.514007 -0.309479 -0.400021
v 0.494165 -0.639026 -0.352855
v 0.505860 -0.393410 -0.343790
v 0.506297 -0.319686 -0.412337
v 0.509727 -0.397546 -0.367076
v 0.490359 -0.623731 -0.381610
v 0.500999 -0.677866 -0.369296
v 0.520232 -0.327971 -0.387952
v 0.528075 -0.460367 -0.345473
v 0.521083 -0.624316 -0.373244
v -0.447255 -0.737328 -0.329796
v -0.416764 -0.724183 -0.347549
v -0.447982 -0.287162 -0.267498
v -0.466099 -0.268504 -0.279952
v -0.472696 -0.306910 -0.227333
v -0.494554 -0.293898 -0.266549
v -0.469930 -0.244153 -0.259386
v -0.472235 -0.292231 -0.195053
v -0.530373 -0.256010 -0.211094
v -0.491486 -0.254431 -0.182720
v -0.553484 -0.314425 -0.164770
v -0.546380 -0.313625 -0.173348
v -0.549088 -0.304339 -0.177362
v -0.574335 -0.366345 -0.180237
v -0.585470 -0.360060 -0.173096
v -0.580095 -0.372506 -0.162027
v -0.578341 -0.390628 -0.180678
v -0.443230 -0.263959 -0.244872
v -0.461591 -0.629939 -0.294496
v -0.435338 -0.305463 -0.336816
v -0.441057 -0.383322 -0.364446
v -0.441506 -0.456115 -0.368836
v -0.447118 -0.661119 -0.326383
v -0.446121 -0.588151 -0.326533
v -0.419923 -0.306937 -0.333920
v -0.422198 -0.397404 -0.375599
v -0.424650 -0.666304 -0.306325
v -0.422110 -0.374378 -0.349211
v -0.435605 -0.584942 -0.296301
v -0.427918 -0.313897 -0.323271
v -0.431465 -0.452569 -0.343561
v -0.406137 -0.740354 -0.353984
v -0.436194 -0.723682 -0.359434
v -0.313155 -0.318934 -0.457726
v -0.315809 -0.338328 -0.451025
v -0.300852 -0.353189 -0.430991
v -0.248419 -0.314666 -0.474006
v -0.289960 -0.330886 -0.415564
v -0.216906 -0.326009 -0.430882
v -0.203146 -0.340494 -0.458140
v -0.248752 -0.360995 -0.472553
v -0.197764 -0.370522 -0.432771
v -0.184306 -0.377337 -0.432859
v -0.189509 -0.368784 -0.428697
v -0.172299 -0.419212 -0.410850
v -0.182243 -0.444542 -0.395375
v -0.188159 -0.423845 -0.402324
v -0.179091 -0.422489 -0.391623
v -0.303627 -0.306445 -0.435756
v -0.373887 -0.354339 -0.433116
v -0.402435 -0.431069 -0.400208
v -0.371306 -0.612936 -0.397589
v -0.361645 -0.650203 -0.378578
v -0.368430 -0.346695 -0.419696
v -0.397992 -0.414021 -0.387513
v -0.400474 -0.479665 -0.369745
v -0.380646 -0.344482 -0.422270
v -0.380398 -0.637276 -0.369219
v -0.419501 -0.423789 -0.390172
v -0.390632 -0.654051 -0.391474
v -0.537826 -0.373769 -0.451509
v -0.433310 -0.721826 -0.343262
v -0.444222 -0.740087 -0.366029
v -0.553545 -0.353111 -0.463463
v -0.605299 -0.371806 -0.512555
v -0.566502 -0.379160 -0.440829
v -0.608828 -0.386977 -0.484882
v -0.569871 -0.378703 -0.521845
v -0.570640 -0.403449 -0.452454
v -0.597197 -0.432744 -0.547687
v -0.599246 -0.427119 -0.534260
v -0.592390 -0.428201 -0.538371
v -0.586432 -0.485119 -0.558629
v -0.572491 -0.477590 -0.562240
v -0.568908 -0.491347 -0.550724
v -0.533923 -0.395077 -0.467036
v -0.464975 -0.649917 -0.392242
v -0.496060 -0.385543 -0.406794
v -0.457402 -0.453888 -0.381373
v -0.477333 -0.661509 -0.371756
v -0.507805 -0.393854 -0.405360
v -0.473240 -0.457256 -0.392264
v -0.490026 -0.626475 -0.388897
v -0.481487 -0.662272 -0.400070
v -0.485010 -0.400601 -0.407219
v -0.450974 -0.508412 -0.398338
vn 0.5305 0.6875 0.4959
vn 0.6170 0.4507 0.6452
vn 0.2970 0.4133 -0.8608
vn 0.6309 0.1213 -0.7663
vn 0.4489 0.8300 -0.3311
vn 0.9208 -0.3393 -0.1925
vn 0.0063 -0.5673 0.8235
vn -0.4273 -0.7697 -0.4742
vn 0.4985 -0.7852 -0.3675
vn 0.3334 -0.1796 -0.9255
vn 0.1653 0.2018 0.9654
vn -0.2733 -0.3686 0.8885
vn 0.2987 -0.7059 0.6422
vn -0.2400 0.8532 0.4631
vn 0.1052 -0.8999 0.4233
vn 0.0062 0.0661 -0.9978
vn -0.7385 0.3399 0.5823
vn 0.0511 0.5180 -0.8539
vn -0.4938 0.7847 -0.3747
vn -0.9676 0.1630 0.1929
vn 0.4996 -0.3831 0.7769
vn 0.4485 -0.8612 0.2389
vn -0.0147 0.4529 -0.8914
vn -0.9509 -0.3029 -0.0630
vn -0.0202 -0.9838 0.1781
vn 0.7138 -0.4597 -0.5283
vn -0.6601 0.0725 0.7477
vn -0.5810 -0.2079 0.7869
vn -0.5938 0.2357 0.7693
vn 0.9918 0.0432 0.1199
vn 0.5943 -0.1817 -0.7834
vn 0.6831 0.1149 0.7212
vn 0.5711 0.2216 -0.7904
vn -0.1589 0.2433 -0.9569
vn -0.6813 0.0381 0.7311
vn -0.9238 0.3724 -0.0889
vn -0.3959 0.6880 -0.6082
vn 0.3001 0.6824 -0.6665
vn 0.8150 -0.3808 -0.4367
vn 0.6255 -0.1829 -0.7585
vn 0.1117 -0.7668 -0.6321
vn 0.1911 -0.8412 -0.5058
vn -0.8548 -0.5175 -0.0390
vn -0.4262 0.9044 -0.0209
vn 0.7593 0.6377 -0.1297
vn -0.7491 0.4342 0.5003
vn 0.0414 0.7532 0.6565
vn 0.9727 -0.0418 0.2282
vn 0.5010 -0.8416 -0.2017
vn -0.8309 -0.5077 -0.2276
vn 0.2054 0.2641 0.9424
vn -0.8296 0.2529 -0.4977
vn -0.8690 -0.1167 -0.4808
vn 0.0716 0.3463 0.9354
vn 0.7665 -0.5769 -0.2823
vn -0.7174 0.0639 -0.6937
vn -0.5475 0.2249 -0.8060
vn 0.9733 0.0231 -0.2283
vn -0.9214 0.1485 0.3590
vn 0.3960 -0.4652 -0.7917
vn -0.1698 0.1133 0.9789
vn 0.5879 -0.3979 0.7043
vn 0.9735 -0.1102 -0.2005
vn -0.4775 0.2111 0.8529
vn -0.0437 -0.8543 0.5180
vn -0.8907 -0.3055 0.3366
vn -0.5567 0.8307 -0.0053
vn -0.8783 -0.4766 0.0384
vn -0.0380 -0.7275 0.6850
vn 0.4370 0.7208 0.5380
vn -0.0441 0.9039 -0.4254
vn -0.5949 -0.6226 -0.5083
vn 0.0686 -0.6046 0.7936
vn 0.5322 -0.1341 0.8359
vn 0.8704 0.4919 0.0194
vn 0.1301 0.3220 -0.9378
vn 0.6310 0.2670 -0.7284
vn 0.9482 0.2157 0.2333
vn 0.1160 -0.5752 -0.8097
vn -0.5157 -0.0214 0.8565
vn -0.0471 -0.9128 0.4056
vn 0.1618 -0.9842 0.0722
vn 0.9507 -0.0987 -0.2939
vn -0.4358 -0.3669 0.8219
vn -0.5850 -0.1992 -0.7862
vn 0.8415 0.3079 0.4439
vn 0.8700 0.0202 0.4926
vn -0.3834 0.3542 0.8530
vn -0.6358 -0.0139 -0.7717
vn -0.7830 -0.5251 -0.3336
vn -0.3705 0.4314 0.8225
vn -0.4911 0.7705 0.4063
vn 0.9229 0.3521 0.1557
vn 0.1308 -0.6776 0.7237
vn 0.8693 0.4175 -0.2646
vn -0.1821 0.3605 -0.9148
vn 0.0740 0.9024 -0.4244
vn 0.6768 -0.3855 0.6272
vn 0.3231 -0.9416 0.0944
vn 0.3803 -0.9248 0.0110
vn -0.8687 0.0077 -0.4952
vn -0.4631 -0.4726 -0.7498
vn -0.7424 0.6624 -0.1005
vn -0.2055 0.2043 0.9571
vn 0.2274 0.6436 0.7308
vn -0.9554 0.2562 -0.1469
vn -0.1076 -0.4850 0.8679
vn 0.5132 -0.8215 -0.2484
vn 0.4593 -0.2166 -0.8615
vn 0.0426 -0.9364 -0.3485
vn 0.9289 -0.0722 0.3632
vn 0.6623 0.2309 0.7128
vn -0.7366 -0.0986 0.6691
vn 0.4664 -0.2079 0.8598
vn 0.3660 0.2666 0.8916
vn 0.5453 0.0439 -0.8371
vn -0.0259 -0.0923 -0.9954
vn -0.1746 0.1679 -0.9702
vn -0.9328 0.2393 -0.2695
vn -0.6214 0.5126 -0.5925
vn -0.4283 0.5130 -0.7439
vn -0.0341 -0.3416 -0.9392
vn -0.7427 0.6672 -0.0572
vn 0.1658 0.6674 -0.7261
vn -0.0536 -0.6536 -0.7549
vn 0.4902 0.6964 0.5241
vn 0.7606 0.3102 -0.5704
vn -0.4596 -0.7638 0.4531
vn -0.5825 -0.7020 0.4099
vn 0.5118 0.5172 0.6859
vn -0.2890 0.0994 0.9522
vn 0.8273 -0.1775 -0.5330
vn 0.2504 0.1720 0.9527
vn -0.0718 -0.9710 0.2280
vn 0.8008 -0.2413 -0.5482
vn -0.9729 -0.2099 -0.0971
vn -0.0915 0.0522 0.9944
vn -0.2767 0.1249 0.9528
vn 0.9503 -0.3039 0.0679
vn 0.2796 -0.0877 -0.9561
vn 0.5694 0.2126 0.7941
vn 0.4870 0.0002 -0.8734
vn -0.5536 -0.0893 -0.8280
vn -0.9591 0.2538 0.1256
vn 0.7462 0.2240 -0.6269
vn 0.8920 -0.2512 -0.3757
vn 0.4126 0.8252 0.3858
vn 0.1969 0.9793 0.0478
vn -0.6674 -0.3382 0.6635
vn -0.7943 -0.5468 0.2648
vn 0.7691 -0.5862 0.2545
vn 0.9205 -0.3802 0.0899
vn -0.1475 -0.7195 0.6786
vn -0.3918 0.3005 -0.8696
vn 0.4723 0.4652 -0.7487
vn 0.5018 0.1163 -0.8572
vn -0.6108 -0.7533 -0.2440
vn 0.7645 -0.6274 0.1480
vn 0.8240 -0.0109 -0.5664
vn 0.9574 0.0525 -0.2841
vn -0.4655 -0.4103 -0.7842
vn -0.9571 -0.2086 0.2010
vn -0.9989 0.0459 0.0064
vn -0.4191 0.0682 0.9054
vn 0.6128 0.3409 0.7129
vn -0.6236 -0.5755 0.5290
vn 0.6100 -0.2022 -0.7661
vn -0.8141 -0.0344 -0.5796
vn -0.9114 -0.0809 -0.4035
vn -0.3056 -0.9074 0.2886
vn -0.9469 0.0651 0.3149
vn -0.7076 0.0733 -0.7028
vn 0.0118 -0.5225 -0.8526
vn -0.7609 -0.5530 0.3394
vn -0.7438 -0.6137 0.2647
vn -0.3211 -0.2260 -0.9197
vn -0.3295 0.8398 0.4316
vn 0.2980 0.3641 0.8824
vn -0.4457 -0.8025 -0.3967
vn 0.6179 -0.7529 0.2266
vn 0.7133 -0.6704 0.2045
vn -0.3428 0.0930 0.9348
vn -0.9141 0.0422 0.4033
vn -0.6679 0.6557 -0.3521
vn -0.1683 -0.8371 -0.5205
vn -0.2354 -0.7638 -0.6010
vt 0.132062 0.014192
vt 0.102717 0.014192
vt 0.126195 0.014192
vt 0.131725 0.876045
vt 0.135807 0.885628
vt 0.125387 0.875545
vt 0.121592 0.877580
vt 0.141145 0.897222
vt 0.126621 0.898427
vt 0.115201 0.884414
vt 0.136163 0.907984
vt 0.114726 0.919750
vt 0.116452 0.904950
vt 0.124084 0.920806
vt 0.117068 0.908148
vt 0.125319 0.944095
vt 0.128705 0.943827
vt 0.126479 0.941185
vt 0.128163 0.967360
vt 0.123046 0.971969
vt 0.126101 0.981518
vt 0.125343 0.974579
vt 0.127922 0.982813
vt 0.126621 0.885588
vt 0.128376 0.162160
vt 0.114221 0.580075
vt 0.117926 0.471298
vt 0.105365 0.385052
vt 0.103318 0.108506
vt 0.104990 0.206066
vt 0.117347 0.580075
vt 0.109645 0.460607
vt 0.110685 0.158500
vt 0.129581 0.485761
vt 0.129248 0.580075
vt 0.134390 0.385622
vt 0.135899 0.159410
vt 0.140014 0.020821
vt 0.107823 0.014192
vt 0.126318 0.874694
vt 0.120572 0.014192
vt 0.135593 0.879775
vt 0.135691 0.884952
vt 0.122532 0.875838
vt 0.138826 0.904888
vt 0.126621 0.888181
vt 0.115224 0.889211
vt 0.126621 0.919333
vt 0.135438 0.923222
vt 0.116833 0.905533
vt 0.126556 0.940526
vt 0.124227 0.943227
vt 0.128241 0.944315
vt 0.128130 0.970906
vt 0.124231 0.966407
vt 0.127923 0.973581
vt 0.123878 0.978786
vt 0.127624 0.982055
vt 0.126621 0.885556
vt 0.123379 0.580075
vt 0.122942 0.451843
vt 0.115223 0.108506
vt 0.130485 0.202195
vt 0.104926 0.205319
vt 0.110875 0.580075
vt 0.108060 0.467660
vt 0.115022 0.385497
vt 0.112971 0.108506
vt 0.124515 0.580075
vt 0.126487 0.202820
vt 0.130355 0.458675
vt 0.120180 0.014192
vt 0.121204 0.014192
vt 0.123879 0.874694
vt 0.134103 0.881659
vt 0.123847 0.878809
vt 0.126621 0.904942
vt 0.136632 0.885383
vt 0.115581 0.910534
vt 0.137718 0.912351
vt 0.115723 0.888795
vt 0.123964 0.925319
vt 0.126607 0.944000
vt 0.124559 0.940570
vt 0.127770 0.943225
vt 0.129712 0.973277
vt 0.124690 0.972425
vt 0.127868 0.974125
vt 0.125792 0.982056
vt 0.126621 0.885589
vt 0.124251 0.580075
vt 0.123058 0.147163
vt 0.118181 0.458737
vt 0.113454 0.580075
vt 0.113232 0.461033
vt 0.104128 0.174923
vt 0.113160 0.108506
vt 0.130568 0.548378
vt 0.133526 0.385490
vt 0.133058 0.180059
vt 0.132062 0.014192
vt 0.112581 0.014192
vt 0.133018 0.877101
vt 0.123699 0.876110
vt 0.141145 0.897222
vt 0.132177 0.890685
vt 0.115141 0.884585
vt 0.136163 0.907984
vt 0.115805 0.914402
vt 0.120534 0.913431
vt 0.125328 0.944101
vt 0.128705 0.943827
vt 0.126479 0.941185
vt 0.127680 0.973162
vt 0.123031 0.971874
vt 0.125939 0.973567
vt 0.127092 0.982274
vt 0.126778 0.882193
vt 0.130849 0.150991
vt 0.114221 0.580075
vt 0.117926 0.471298
vt 0.105365 0.385053
vt 0.103318 0.108506
vt 0.104930 0.205487
vt 0.117347 0.580075
vt 0.109645 0.460607
vt 0.121050 0.108506
vt 0.129581 0.485761
vt 0.130241 0.202684
vt 0.129248 0.580075
vt 0.134390 0.385622
vt 0.107823 0.014192
vt 0.128794 0.014192
vt 0.131562 0.876590
vt 0.126568 0.875534
vt 0.116338 0.884550
vt 0.138922 0.905290
vt 0.115542 0.888518
vt 0.123590 0.918337
vt 0.135454 0.925171
vt 0.132789 0.907190
vt 0.123812 0.941069
vt 0.128096 0.944102
vt 0.125099 0.942935
vt 0.129280 0.970407
vt 0.127324 0.982025
vt 0.123681 0.973993
vt 0.125530 0.975253
vt 0.127511 0.881194
vt 0.123379 0.580075
vt 0.122942 0.451843
vt 0.124761 0.200880
vt 0.107841 0.144962
vt 0.110875 0.580075
vt 0.108060 0.467660
vt 0.115022 0.385497
vt 0.124515 0.580075
vt 0.111149 0.156690
vt 0.130355 0.458675
vt 0.137188 0.145797
vt 0.129575 0.874694
vt 0.120180 0.014192
vt 0.121204 0.014192
vt 0.131184 0.882231
vt 0.125295 0.915110
vt 0.117682 0.881297
vt 0.115581 0.910534
vt 0.137718 0.912351
vt 0.117486 0.889154
vt 0.126607 0.944000
vt 0.124559 0.940570
vt 0.127770 0.943225
vt 0.124223 0.974688
vt 0.129651 0.975047
vt 0.126792 0.982051
vt 0.132904 0.885234
vt 0.138383 0.156659
vt 0.124251 0.580075
vt 0.118181 0.458737
vt 0.110271 0.145844
vt 0.113454 0.580075
vt 0.113232 0.461033
vt 0.104970 0.200872
vt 0.122468 0.144712
vt 0.130568 0.548378
vt 0.133526 0.385490
s 1
f 7/7/1 31/31/2 26/26/3
f 6/6/4 10/10/5 7/7/1
f 2/2/6 3/3/7 1/1/8
f 5/5/9 9/9/10 6/6/4
f 24/24/11 11/11/12 4/4/13
f 7/7/1 10/10/5 13/13/14
f 8/8/15 18/18/16 5/5/9
f 13/13/14 14/14/17 24/24/11
f 10/10/5 15/15/18 12/12/19
f 12/12/19 14/14/17 13/13/14
f 12/12/19 16/16/20 14/14/17
f 9/9/10 18/18/16 15/15/18
f 12/12/19 18/18/16 16/16/20
f 16/16/20 19/19/21 17/17/22
f 18/18/16 20/20/23 16/16/20
f 19/19/21 22/22/24 23/23/25
f 21/21/26 23/23/25 22/22/24
f 37/37/27 1/1/8 3/3/7
f 34/34/28 36/36/29 32/32/30
f 31/31/2 34/34/28 32/32/30
f 30/30/31 33/33/32 29/29/33
f 27/27/34 26/26/3 32/32/30
f 36/36/29 34/34/28 27/27/34
f 65/65/35 44/44/36 69/69/37
f 42/42/38 60/60/39 69/69/37
f 42/42/38 43/43/40 40/40/41
f 40/40/41 46/46/42 47/47/43
f 59/59/44 45/45/45 42/42/38
f 44/44/36 47/47/43 50/50/46
f 48/48/47 49/49/48 45/45/45
f 46/46/42 51/51/49 47/47/43
f 45/45/45 49/49/48 43/43/40
f 59/59/44 50/50/46 48/48/47
f 51/51/49 52/52/50 47/47/43
f 48/48/47 53/53/51 49/49/48
f 52/52/50 53/53/51 50/50/46
f 49/49/48 53/53/51 51/51/49
f 55/55/52 57/57/53 54/54/54
f 55/55/52 56/56/55 57/57/53
f 70/70/56 71/71/57 63/63/58
f 68/68/59 70/70/56 38/38/60
f 64/64/61 68/68/59 62/62/62
f 61/61/63 66/66/64 63/63/58
f 62/62/62 39/39/65 38/38/60
f 38/38/60 63/63/58 62/62/62
f 60/60/39 61/61/63 71/71/57
f 74/74/66 76/76/67 81/81/68
f 74/74/66 81/81/68 90/90/69
f 75/75/70 77/77/71 76/76/67
f 84/84/72 85/85/73 78/78/74
f 81/81/68 84/84/72 90/90/69
f 80/80/75 82/82/76 77/77/71
f 85/85/73 83/83/77 80/80/75
f 83/83/77 86/86/78 87/87/79
f 88/88/80 89/89/81 86/86/78
f 73/73/82 100/100/83 72/72/84
f 95/95/85 98/98/86 99/99/87
f 93/93/88 95/95/85 96/96/89
f 94/94/90 95/95/85 93/93/88
f 92/92/91 93/93/88 96/96/89
f 98/98/86 91/91/92 93/93/88
f 118/118/93 130/130/94 125/125/95
f 104/104/96 107/107/97 118/118/93
f 118/118/93 108/108/98 103/103/99
f 105/105/100 113/113/101 106/106/102
f 109/109/103 111/111/104 110/110/105
f 106/106/102 113/113/101 109/109/103
f 109/109/103 113/113/101 111/111/104
f 111/111/104 115/115/106 116/116/107
f 111/111/104 116/116/107 112/112/108
f 113/113/101 115/115/106 111/111/104
f 114/114/109 117/117/110 115/115/106
f 127/127/111 129/129/112 119/119/113
f 128/128/114 131/131/115 126/126/116
f 124/124/117 126/126/116 129/129/112
f 125/125/95 128/128/114 126/126/116
f 124/124/117 127/127/111 123/123/118
f 121/121/119 120/120/120 126/126/116
f 131/131/115 128/128/114 121/121/119
f 134/134/121 150/150/122 157/157/123
f 134/134/121 137/137/124 141/141/125
f 139/139/126 140/140/127 137/137/124
f 141/141/125 142/142/128 136/136/129
f 142/142/128 144/144/130 138/138/131
f 139/139/126 143/143/132 140/140/127
f 148/148/133 146/146/134 145/145/135
f 147/147/136 146/146/134 148/148/133
f 156/156/137 158/158/138 153/153/139
f 151/151/140 155/155/141 152/152/142
f 152/152/142 153/153/139 160/160/143
f 150/150/122 151/151/140 159/159/144
f 185/185/145 161/161/146 178/178/147
f 164/164/148 181/181/149 178/178/147
f 181/181/149 161/161/146 185/185/145
f 171/171/150 172/172/151 176/176/152
f 169/169/153 171/171/150 176/176/152
f 172/172/151 170/170/154 168/168/155
f 170/170/154 174/174/156 173/173/157
f 174/174/156 175/175/158 173/173/157
f 186/186/159 177/177/160 184/184/161
f 182/182/162 185/185/145 186/186/159
f 183/183/163 184/184/161 180/180/164
f 179/179/165 182/182/162 183/183/163
f 180/180/164 179/179/165 183/183/163
f 181/181/149 182/182/162 179/179/165
f 185/185/145 178/178/147 179/179/165
f 35/35/166 31/31/2 7/7/1 4/4/13
f 26/26/3 6/6/4 7/7/1
f 15/15/18 10/10/5 6/6/4 9/9/10
f 4/4/13 11/11/12 8/8/15
f 7/7/1 24/24/11 4/4/13
f 4/4/13 5/5/9 6/6/4
f 13/13/14 10/10/5 12/12/19
f 24/24/11 7/7/1 13/13/14
f 16/16/20 17/17/22 8/8/15 11/11/12
f 5/5/9 4/4/13 8/8/15
f 9/9/10 5/5/9 18/18/16
f 24/24/11 14/14/17 11/11/12
f 15/15/18 18/18/16 12/12/19
f 11/11/12 14/14/17 16/16/20
f 18/18/16 8/8/15 17/17/22
f 36/36/29 37/37/27 33/33/32 32/32/30
f 16/16/20 22/22/24 19/19/21
f 16/16/20 20/20/23 22/22/24
f 18/18/16 19/19/21 20/20/23
f 18/18/16 17/17/22 19/19/21
f 19/19/21 21/21/26 20/20/23
f 21/21/26 19/19/21 23/23/25
f 20/20/23 21/21/26 22/22/24
f 6/6/4 26/26/3 35/35/166 4/4/13
f 3/3/7 2/2/6 33/33/32 37/37/27
f 31/31/2 35/35/166 34/34/28
f 32/32/30 33/33/32 30/30/31 28/28/167
f 29/29/33 33/33/32 2/2/6
f 29/29/33 2/2/6 1/1/8 25/25/168
f 26/26/3 31/31/2 32/32/30
f 28/28/167 27/27/34 32/32/30
f 30/30/31 25/25/168 27/27/34 28/28/167
f 25/25/168 30/30/31 29/29/33
f 26/26/3 27/27/34 34/34/28 35/35/166
f 25/25/168 37/37/27 36/36/29 27/27/34
f 1/1/8 37/37/27 25/25/168
f 44/44/36 65/65/35 60/60/39 40/40/41
f 42/42/38 40/40/41 60/60/39
f 54/54/54 53/53/51 52/52/50 55/55/52
f 40/40/41 47/47/43 44/44/36
f 44/44/36 42/42/38 69/69/37
f 38/38/60 39/39/65 41/41/169
f 44/44/36 59/59/44 42/42/38
f 40/40/41 43/43/40 46/46/42
f 59/59/44 44/44/36 50/50/46
f 43/43/40 42/42/38 45/45/45
f 43/43/40 49/49/48 46/46/42
f 45/45/45 59/59/44 48/48/47
f 50/50/46 53/53/51 48/48/47
f 47/47/43 52/52/50 50/50/46
f 46/46/42 49/49/48 51/51/49
f 56/56/55 55/55/52 52/52/50 51/51/49
f 56/56/55 51/51/49 53/53/51 54/54/54
f 69/69/37 71/71/57 66/66/64 65/65/35
f 56/56/55 54/54/54 58/58/170
f 54/54/54 57/57/53 58/58/170
f 57/57/53 56/56/55 58/58/170
f 70/70/56 63/63/58 38/38/60
f 69/69/37 60/60/39 71/71/57
f 68/68/59 38/38/60 41/41/169
f 70/70/56 67/67/171 71/71/57
f 68/68/59 64/64/61 70/70/56
f 64/64/61 67/67/171 70/70/56
f 67/67/171 66/66/64 71/71/57
f 68/68/59 41/41/169 39/39/65 62/62/62
f 65/65/35 66/66/64 61/61/63 60/60/39
f 66/66/64 67/67/171 64/64/61
f 76/76/67 91/91/92 98/98/86 75/75/70
f 62/62/62 63/63/58 64/64/61
f 63/63/58 66/66/64 64/64/61
f 63/63/58 71/71/57 61/61/63
f 94/94/90 91/91/92 76/76/67 74/74/66
f 75/75/70 98/98/86 94/94/90 74/74/66
f 78/78/74 75/75/70 74/74/66 90/90/69
f 83/83/77 84/84/72 79/79/172 82/82/76
f 76/76/67 79/79/172 81/81/68
f 76/76/67 77/77/71 79/79/172
f 75/75/70 78/78/74 80/80/75
f 77/77/71 75/75/70 80/80/75
f 78/78/74 90/90/69 84/84/72
f 79/79/172 77/77/71 82/82/76
f 78/78/74 85/85/73 80/80/75
f 86/86/78 83/83/77 85/85/73 88/88/80
f 80/80/75 83/83/77 82/82/76
f 81/81/68 79/79/172 84/84/72
f 87/87/79 88/88/80 85/85/73 84/84/72
f 73/73/82 72/72/84 96/96/89 97/97/173
f 84/84/72 83/83/77 87/87/79
f 87/87/79 89/89/81 88/88/80
f 87/87/79 86/86/78 89/89/81
f 73/73/82 97/97/173 100/100/83
f 95/95/85 99/99/87 100/100/83
f 95/95/85 94/94/90 98/98/86
f 96/96/89 100/100/83 97/97/173
f 96/96/89 95/95/85 100/100/83
f 104/104/96 120/120/120 130/130/94 103/103/99
f 92/92/91 96/96/89 72/72/84
f 91/91/92 94/94/90 93/93/88
f 92/92/91 99/99/87 93/93/88
f 72/72/84 100/100/83 92/92/91
f 100/100/83 99/99/87 92/92/91
f 99/99/87 98/98/86 93/93/88
f 125/125/95 120/120/120 104/104/96 118/118/93
f 111/111/104 112/112/108 105/105/100 108/108/98
f 118/118/93 103/103/99 130/130/94
f 103/103/99 108/108/98 105/105/100
f 103/103/99 106/106/102 104/104/96
f 110/110/105 107/107/97 109/109/103
f 118/118/93 107/107/97 110/110/105
f 104/104/96 109/109/103 107/107/97
f 104/104/96 106/106/102 109/109/103
f 106/106/102 103/103/99 105/105/100
f 118/118/93 110/110/105 108/108/98
f 108/108/98 110/110/105 111/111/104
f 113/113/101 105/105/100 112/112/108
f 101/101/174 102/102/175 127/127/111 119/119/113
f 113/113/101 114/114/109 115/115/106
f 112/112/108 116/116/107 114/114/109
f 113/113/101 112/112/108 114/114/109
f 116/116/107 117/117/110 114/114/109
f 115/115/106 117/117/110 116/116/107
f 123/123/118 102/102/175 101/101/174 119/119/113
f 129/129/112 126/126/116 131/131/115
f 125/125/95 130/130/94 128/128/114
f 127/127/111 124/124/117 129/129/112
f 123/123/118 127/127/111 102/102/175
f 124/124/117 122/122/176 126/126/116
f 120/120/120 125/125/95 126/126/116
f 122/122/176 121/121/119 126/126/116
f 124/124/117 119/119/113 121/121/119 122/122/176
f 119/119/113 124/124/117 123/123/118
f 120/120/120 121/121/119 128/128/114 130/130/94
f 119/119/113 129/129/112 131/131/115 121/121/119
f 149/149/177 154/154/178 150/150/122 135/135/179
f 134/134/121 135/135/179 150/150/122
f 134/134/121 157/157/123 154/154/178 149/149/177
f 145/145/135 143/143/132 144/144/130 148/148/133
f 149/149/177 135/135/179 136/136/129
f 134/134/121 149/149/177 137/137/124
f 149/149/177 136/136/129 138/138/131
f 135/135/179 134/134/121 141/141/125
f 135/135/179 141/141/125 136/136/129
f 149/149/177 138/138/131 139/139/126
f 138/138/131 136/136/129 142/142/128
f 137/137/124 149/149/177 139/139/126
f 138/138/131 144/144/130 139/139/126
f 141/141/125 137/137/124 140/140/127
f 142/142/128 141/141/125 143/143/132
f 141/141/125 140/140/127 143/143/132
f 147/147/136 148/148/133 144/144/130 142/142/128
f 143/143/132 139/139/126 144/144/130
f 145/145/135 147/147/136 142/142/128 143/143/132
f 159/159/144 160/160/143 158/158/138 156/156/137
f 145/145/135 146/146/134 147/147/136
f 157/157/123 150/150/122 159/159/144
f 158/158/138 160/160/143 133/133/180
f 157/157/123 159/159/144 155/155/141 154/154/178
f 156/156/137 155/155/141 159/159/144
f 158/158/138 133/133/180 132/132/181 153/153/139
f 154/154/178 155/155/141 151/151/140 150/150/122
f 155/155/141 156/156/137 153/153/139
f 132/132/181 133/133/180 160/160/143 153/153/139
f 152/152/142 155/155/141 153/153/139
f 151/151/140 152/152/142 160/160/143 159/159/144
f 176/176/152 161/161/146 166/166/182 169/169/153
f 161/161/146 164/164/148 178/178/147
f 164/164/148 166/166/182 181/181/149
f 166/166/182 161/161/146 181/181/149
f 161/161/146 176/176/152 164/164/148
f 167/167/183 166/166/182 164/164/148 165/165/184
f 166/166/182 167/167/183 169/169/153
f 170/170/154 171/171/150 167/167/183 165/165/184
f 164/164/148 176/176/152 168/168/155
f 165/165/184 164/164/148 168/168/155
f 176/176/152 172/172/151 168/168/155
f 174/174/156 170/170/154 172/172/151 175/175/158
f 168/168/155 170/170/154 165/165/184
f 169/169/153 167/167/183 171/171/150
f 173/173/157 175/175/158 172/172/151 171/171/150
f 177/177/160 162/162/185 163/163/186 184/184/161
f 171/171/150 170/170/154 173/173/157
f 163/163/186 162/162/185 180/180/164 184/184/161
f 182/182/162 186/186/159 184/184/161
f 182/182/162 181/181/149 185/185/145
f 183/183/163 182/182/162 184/184/161
f 179/179/165 180/180/164 177/177/160 186/186/159
f 178/178/147 181/181/149 179/179/165
f 177/177/160 180/180/164 162/162/185
f 186/186/159 185/185/145 179/179/165
