# Blender 3.3.1
# www.blender.org
o Cylinder.007
v -0.191690 0.364658 -0.171021
v -0.079668 0.207642 -0.288217
v -0.022130 0.157472 -0.170694
v -0.081324 0.205834 -0.046790
v -0.201919 0.191322 0.014989
v -0.337920 0.244049 -0.077973
v -0.373196 0.202796 -0.170079
v -0.320666 0.224955 -0.288270
v -0.103925 0.093872 -0.273963
v -0.091977 0.086387 -0.086718
v -0.277156 0.086871 -0.049173
v -0.338709 0.088061 -0.148032
v -0.266992 0.086337 -0.299043
v -0.201198 0.205834 -0.339671
vn 0.0781 0.9969 -0.0090
vn -0.7323 0.4483 0.5125
vn 0.0016 0.1095 0.9940
vn -0.6973 0.3350 -0.6337
vn -0.9816 0.1853 -0.0469
vn 0.6969 0.2846 0.6583
vn 0.9980 -0.0622 -0.0127
vn 0.6778 0.2736 -0.6824
vn 0.0325 0.2280 -0.9731
vn 0.4374 -0.7303 -0.5247
vn 0.4847 -0.7701 0.4147
vn -0.3705 -0.7226 0.5837
vn -0.6910 -0.7208 0.0551
vn -0.3161 -0.7047 -0.6352
vt 0.451582 0.855698
vt 0.438002 0.855698
vt 0.431394 0.714642
vt 0.610694 0.687905
vt 0.462220 0.703591
vt 0.521684 0.687905
vt 0.413564 0.714813
vt 0.610819 0.353425
vt 0.649853 0.482402
vt 0.686435 0.228848
vt 0.725469 0.357825
vt 0.611225 0.348854
vt 0.650260 0.477831
vt 0.422310 0.303248
vt 0.461345 0.432225
vt 0.286372 0.687905
vt 0.242873 0.405329
vt 0.289198 0.534305
vt 0.154189 0.341256
vt 0.193224 0.470233
vt 0.283079 0.512150
vt 0.244045 0.383173
vt 0.580842 0.077683
vt 0.619877 0.206659
vt 0.589826 0.069151
vt 0.628860 0.198127
vt 0.422310 0.020336
vt 0.238199 0.123311
vt 0.348372 0.212498
vt 0.218782 0.065898
vt 0.246490 0.194875
vt 0.461345 0.194599
vt 0.310390 0.193144
vt 0.323610 0.090178
vt 0.461345 0.477831
vt 0.422310 0.348854
s 1
f 1/1/1 6/18/2 5/15/3
f 1/2/1 8/21/4 6/16/2
f 6/16/2 8/21/4 7/20/5
f 1/3/1 5/14/3 4/12/6
f 1/4/1 4/13/6 3/11/7
f 2/8/8 1/5/1 3/10/7
f 1/6/1 2/9/8 14/35/9
f 2/8/8 3/10/7 9/23/10
f 4/12/6 5/14/3 10/25/11
f 3/10/7 10/25/11 9/23/10
f 8/22/4 1/7/1 14/36/9
f 10/25/11 11/27/12 12/30/13 13/34/14 9/23/10
f 9/24/10 13/32/14 14/35/9 2/9/8
f 10/25/11 5/14/3 11/27/12
f 12/30/13 11/28/12 6/17/2 7/19/5
f 3/11/7 4/13/6 10/26/11
f 5/15/3 6/18/2 11/29/12
f 13/33/14 12/31/13 7/20/5 8/21/4
f 8/22/4 14/36/9 13/34/14
