# Blender 3.3.1
# www.blender.org
o Cube
v -0.024190 0.101780 0.035632
v -0.007028 0.144268 0.012622
v -0.024193 0.101803 -0.010970
v -0.063624 0.140411 0.012496
v 0.021688 0.101610 0.012334
v -0.067091 0.131930 0.017023
v -0.067091 0.131930 0.007846
v 0.015445 0.128660 -0.040334
v 0.018912 0.137141 -0.035684
v 0.024621 0.128660 -0.035746
v 0.024681 0.128220 0.060733
v 0.018971 0.136701 0.060795
v 0.015504 0.128220 0.065322
v -0.012490 0.050697 0.007646
v -0.003313 0.050697 0.012234
v -0.012490 0.050697 0.016822
v 0.010378 0.138919 0.043894
v 0.023413 0.119558 0.043754
v 0.002465 0.119558 0.054228
v 0.010344 0.139170 -0.018735
v 0.002431 0.119810 -0.029349
v 0.023379 0.119810 -0.018875
v -0.052231 0.121678 0.022880
v -0.044317 0.141039 0.012546
v -0.052231 0.121678 0.001932
v 0.004584 0.068330 0.012241
v -0.016364 0.068330 0.001767
v -0.016364 0.068330 0.022715
v -0.033162 0.095771 0.012294
v -0.019801 0.129210 0.031123
v -0.040640 0.114016 0.027145
v -0.056304 0.141497 0.012521
v -0.061909 0.127783 0.005002
v 0.023408 0.134010 -0.035932
v 0.016375 0.134010 -0.039448
v 0.016268 0.128939 0.012516
v 0.002907 0.095500 -0.006313
v -0.068830 0.130883 0.012424
v 0.002912 0.095464 0.030912
v -0.066173 0.137383 0.008954
v -0.066173 0.137383 0.015987
v -0.019806 0.129246 -0.006102
v 0.020751 0.127510 -0.039495
v 0.015720 0.138753 -0.029291
v -0.007488 0.113078 -0.020946
v 0.024954 0.125039 -0.029390
v 0.023469 0.133557 0.060995
v 0.016436 0.133557 0.064512
v 0.020812 0.127056 0.064465
v 0.015770 0.138384 0.054432
v 0.021978 0.112931 0.030980
v 0.010165 0.124670 0.061752
v -0.007086 0.049484 0.008717
v -0.007086 0.049484 0.015750
v -0.014120 0.049484 0.012234
v 0.000468 0.057062 0.012235
v -0.019078 0.081955 -0.002502
v -0.014371 0.057062 0.019654
v 0.003636 0.140175 0.031175
v 0.025003 0.124670 0.054333
v -0.007471 0.112949 0.045743
v 0.013579 0.114718 0.050266
v 0.002173 0.131659 0.050388
v 0.020503 0.131659 0.041223
v 0.003619 0.140302 -0.005988
v 0.010115 0.125039 -0.036810
v 0.021961 0.113057 -0.006183
v 0.013545 0.114969 -0.025456
v 0.020469 0.131910 -0.016169
v 0.002139 0.131910 -0.025334
v -0.061909 0.127783 0.019841
v -0.029533 0.141243 0.012577
v -0.040640 0.114018 -0.002382
v -0.054209 0.116838 0.012371
v -0.047285 0.133779 0.003329
v -0.047285 0.133779 0.021658
v 0.010371 0.081934 0.012261
v -0.014371 0.057062 0.004815
v -0.019078 0.081952 0.027024
v -0.021601 0.068330 0.012241
v -0.003272 0.068330 0.021406
v -0.003272 0.068330 0.003076
v 0.008238 0.106666 -0.015587
v 0.017762 0.129877 0.027780
v -0.058513 0.136410 0.018992
v -0.007478 0.129906 0.040460
v 0.008256 0.106536 0.040295
v -0.069210 0.136096 0.012455
v -0.058513 0.136410 0.005976
v -0.063429 0.124380 0.012397
v 0.021171 0.132527 -0.040279
v 0.009943 0.133655 -0.034073
v 0.022958 0.133655 -0.027565
v 0.018042 0.121626 -0.034160
v 0.021236 0.132047 0.065318
v 0.023008 0.133285 0.052632
v 0.009992 0.133285 0.059140
v 0.018091 0.121256 0.059053
v -0.009431 0.047160 0.012234
v -0.005086 0.056943 0.005727
v -0.005086 0.056943 0.018742
v -0.018102 0.056943 0.012235
v 0.017745 0.130003 -0.002740
v -0.007495 0.130036 -0.015422
v -0.043537 0.107629 0.012336
v -0.034031 0.130970 -0.000179
v -0.034030 0.130966 0.025183
v -0.026098 0.081689 0.012259
v -0.000858 0.081656 0.024941
v -0.000859 0.081660 -0.000421
vn -0.4708 -0.3127 -0.8250
vn -0.4128 -0.2730 -0.8689
vn 0.3016 -0.7485 -0.5906
vn 0.3763 -0.5724 -0.7285
vn -0.5009 -0.3324 -0.7991
vn 0.2628 -0.8116 -0.5218
vn 0.9365 -0.3466 -0.0528
vn 0.9455 -0.2994 -0.1283
vn 0.9298 -0.3680 -0.0008
vn 0.0106 0.9999 0.0035
vn 0.0792 0.9883 0.1300
vn 0.8160 0.5501 -0.1777
vn 0.8297 0.5582 0.0016
vn 0.0325 0.9980 0.0545
vn 0.8049 0.5430 -0.2394
vn 0.9359 -0.3489 0.0488
vn 0.9451 -0.3017 0.1255
vn 0.0133 0.9999 0.0025
vn -0.0387 0.9992 0.0025
vn -0.1580 0.5294 0.8335
vn -0.1048 0.5150 0.8508
vn -0.2950 0.9555 0.0013
vn -0.5673 0.5738 0.5907
vn -0.7023 -0.1181 0.7020
vn -0.5199 -0.2728 0.8095
vn -0.4739 -0.3024 0.8270
vn -0.4703 -0.3197 0.8225
vn -0.4134 -0.2824 0.8657
vn -0.5820 0.5599 0.5898
vn -0.3910 0.5623 0.7287
vn -0.5014 -0.3415 0.7950
vn -0.6551 0.5479 0.5203
vn 0.2988 -0.7552 0.5834
vn 0.3749 -0.5784 0.7245
vn 0.2592 -0.8184 0.5129
vn -0.9301 0.3673 0.0006
vn -0.9482 -0.3176 -0.0013
vn -0.5643 0.5786 -0.5889
vn -0.7010 -0.1111 -0.7044
vn -0.4733 -0.2951 -0.8300
vn -0.5191 -0.2656 -0.8124
vn -0.1536 0.5364 -0.8299
vn -0.1008 0.5223 -0.8468
vn -0.6973 -0.7168 -0.0012
vn -0.6483 -0.7614 -0.0011
vn -0.2813 -0.1829 -0.9420
vn -0.2278 0.5377 -0.8118
vn 0.4279 0.2941 -0.8547
vn 0.4083 -0.4050 -0.8181
vn 0.1681 0.9279 -0.3327
vn 0.7889 0.5337 -0.3045
vn 0.9214 -0.1889 -0.3396
vn 0.0301 0.9985 -0.0453
vn 0.0546 0.9934 -0.1006
vn -0.6201 0.5570 -0.5525
vn -0.6567 0.5522 -0.5136
vn -0.4722 -0.3127 -0.8241
vn 0.9408 -0.3211 -0.1085
vn 0.8176 0.5494 0.1725
vn 0.8053 0.5406 0.2436
vn 0.2810 -0.7785 -0.5612
vn 0.9211 -0.1951 0.3368
vn 0.7903 0.5289 0.3092
vn 0.4289 0.2830 0.8579
vn 0.4069 -0.4166 0.8129
vn 0.1716 0.9240 0.3418
vn -0.2254 0.5285 0.8184
vn -0.2812 -0.1953 0.9396
vn 0.0574 0.9922 0.1104
vn 0.8175 0.5509 -0.1680
vn 0.9401 -0.3244 0.1045
vn -0.4727 -0.3224 0.8201
vn -0.6179 0.5521 0.5598
vn 0.2774 -0.7863 0.5520
vn -0.3712 -0.6063 -0.7033
vn 0.3191 -0.7418 -0.5898
vn -0.0120 -0.9999 -0.0000
vn -0.6525 -0.7578 -0.0000
vn 0.7725 -0.6350 -0.0000
vn 0.3191 -0.7419 0.5898
vn -0.3712 -0.6064 0.7032
vn 0.9304 -0.3664 -0.0003
vn 0.9101 -0.4144 -0.0001
vn 0.4340 -0.3457 -0.8320
vn 0.4409 -0.2907 -0.8492
vn -0.4455 -0.3789 -0.8111
vn -0.4554 -0.3248 -0.8289
vn -0.4554 -0.3264 0.8283
vn -0.4455 -0.3795 0.8109
vn 0.4339 -0.3462 0.8318
vn 0.4408 -0.2923 0.8487
vn -0.9271 -0.3748 -0.0001
vn -0.9499 -0.3126 -0.0002
vn 0.8164 0.5483 0.1813
vn 0.0780 0.9894 -0.1225
vn -0.5829 0.5651 -0.5839
vn -0.3898 0.5690 -0.7241
vn -0.5487 -0.2581 0.7951
vn -0.7066 -0.7076 -0.0010
vn -0.8298 -0.5580 -0.0008
vn -0.5489 -0.2507 -0.7974
vn -0.1841 0.5407 -0.8208
vn -0.0945 0.9955 0.0027
vn -0.1873 0.5334 0.8248
vn -0.4429 -0.4104 -0.7971
vn -0.9220 -0.3872 -0.0004
vn -0.4427 -0.4140 0.7954
vn 0.4263 -0.3770 0.8222
vn 0.8856 -0.4644 -0.0009
vn 0.4267 -0.3733 -0.8237
vt 0.439958 0.434338
vt 0.548690 0.981036
vt 0.375679 0.326672
vt 0.268105 0.905943
vt 0.833676 0.326672
vt 0.262815 0.827344
vt 0.232749 0.821308
vt 0.642900 0.812608
vt 0.665579 0.889102
vt 0.723817 0.804468
vt 0.724128 0.802203
vt 0.665890 0.886836
vt 0.643173 0.810626
vt 0.497147 0.011339
vt 0.590740 0.011339
vt 0.514259 0.050756
vt 0.614928 0.911974
vt 0.728222 0.747331
vt 0.580784 0.725188
vt 0.614773 0.913106
vt 0.580628 0.726320
vt 0.728067 0.748463
vt 0.325512 0.734741
vt 0.384795 0.921527
vt 0.316015 0.756883
vt 0.649727 0.169005
vt 0.467653 0.169005
vt 0.492792 0.169005
vt 0.386257 0.373510
vt 0.469609 0.714420
vt 0.368043 0.604505
vt 0.326450 0.913735
vt 0.274382 0.789096
vt 0.694698 0.846785
vt 0.647965 0.841466
vt 0.691183 0.653854
vt 0.604315 0.364778
vt 0.251361 0.821803
vt 0.610008 0.372183
vt 0.250427 0.863626
vt 0.266023 0.856901
vt 0.464607 0.705593
vt 0.672116 0.806368
vt 0.640176 0.901104
vt 0.524639 0.592707
vt 0.725942 0.776466
vt 0.695010 0.844520
vt 0.648250 0.839391
vt 0.672402 0.804293
vt 0.640410 0.899405
vt 0.780949 0.537002
vt 0.618290 0.788830
vt 0.543943 0.011339
vt 0.543481 0.037678
vt 0.504668 0.037678
vt 0.620234 0.090172
vt 0.421666 0.247839
vt 0.505142 0.095160
vt 0.581809 0.946505
vt 0.726175 0.774767
vt 0.529278 0.599696
vt 0.643174 0.696300
vt 0.578427 0.807073
vt 0.677554 0.807301
vt 0.581732 0.947071
vt 0.618062 0.790493
vt 0.780871 0.537568
vt 0.643018 0.697432
vt 0.677398 0.808433
vt 0.578271 0.808205
vt 0.285960 0.802857
vt 0.466743 0.951282
vt 0.345847 0.541778
vt 0.314088 0.705852
vt 0.352044 0.816854
vt 0.353395 0.816626
vt 0.741702 0.247839
vt 0.482400 0.090172
vt 0.472619 0.257261
vt 0.462552 0.169005
vt 0.566605 0.169005
vt 0.563029 0.169005
vt 0.627579 0.541323
vt 0.681977 0.739518
vt 0.303455 0.849803
vt 0.528697 0.751592
vt 0.628799 0.542632
vt 0.249707 0.848471
vt 0.300580 0.849180
vt 0.277189 0.785258
vt 0.672318 0.832059
vt 0.616829 0.837341
vt 0.683657 0.836550
vt 0.660095 0.772796
vt 0.672621 0.829852
vt 0.683890 0.834851
vt 0.617059 0.835665
vt 0.660326 0.771121
vt 0.529311 0.019369
vt 0.551751 0.090172
vt 0.554349 0.093335
vt 0.484816 0.093335
vt 0.681899 0.740084
vt 0.527477 0.750283
vt 0.348975 0.547541
vt 0.406548 0.749326
vt 0.409557 0.756368
vt 0.427328 0.253515
vt 0.588012 0.253382
vt 0.581928 0.251507
s 1
f 3/3/1 45/45/2 83/83/3 37/37/4
f 45/45/2 21/21/5 68/68/6 83/83/3
f 83/83/3 68/68/6 22/22/7 67/67/8
f 37/37/4 83/83/3 67/67/8 5/5/9
f 2/2/10 59/59/11 84/84/12 36/36/13
f 59/59/11 17/17/14 64/64/15 84/84/12
f 84/84/12 64/64/15 18/18/16 51/51/17
f 36/36/13 84/84/12 51/51/17 5/5/9
f 24/24/18 32/32/19 85/85/20 76/76/21
f 32/32/19 4/4/22 41/41/23 85/85/20
f 85/85/20 41/41/23 6/6/24 71/71/25
f 76/76/21 85/85/20 71/71/25 23/23/26
f 1/1/27 61/61/28 86/86/29 30/30/30
f 61/61/28 19/19/31 63/63/32 86/86/29
f 86/86/29 63/63/32 17/17/14 59/59/11
f 30/30/30 86/86/29 59/59/11 2/2/10
f 5/5/9 51/51/17 87/87/33 39/39/34
f 51/51/17 18/18/16 62/62/35 87/87/33
f 87/87/33 62/62/35 19/19/31 61/61/28
f 39/39/34 87/87/33 61/61/28 1/1/27
f 6/6/24 41/41/23 88/88/36 38/38/37
f 4/4/22 40/40/38 88/88/36 41/41/23
f 7/7/39 38/38/37 88/88/36 40/40/38
f 25/25/40 33/33/41 89/89/42 75/75/43
f 33/33/41 7/7/39 40/40/38 89/89/42
f 89/89/42 40/40/38 4/4/22 32/32/19
f 75/75/43 89/89/42 32/32/19 24/24/18
f 23/23/26 71/71/25 90/90/44 74/74/45
f 71/71/25 6/6/24 38/38/37 90/90/44
f 90/90/44 38/38/37 7/7/39 33/33/41
f 74/74/45 90/90/44 33/33/41 25/25/40
f 8/8/46 35/35/47 91/91/48 43/43/49
f 9/9/50 34/34/51 91/91/48 35/35/47
f 10/10/52 43/43/49 91/91/48 34/34/51
f 20/20/53 44/44/54 92/92/55 70/70/56
f 44/44/54 9/9/50 35/35/47 92/92/55
f 92/92/55 35/35/47 8/8/46 66/66/57
f 70/70/56 92/92/55 66/66/57 21/21/5
f 22/22/7 46/46/58 93/93/59 69/69/60
f 46/46/58 10/10/52 34/34/51 93/93/59
f 93/93/59 34/34/51 9/9/50 44/44/54
f 69/69/60 93/93/59 44/44/54 20/20/53
f 21/21/5 66/66/57 94/94/61 68/68/6
f 66/66/57 8/8/46 43/43/49 94/94/61
f 94/94/61 43/43/49 10/10/52 46/46/58
f 68/68/6 94/94/61 46/46/58 22/22/7
f 11/11/62 47/47/63 95/95/64 49/49/65
f 12/12/66 48/48/67 95/95/64 47/47/63
f 13/13/68 49/49/65 95/95/64 48/48/67
f 17/17/14 50/50/69 96/96/70 64/64/15
f 50/50/69 12/12/66 47/47/63 96/96/70
f 96/96/70 47/47/63 11/11/62 60/60/71
f 64/64/15 96/96/70 60/60/71 18/18/16
f 19/19/31 52/52/72 97/97/73 63/63/32
f 52/52/72 13/13/68 48/48/67 97/97/73
f 97/97/73 48/48/67 12/12/66 50/50/69
f 63/63/32 97/97/73 50/50/69 17/17/14
f 18/18/16 60/60/71 98/98/74 62/62/35
f 60/60/71 11/11/62 49/49/65 98/98/74
f 98/98/74 49/49/65 13/13/68 52/52/72
f 62/62/35 98/98/74 52/52/72 19/19/31
f 14/14/75 53/53/76 99/99/77 55/55/78
f 15/15/79 54/54/80 99/99/77 53/53/76
f 16/16/81 55/55/78 99/99/77 54/54/80
f 26/26/82 56/56/83 100/100/84 82/82/85
f 56/56/83 15/15/79 53/53/76 100/100/84
f 100/100/84 53/53/76 14/14/75 78/78/86
f 82/82/85 100/100/84 78/78/86 27/27/87
f 28/28/88 58/58/89 101/101/90 81/81/91
f 58/58/89 16/16/81 54/54/80 101/101/90
f 101/101/90 54/54/80 15/15/79 56/56/83
f 81/81/91 101/101/90 56/56/83 26/26/82
f 27/27/87 78/78/86 102/102/92 80/80/93
f 78/78/86 14/14/75 55/55/78 102/102/92
f 102/102/92 55/55/78 16/16/81 58/58/89
f 80/80/93 102/102/92 58/58/89 28/28/88
f 5/5/9 67/67/8 103/103/94 36/36/13
f 67/67/8 22/22/7 69/69/60 103/103/94
f 103/103/94 69/69/60 20/20/53 65/65/95
f 36/36/13 103/103/94 65/65/95 2/2/10
f 2/2/10 65/65/95 104/104/96 42/42/97
f 65/65/95 20/20/53 70/70/56 104/104/96
f 104/104/96 70/70/56 21/21/5 45/45/2
f 42/42/97 104/104/96 45/45/2 3/3/1
f 1/1/27 31/31/98 105/105/99 29/29/100
f 31/31/98 23/23/26 74/74/45 105/105/99
f 105/105/99 74/74/45 25/25/40 73/73/101
f 29/29/100 105/105/99 73/73/101 3/3/1
f 3/3/1 73/73/101 106/106/102 42/42/97
f 73/73/101 25/25/40 75/75/43 106/106/102
f 106/106/102 75/75/43 24/24/18 72/72/103
f 42/42/97 106/106/102 72/72/103 2/2/10
f 2/2/10 72/72/103 107/107/104 30/30/30
f 72/72/103 24/24/18 76/76/21 107/107/104
f 107/107/104 76/76/21 23/23/26 31/31/98
f 30/30/30 107/107/104 31/31/98 1/1/27
f 3/3/1 57/57/105 108/108/106 29/29/100
f 57/57/105 27/27/87 80/80/93 108/108/106
f 108/108/106 80/80/93 28/28/88 79/79/107
f 29/29/100 108/108/106 79/79/107 1/1/27
f 1/1/27 79/79/107 109/109/108 39/39/34
f 79/79/107 28/28/88 81/81/91 109/109/108
f 109/109/108 81/81/91 26/26/82 77/77/109
f 39/39/34 109/109/108 77/77/109 5/5/9
f 5/5/9 77/77/109 110/110/110 37/37/4
f 77/77/109 26/26/82 82/82/85 110/110/110
f 110/110/110 82/82/85 27/27/87 57/57/105
f 37/37/4 110/110/110 57/57/105 3/3/1
