# Blender 3.3.1
# www.blender.org
o Stage1_LOD2
v -0.770398 0.008035 -0.466055
v -0.750527 0.045906 -0.441467
v -0.792094 0.045329 -0.405153
v -0.802754 0.045656 -0.469512
v -0.768953 0.046208 -0.469435
v -0.818424 0.046801 -0.433540
v -0.791838 0.014791 -0.406616
v -0.749503 0.016303 -0.434361
v -0.824495 0.018641 -0.432300
v -0.811399 0.017159 -0.467745
v -0.004901 0.005080 0.059873
v 0.033359 0.054724 0.035921
v -0.005564 0.043099 0.111432
v -0.043137 0.054401 0.042119
v -0.006328 0.055115 0.018455
v -0.034904 0.055883 0.092244
v 0.024402 0.054707 0.093392
v 0.012923 0.014442 0.102842
v -0.007283 0.019718 0.010967
v 0.039465 0.016400 0.042929
v -0.040633 0.019427 0.097858
v -0.051296 0.017507 0.050114
v 0.039075 0.003779 -0.027488
v 0.070284 0.046915 -0.073432
v 0.046998 0.046338 0.029687
v -0.006223 0.058989 -0.040718
v 0.030542 0.059790 -0.073089
v 0.011305 0.060649 0.013376
v 0.081249 0.060187 -0.039613
v 0.071789 0.060229 0.005123
v 0.028227 0.020165 -0.081215
v 0.085332 0.016450 -0.053691
v 0.074011 0.016668 0.016606
v 0.005907 0.019839 0.020551
v -0.013912 0.017690 -0.030499
v 0.042050 0.008035 0.053517
v 0.051344 0.045906 0.023301
v 0.104684 0.045329 0.037493
v 0.057258 0.045656 0.082285
v 0.038440 0.046208 0.054207
v 0.095847 0.046801 0.075189
v 0.103327 0.014791 0.038097
v 0.056667 0.016303 0.018482
v 0.100267 0.018641 0.079531
v 0.063552 0.017159 0.088469
v 0.019903 0.005080 -0.506726
v 0.054322 0.054724 -0.477521
v -0.011566 0.054804 -0.472936
v 0.025238 0.054401 -0.548543
v 0.058943 0.055115 -0.520634
v -0.020036 0.055883 -0.525509
v -0.022730 0.016773 -0.479061
v 0.065789 0.019718 -0.523813
v 0.049493 0.016400 -0.469579
v -0.027122 0.019427 -0.529269
v 0.015146 0.017507 -0.553897
v 0.116482 0.003779 -0.491286
v 0.169722 0.046915 -0.475465
v 0.077690 0.059501 -0.456949
v 0.115365 0.058989 -0.538463
v 0.157354 0.059790 -0.513235
v 0.069125 0.060649 -0.505369
v 0.140816 0.060187 -0.454769
v 0.085533 0.016431 -0.444898
v 0.164397 0.020165 -0.517903
v 0.155469 0.016450 -0.455142
v 0.060651 0.019839 -0.508340
v 0.103297 0.017690 -0.542694
v 0.040186 0.008035 -0.463907
v 0.071798 0.045906 -0.464205
v 0.069953 0.045914 -0.407409
v 0.017378 0.045656 -0.440698
v 0.038435 0.046208 -0.467138
v 0.035834 0.046801 -0.406073
v 0.078003 0.016303 -0.460593
v 0.078822 0.016454 -0.411469
v 0.033035 0.018641 -0.400545
v 0.013392 0.017159 -0.432825
v 0.290250 0.005080 -0.673769
v 0.324669 0.054724 -0.644565
v 0.295585 0.054401 -0.715586
v 0.329289 0.055115 -0.687678
v 0.242386 0.055350 -0.678300
v 0.265660 0.054614 -0.635637
v 0.254701 0.014442 -0.643764
v 0.336135 0.019718 -0.690857
v 0.319840 0.016400 -0.636622
v 0.243224 0.019427 -0.696312
v 0.285493 0.017507 -0.720940
v 0.648249 0.005080 -0.019223
v 0.691540 0.054724 -0.032007
v 0.648103 0.054735 0.027370
v 0.616195 0.054401 -0.046603
v 0.658011 0.055115 -0.059500
v 0.610649 0.055883 0.003890
v 0.659104 0.019718 -0.066968
v 0.695538 0.016400 -0.023615
v 0.660550 0.016595 0.029504
v 0.603621 0.019427 0.007756
v 0.606186 0.017507 -0.041096
v 0.756506 0.046915 -0.127406
v 0.721841 0.059333 -0.039812
v 0.710616 0.003895 -0.093529
v 0.674021 0.058989 -0.116465
v 0.718135 0.059790 -0.137760
v 0.676360 0.060649 -0.059650
v 0.757975 0.060187 -0.091884
v 0.718090 0.020165 -0.146210
v 0.765693 0.016450 -0.104346
v 0.736323 0.013084 -0.042313
v 0.669231 0.019839 -0.054191
v 0.663868 0.017690 -0.108690
v -0.501263 0.003779 0.593956
v -0.546738 0.046915 0.625844
v -0.488393 0.046338 0.537688
v -0.463602 0.058989 0.622391
v -0.509458 0.059790 0.639618
v -0.460805 0.060649 0.565597
v -0.544996 0.060187 0.590334
v -0.520284 0.060229 0.551861
v -0.510177 0.020165 0.648037
v -0.553807 0.016450 0.602048
v -0.518289 0.016668 0.540337
v -0.453212 0.019839 0.560803
v -0.452789 0.017690 0.615564
v -0.475314 0.008035 0.517161
v -0.494721 0.045906 0.542117
v -0.537829 0.046009 0.505298
v -0.479329 0.045656 0.484870
v -0.471694 0.046208 0.517797
v -0.517927 0.046801 0.477818
v -0.540042 0.016290 0.514969
v -0.501406 0.016303 0.544735
v -0.520519 0.018641 0.472191
v -0.483022 0.017159 0.476855
v 0.252859 0.046915 0.668244
v 0.354064 0.046338 0.637694
v 0.309280 0.003895 0.676623
v 0.319025 0.058989 0.718698
v 0.272741 0.059790 0.702657
v 0.357459 0.060649 0.676790
v 0.276884 0.060187 0.642038
v 0.320474 0.060229 0.628226
v 0.266810 0.020165 0.708676
v 0.262622 0.016450 0.645422
v 0.326854 0.012894 0.622540
v 0.366363 0.019839 0.677953
v 0.331706 0.017690 0.720353
v 0.377238 0.008035 0.630258
v 0.346365 0.045906 0.637059
v 0.336475 0.045914 0.581100
v 0.394778 0.045656 0.602849
v 0.379617 0.046208 0.633059
v 0.369587 0.046801 0.572767
v 0.339549 0.016303 0.634803
v 0.328632 0.016454 0.586900
v 0.371188 0.018641 0.566781
v 0.397057 0.017159 0.594324
v -0.680873 0.046915 -0.371723
v -0.753396 0.046338 -0.448639
v -0.698568 0.003895 -0.425949
v -0.665271 0.058989 -0.453455
v -0.658958 0.059790 -0.404878
v -0.719929 0.060649 -0.469133
v -0.715049 0.060187 -0.381520
v -0.746871 0.060229 -0.414356
v -0.650925 0.020165 -0.402258
v -0.705654 0.016450 -0.370269
v -0.754807 0.012894 -0.417526
v -0.722865 0.019839 -0.477619
v -0.669452 0.017690 -0.465540
vn 0.3518 0.6713 -0.6523
vn -0.3498 0.6851 -0.6390
vn -0.6381 0.7604 0.1208
vn 0.7307 0.6809 0.0486
vn -0.0341 0.6586 0.7517
vn 0.2883 -0.8033 -0.5212
vn -0.8272 -0.5313 0.1829
vn 0.8041 -0.5507 0.2240
vn -0.0532 -0.6789 0.7323
vn -0.5379 -0.5561 -0.6336
vn -0.0495 0.7549 -0.6539
vn -0.6384 0.7089 -0.2999
vn -0.4845 0.7820 0.3920
vn 0.6193 0.7030 -0.3497
vn 0.5525 0.7070 0.4415
vn -0.0648 -0.5177 -0.8531
vn 0.0097 0.3245 0.9458
vn -0.6334 -0.5251 0.5684
vn 0.7676 -0.5923 -0.2449
vn 0.3741 -0.6849 0.6253
vn -0.7971 -0.5631 -0.2183
vn -0.1742 0.7743 -0.6083
vn -0.6761 0.7089 -0.2007
vn -0.4244 0.7793 0.4610
vn 0.6311 0.7701 -0.0931
vn 0.5378 0.7691 0.3454
vn 0.5255 0.3587 -0.7715
vn -0.2296 -0.5419 -0.8085
vn 0.1428 0.3263 0.9344
vn -0.5304 -0.5330 0.6592
vn 0.5687 -0.6038 0.5587
vn 0.7213 -0.6146 -0.3194
vn -0.8208 -0.5631 -0.0962
vn -0.7376 0.6713 0.0726
vn -0.3347 0.6851 0.6471
vn 0.4566 0.7604 0.4618
vn -0.3679 0.6809 -0.6332
vn 0.6425 0.6586 -0.3916
vn -0.5933 -0.8033 0.0520
vn 0.6137 -0.5313 0.5840
vn -0.2634 -0.5507 -0.7921
vn 0.6371 -0.6789 -0.3649
vn -0.2251 -0.5561 0.8001
vn 0.6082 0.7549 -0.2453
vn 0.0923 0.7089 -0.6992
vn -0.5798 0.7588 -0.2968
vn 0.5039 0.7006 0.5051
vn -0.4313 0.6894 0.5820
vn 0.7934 -0.5177 -0.3202
vn 0.4481 -0.5871 0.6742
vn -0.6383 -0.5706 0.5168
vn -0.0335 -0.5631 -0.8257
vn 0.5269 0.7743 -0.3504
vn -0.0136 0.7089 -0.7052
vn -0.6054 0.7589 -0.2399
vn 0.2527 0.7747 0.5796
vn -0.4686 0.6905 0.5510
vn 0.8945 0.3587 0.2670
vn 0.7009 -0.5419 -0.4637
vn -0.8205 -0.5055 -0.2671
vn 0.5153 -0.6032 0.6088
vn -0.3945 -0.5793 0.7133
vn -0.1570 -0.5631 -0.8114
vn -0.2927 0.6713 -0.6809
vn -0.7180 0.6851 -0.1229
vn -0.3153 0.7615 0.5663
vn 0.5012 0.6848 -0.5289
vn 0.4938 0.7003 0.5156
vn -0.2266 -0.8071 -0.5452
vn -0.3612 -0.5470 0.7552
vn 0.6833 -0.5363 -0.4955
vn 0.6565 -0.5933 0.4659
vn -0.8307 -0.5561 0.0279
vn 0.6053 0.7572 -0.2453
vn 0.0659 0.7232 -0.6875
vn -0.6887 0.7151 -0.1197
vn 0.5190 0.7045 0.4842
vn -0.3151 0.6837 0.6582
vn 0.4663 -0.5920 0.6574
vn -0.5329 -0.6489 0.5431
vn -0.7591 -0.4952 -0.4226
vn -0.0591 -0.5398 -0.8397
vn 0.1282 0.7549 -0.6432
vn -0.5342 0.7089 -0.4604
vn -0.5797 0.7615 0.2899
vn 0.7011 0.7040 -0.1134
vn 0.1170 0.7003 0.7042
vn 0.1670 -0.5177 -0.8391
vn -0.7472 -0.5060 0.4309
vn 0.8297 -0.5581 -0.0089
vn 0.2910 -0.5524 0.7811
vn -0.7090 -0.5631 -0.4245
vn -0.0043 0.7743 -0.6327
vn -0.5973 0.7089 -0.3751
vn -0.5327 0.7595 0.3733
vn 0.6254 0.7726 0.1092
vn 0.2106 0.6784 0.7039
vn 0.7135 0.3587 -0.6018
vn -0.0015 -0.5390 -0.8423
vn -0.6772 -0.4979 0.5417
vn -0.0376 -0.9981 -0.0486
vn 0.7914 -0.6029 -0.1013
vn 0.3729 -0.6311 0.6802
vn -0.7696 -0.5555 -0.3149
vn -0.0528 0.7743 0.6306
vn 0.5610 0.7089 0.4275
vn 0.5604 0.7793 -0.2805
vn -0.6231 0.7701 -0.1367
vn -0.3804 0.7691 -0.5137
vn -0.7649 0.3587 0.5350
vn -0.0721 -0.5419 0.8373
vn 0.1979 0.3263 -0.9243
vn 0.7297 -0.5330 -0.4282
vn -0.3335 -0.6038 -0.7240
vn -0.7877 -0.6146 0.0428
vn 0.7333 -0.5631 0.3811
vn 0.7154 0.6713 0.1937
vn 0.5424 0.6851 -0.4863
vn -0.2488 0.7610 -0.5991
vn 0.1021 0.6846 0.7218
vn -0.7095 0.7016 0.0664
vn 0.5685 -0.8067 0.1610
vn -0.3693 -0.5461 -0.7519
vn -0.0369 -0.5347 0.8442
vn -0.7702 -0.5963 0.2263
vn 0.4942 -0.5561 -0.6683
vn -0.4435 0.7743 0.4514
vn 0.1585 0.7089 0.6872
vn 0.6103 0.7793 0.1422
vn -0.3902 0.7684 -0.5073
vn 0.0413 0.7600 -0.6486
vn -0.9303 0.3587 -0.0771
vn -0.5933 -0.5390 0.5979
vn 0.7354 0.3088 -0.6032
vn 0.8400 -0.5247 0.1379
vn 0.1780 -0.6613 -0.7287
vn -0.0078 -0.9981 0.0618
vn -0.6373 -0.6123 -0.4680
vn 0.3231 -0.5555 0.7662
vn 0.4266 0.6713 0.6061
vn 0.7280 0.6851 -0.0276
vn 0.1919 0.7615 -0.6191
vn -0.3816 0.6848 0.6208
vn -0.5894 0.7003 -0.4028
vn 0.3340 -0.8071 0.4869
vn 0.1979 -0.5470 -0.8134
vn -0.5666 -0.5363 0.6256
vn -0.7383 -0.5933 -0.3207
vn 0.8071 -0.5561 -0.1984
vn 0.6019 0.7743 0.1953
vn 0.5442 0.7089 -0.4487
vn -0.1453 0.7793 -0.6096
vn -0.2797 0.7684 0.5757
vn -0.5988 0.7600 0.2527
vn 0.3464 0.3587 0.8668
vn 0.7999 -0.5390 0.2639
vn -0.8681 0.3088 -0.3887
vn -0.2516 -0.5247 -0.8132
vn -0.7315 -0.6613 0.1661
vn 0.0587 -0.9981 -0.0206
vn -0.1342 -0.6123 0.7792
vn 0.5413 -0.5555 -0.6312
vn -0.0113 -0.9995 -0.0282
vn -0.0134 -0.9998 -0.0159
vn -0.7793 -0.4797 -0.4032
vn 0.0171 -0.9998 -0.0042
vn 0.0113 -0.9998 -0.0185
vn 0.0234 -0.9995 -0.0194
vn -0.0057 -0.9998 -0.0200
vn 0.0069 -0.9998 0.0196
vt 0.274163 0.347296
vt 0.354905 0.904346
vt 0.695188 0.876796
vt 0.362897 0.907640
vt 0.217909 0.956729
vt 0.281074 0.498358
vt 0.335928 0.498358
vt 0.644091 0.949010
vt 0.708965 0.402646
vt 0.386537 0.453497
vt 0.671205 0.475501
vt 0.418514 0.457041
vt 0.456185 0.082331
vt 0.354905 0.904346
vt 0.755227 0.835703
vt 0.362897 0.907640
vt 0.217909 0.956728
vt 0.281074 0.498358
vt 0.335928 0.498358
vt 0.644091 0.949010
vt 0.668027 0.913749
vt 0.707784 0.404254
vt 0.181490 0.482198
vt 0.386537 0.453497
vt 0.671205 0.475501
vt 0.418514 0.457041
vt 0.456185 0.082331
vt 0.265512 0.843763
vt 0.755227 0.836802
vt 0.362897 0.907640
vt 0.217909 0.956729
vt 0.281074 0.498358
vt 0.335928 0.498358
vt 0.644091 0.949010
vt 0.442668 0.963823
vt 0.667647 0.948009
vt 0.181490 0.482198
vt 0.386537 0.453497
vt 0.695643 0.445881
vt 0.671205 0.475501
vt 0.418514 0.457041
vt 0.274163 0.347296
vt 0.354905 0.904345
vt 0.695138 0.876796
vt 0.362897 0.907640
vt 0.217909 0.956729
vt 0.281074 0.498358
vt 0.335928 0.498358
vt 0.644091 0.949010
vt 0.708965 0.402646
vt 0.386537 0.453497
vt 0.671205 0.475501
vt 0.418514 0.457042
vt 0.456185 0.082331
vt 0.354905 0.904346
vt 0.690511 0.891696
vt 0.362896 0.907640
vt 0.217909 0.956729
vt 0.281074 0.498358
vt 0.335928 0.498358
vt 0.644091 0.949010
vt 0.721925 0.443332
vt 0.181490 0.482199
vt 0.386537 0.453497
vt 0.671205 0.475500
vt 0.418514 0.457041
vt 0.456185 0.082331
vt 0.265512 0.843765
vt 0.706609 0.904609
vt 0.362896 0.907640
vt 0.217909 0.956729
vt 0.281074 0.498358
vt 0.335928 0.498358
vt 0.644091 0.949010
vt 0.442667 0.963823
vt 0.695867 0.449297
vt 0.181490 0.482198
vt 0.386537 0.453497
vt 0.671205 0.475500
vt 0.418514 0.457041
vt 0.274164 0.347296
vt 0.354905 0.904346
vt 0.706274 0.898883
vt 0.362897 0.907639
vt 0.217909 0.956728
vt 0.281074 0.498358
vt 0.335928 0.498358
vt 0.644091 0.949010
vt 0.386537 0.453497
vt 0.695643 0.445881
vt 0.671205 0.475501
vt 0.418514 0.457041
vt 0.456185 0.082331
vt 0.354905 0.904346
vt 0.362897 0.907640
vt 0.217909 0.956729
vt 0.281074 0.498358
vt 0.335928 0.498358
vt 0.687809 0.911099
vt 0.667423 0.910324
vt 0.708965 0.402645
vt 0.181490 0.482198
vt 0.386536 0.453497
vt 0.671205 0.475500
vt 0.418514 0.457040
vt 0.456185 0.082331
vt 0.354906 0.904346
vt 0.706337 0.898881
vt 0.362897 0.907641
vt 0.217909 0.956729
vt 0.281074 0.498358
vt 0.335928 0.498358
vt 0.644091 0.949010
vt 0.181490 0.482198
vt 0.386537 0.453496
vt 0.695643 0.445881
vt 0.671205 0.475500
vt 0.418515 0.457042
vt 0.265512 0.843763
vt 0.707252 0.900889
vt 0.427555 0.082331
vt 0.362897 0.907640
vt 0.217909 0.956728
vt 0.281074 0.498358
vt 0.335928 0.498358
vt 0.644091 0.949010
vt 0.442667 0.963823
vt 0.181490 0.482199
vt 0.386536 0.453498
vt 0.686777 0.454673
vt 0.671205 0.475501
vt 0.418514 0.457040
vt 0.456185 0.082331
vt 0.265512 0.843763
vt 0.755227 0.836804
vt 0.362896 0.907640
vt 0.217909 0.956728
vt 0.281074 0.498358
vt 0.335928 0.498358
vt 0.644091 0.949010
vt 0.442667 0.963823
vt 0.667535 0.948010
vt 0.181490 0.482199
vt 0.386537 0.453498
vt 0.695643 0.445881
vt 0.671205 0.475501
vt 0.418514 0.457042
vt 0.274163 0.347297
vt 0.354905 0.904346
vt 0.706609 0.904608
vt 0.362896 0.907640
vt 0.217909 0.956729
vt 0.281074 0.498358
vt 0.335928 0.498358
vt 0.644091 0.949010
vt 0.695867 0.449296
vt 0.386537 0.453498
vt 0.671205 0.475501
vt 0.418514 0.457041
vt 0.265512 0.843763
vt 0.755227 0.836802
vt 0.427554 0.082331
vt 0.362897 0.907639
vt 0.217909 0.956728
vt 0.281074 0.498358
vt 0.335928 0.498358
vt 0.644091 0.949009
vt 0.442667 0.963823
vt 0.667647 0.948009
vt 0.181490 0.482198
vt 0.386536 0.453497
vt 0.687073 0.449007
vt 0.671205 0.475502
vt 0.418514 0.457042
vt 0.272405 0.347298
vt 0.354905 0.904346
vt 0.706468 0.901210
vt 0.362896 0.907640
vt 0.217909 0.956729
vt 0.281074 0.498358
vt 0.335928 0.498358
vt 0.644091 0.949011
vt 0.386536 0.453497
vt 0.696357 0.450534
vt 0.671205 0.475501
vt 0.418515 0.457042
vt 0.265512 0.843763
vt 0.755227 0.836803
vt 0.427555 0.082331
vt 0.362896 0.907640
vt 0.217909 0.956729
vt 0.281074 0.498358
vt 0.335928 0.498358
vt 0.644091 0.949010
vt 0.442667 0.963823
vt 0.667535 0.948009
vt 0.181490 0.482199
vt 0.386537 0.453497
vt 0.687073 0.449007
vt 0.671205 0.475501
vt 0.418514 0.457041
s 1
f 5/5/1 4/4/2 6/6/3
f 2/2/4 5/5/1 6/7/3
f 3/3/5 2/2/4 6/8/3
f 4/4/2 5/5/1 1/1/6
f 3/3/5 6/8/3 9/11/7
f 2/2/4 3/3/5 8/10/8
f 5/5/1 2/2/4 1/1/6
f 1/1/6 2/2/4 8/10/8
f 8/10/8 3/3/5 7/9/9
f 3/3/5 9/11/7 7/9/9
f 4/4/2 1/1/6 10/12/10
f 15/17/11 14/16/12 16/18/13
f 12/14/14 15/17/11 16/19/13
f 17/21/15 12/14/14 16/20/13
f 14/16/12 15/17/11 19/23/16
f 13/15/17 16/20/13 21/25/18
f 12/14/14 17/21/15 20/24/19
f 15/17/11 12/14/14 19/23/16
f 19/23/16 12/14/14 20/24/19
f 20/24/19 17/21/15 18/22/20
f 13/15/17 21/25/18 18/22/20
f 14/16/12 19/23/16 22/26/21
f 27/31/22 26/30/23 28/32/24
f 29/35/25 27/31/22 28/33/24
f 30/36/26 29/35/25 28/34/24
f 24/28/27 27/31/22 29/35/25
f 26/30/23 27/31/22 31/37/28
f 25/29/29 28/34/24 34/40/30
f 30/36/26 25/29/29 33/39/31
f 27/31/22 24/28/27 31/37/28
f 31/37/28 24/28/27 32/38/32
f 25/29/29 34/40/30 33/39/31
f 26/30/23 31/37/28 35/41/33
f 40/46/34 39/45/35 41/47/36
f 37/43/37 40/46/34 41/48/36
f 38/44/38 37/43/37 41/49/36
f 39/45/35 40/46/34 36/42/39
f 38/44/38 41/49/36 44/52/40
f 37/43/37 38/44/38 43/51/41
f 40/46/34 37/43/37 36/42/39
f 36/42/39 37/43/37 43/51/41
f 43/51/41 38/44/38 42/50/42
f 38/44/38 44/52/40 42/50/42
f 39/45/35 36/42/39 45/53/43
f 50/58/44 49/57/45 51/59/46
f 47/55/47 50/58/44 51/60/46
f 48/56/48 47/55/47 51/61/46
f 49/57/45 50/58/44 53/63/49
f 47/55/47 48/56/48 54/64/50
f 50/58/44 47/55/47 53/63/49
f 53/63/49 47/55/47 54/64/50
f 54/64/50 48/56/48 52/62/51
f 49/57/45 53/63/49 56/66/52
f 61/71/53 60/70/54 62/72/55
f 63/75/56 61/71/53 62/73/55
f 59/69/57 63/75/56 62/74/55
f 58/68/58 61/71/53 63/75/56
f 60/70/54 61/71/53 65/77/59
f 59/69/57 62/74/55 67/79/60
f 61/71/53 58/68/58 65/77/59
f 65/77/59 58/68/58 66/78/61
f 59/69/57 67/79/60 64/76/62
f 60/70/54 65/77/59 68/80/63
f 73/85/64 72/84/65 74/86/66
f 70/82/67 73/85/64 74/87/66
f 71/83/68 70/82/67 74/88/66
f 72/84/65 73/85/64 69/81/69
f 71/83/68 74/88/66 77/91/70
f 73/85/64 70/82/67 69/81/69
f 69/81/69 70/82/67 75/89/71
f 71/83/68 77/91/70 76/90/72
f 72/84/65 69/81/69 78/92/73
f 82/96/74 81/95/75 83/97/76
f 80/94/77 82/96/74 83/98/76
f 84/100/78 80/94/77 83/99/76
f 81/95/75 82/96/74 86/102/49
f 80/94/77 84/100/78 87/103/79
f 82/96/74 80/94/77 86/102/49
f 86/102/49 80/94/77 87/103/79
f 87/103/79 84/100/78 85/101/80
f 83/99/76 88/104/81 85/101/80
f 81/95/75 86/102/49 89/105/82
f 94/110/83 93/109/84 95/111/85
f 91/107/86 94/110/83 95/112/85
f 92/108/87 91/107/86 95/113/85
f 93/109/84 94/110/83 96/114/88
f 92/108/87 95/113/85 99/117/89
f 94/110/83 91/107/86 96/114/88
f 96/114/88 91/107/86 97/115/90
f 92/108/87 99/117/89 98/116/91
f 93/109/84 96/114/88 100/118/92
f 105/123/93 104/122/94 106/124/95
f 107/127/96 105/123/93 106/125/95
f 102/120/97 107/127/96 106/126/95
f 101/119/98 105/123/93 107/127/96
f 104/122/94 105/123/93 108/128/99
f 102/120/97 106/126/95 111/131/100
f 105/123/93 101/119/98 108/128/99
f 103/121/101 109/129/102 110/130/103
f 108/128/99 101/119/98 109/129/102
f 102/120/97 111/131/100 110/130/103
f 104/122/94 108/128/99 112/132/104
f 117/137/105 116/136/106 118/138/107
f 119/141/108 117/137/105 118/139/107
f 120/142/109 119/141/108 118/140/107
f 114/134/110 117/137/105 119/141/108
f 116/136/106 117/137/105 121/143/111
f 115/135/112 118/140/107 124/146/113
f 120/142/109 115/135/112 123/145/114
f 117/137/105 114/134/110 121/143/111
f 121/143/111 114/134/110 122/144/115
f 115/135/112 124/146/113 123/145/114
f 116/136/106 121/143/111 125/147/116
f 130/152/117 129/151/118 131/153/119
f 127/149/120 130/152/117 131/154/119
f 128/150/121 127/149/120 131/155/119
f 129/151/118 130/152/117 126/148/122
f 128/150/121 131/155/119 134/158/123
f 130/152/117 127/149/120 126/148/122
f 126/148/122 127/149/120 133/157/124
f 128/150/121 134/158/123 132/156/125
f 129/151/118 126/148/122 135/159/126
f 140/164/127 139/163/128 141/165/129
f 142/168/130 140/164/127 141/166/129
f 143/169/131 142/168/130 141/167/129
f 136/160/132 140/164/127 142/168/130
f 139/163/128 140/164/127 144/170/133
f 137/161/134 141/167/129 147/173/135
f 143/169/131 137/161/134 146/172/136
f 140/164/127 136/160/132 144/170/133
f 138/162/137 145/171/138 146/172/136
f 144/170/133 136/160/132 145/171/138
f 137/161/134 147/173/135 146/172/136
f 139/163/128 144/170/133 148/174/139
f 153/179/140 152/178/141 154/180/142
f 150/176/143 153/179/140 154/181/142
f 151/177/144 150/176/143 154/182/142
f 152/178/141 153/179/140 149/175/145
f 151/177/144 154/182/142 157/185/146
f 153/179/140 150/176/143 149/175/145
f 149/175/145 150/176/143 155/183/147
f 151/177/144 157/185/146 156/184/148
f 152/178/141 149/175/145 158/186/149
f 163/191/150 162/190/151 164/192/152
f 165/195/153 163/191/150 164/193/152
f 166/196/154 165/195/153 164/194/152
f 159/187/155 163/191/150 165/195/153
f 162/190/151 163/191/150 167/197/156
f 160/188/157 164/194/152 170/200/158
f 166/196/154 160/188/157 169/199/159
f 163/191/150 159/187/155 167/197/156
f 161/189/160 168/198/161 169/199/159
f 167/197/156 159/187/155 168/198/161
f 160/188/157 170/200/158 169/199/159
f 162/190/151 167/197/156 171/201/162
f 22/26/21 21/25/18 16/20/13 14/16/12
f 1/1/6 8/10/8 7/9/9
f 7/9/9 9/11/7 1/1/6
f 1/1/6 9/11/7 10/12/10
f 13/15/17 17/21/15 16/20/13
f 35/41/33 34/40/30 28/34/24 26/30/23
f 11/13/163 19/23/16 20/24/19
f 11/13/163 20/24/19 18/22/20
f 18/22/20 21/25/18 11/13/163
f 11/13/163 21/25/18 22/26/21
f 22/26/21 19/23/16 11/13/163
f 18/22/20 17/21/15 13/15/17
f 25/29/29 30/36/26 28/34/24
f 33/39/31 32/38/32 29/35/25 30/36/26
f 45/53/43 44/52/40 41/49/36 39/45/35
f 24/28/27 29/35/25 32/38/32
f 23/27/164 31/37/28 32/38/32
f 23/27/164 32/38/32 33/39/31
f 33/39/31 34/40/30 23/27/164
f 23/27/164 34/40/30 35/41/33
f 35/41/33 31/37/28 23/27/164
f 56/66/52 55/65/165 51/61/46 49/57/45
f 36/42/39 43/51/41 42/50/42
f 42/50/42 44/52/40 36/42/39
f 36/42/39 44/52/40 45/53/43
f 51/61/46 55/65/165 52/62/51 48/56/48
f 68/80/63 67/79/60 62/74/55 60/70/54
f 46/54/166 53/63/49 54/64/50
f 46/54/166 54/64/50 52/62/51
f 52/62/51 55/65/165 46/54/166
f 46/54/166 55/65/165 56/66/52
f 56/66/52 53/63/49 46/54/166
f 64/76/62 66/78/61 63/75/56 59/69/57
f 78/92/73 77/91/70 74/88/66 72/84/65
f 58/68/58 63/75/56 66/78/61
f 57/67/167 65/77/59 66/78/61
f 57/67/167 66/78/61 64/76/62
f 64/76/62 67/79/60 57/67/167
f 57/67/167 67/79/60 68/80/63
f 68/80/63 65/77/59 57/67/167
f 76/90/72 75/89/71 70/82/67 71/83/68
f 89/105/82 88/104/81 83/99/76 81/95/75
f 69/81/69 75/89/71 76/90/72
f 76/90/72 77/91/70 69/81/69
f 69/81/69 77/91/70 78/92/73
f 100/118/92 99/117/89 95/113/85 93/109/84
f 79/93/168 86/102/49 87/103/79
f 79/93/168 87/103/79 85/101/80
f 85/101/80 88/104/81 79/93/168
f 79/93/168 88/104/81 89/105/82
f 89/105/82 86/102/49 79/93/168
f 84/100/78 83/99/76 85/101/80
f 98/116/91 97/115/90 91/107/86 92/108/87
f 112/132/104 111/131/100 106/126/95 104/122/94
f 90/106/169 96/114/88 97/115/90
f 90/106/169 97/115/90 98/116/91
f 98/116/91 99/117/89 90/106/169
f 90/106/169 99/117/89 100/118/92
f 100/118/92 96/114/88 90/106/169
f 10/12/10 9/11/7 6/8/3 4/4/2
f 110/130/103 109/129/102 107/127/96 102/120/97
f 125/147/116 124/146/113 118/140/107 116/136/106
f 101/119/98 107/127/96 109/129/102
f 103/121/101 108/128/99 109/129/102
f 110/130/103 111/131/100 103/121/101
f 103/121/101 111/131/100 112/132/104
f 112/132/104 108/128/99 103/121/101
f 115/135/112 120/142/109 118/140/107
f 123/145/114 122/144/115 119/141/108 120/142/109
f 135/159/126 134/158/123 131/155/119 129/151/118
f 114/134/110 119/141/108 122/144/115
f 113/133/170 121/143/111 122/144/115
f 113/133/170 122/144/115 123/145/114
f 123/145/114 124/146/113 113/133/170
f 113/133/170 124/146/113 125/147/116
f 125/147/116 121/143/111 113/133/170
f 132/156/125 133/157/124 127/149/120 128/150/121
f 148/174/139 147/173/135 141/167/129 139/163/128
f 126/148/122 133/157/124 132/156/125
f 132/156/125 134/158/123 126/148/122
f 126/148/122 134/158/123 135/159/126
f 137/161/134 143/169/131 141/167/129
f 146/172/136 145/171/138 142/168/130 143/169/131
f 158/186/149 157/185/146 154/182/142 152/178/141
f 136/160/132 142/168/130 145/171/138
f 138/162/137 144/170/133 145/171/138
f 146/172/136 147/173/135 138/162/137
f 138/162/137 147/173/135 148/174/139
f 148/174/139 144/170/133 138/162/137
f 156/184/148 155/183/147 150/176/143 151/177/144
f 171/201/162 170/200/158 164/194/152 162/190/151
f 149/175/145 155/183/147 156/184/148
f 156/184/148 157/185/146 149/175/145
f 149/175/145 157/185/146 158/186/149
f 160/188/157 166/196/154 164/194/152
f 169/199/159 168/198/161 165/195/153 166/196/154
f 159/187/155 165/195/153 168/198/161
f 161/189/160 167/197/156 168/198/161
f 169/199/159 170/200/158 161/189/160
f 161/189/160 170/200/158 171/201/162
f 171/201/162 167/197/156 161/189/160
