# Blender 3.3.1
# www.blender.org
o Cylinder.009
v 0.278331 1.240364 -0.042224
v 0.299509 1.008566 -0.029482
v 0.232034 1.080536 -0.206747
v 0.065301 1.136475 -0.119598
v 0.124887 1.068781 0.053057
v 0.223844 1.020792 0.050041
v 0.304862 1.034480 -0.136900
v 0.138498 1.126718 -0.195688
v 0.060562 1.110691 -0.018138
v 0.091596 0.976574 -0.104502
v 0.142514 0.945696 -0.051002
v 0.082359 0.769109 -0.138644
v 0.050742 0.783663 -0.096843
v 0.019661 0.615628 -0.078599
v 0.016653 0.625194 -0.126688
v 0.066791 0.620938 -0.106191
v -0.089012 0.312039 -0.069355
v -0.040946 0.270910 -0.063919
v -0.006022 0.440453 -0.112510
v -0.044231 0.458177 -0.079790
v -0.131188 0.098771 -0.120867
v -0.212914 -0.051198 -0.141838
v -0.269430 -0.030062 -0.115254
v 0.159665 0.826648 -0.042522
v 0.162723 0.852812 -0.183450
v 0.027155 0.901652 -0.178505
v 0.023813 0.874963 -0.035219
v 0.063155 0.887451 -0.108507
v 0.129851 0.909291 -0.111064
v 0.097148 0.869487 -0.078831
v 0.041576 0.794254 -0.141267
v 0.098437 0.882665 -0.140239
v -0.059952 0.621208 -0.102301
v 0.022563 0.439645 -0.070712
v 0.001825 0.497293 -0.012216
v 0.130675 0.568379 -0.098507
v 0.031476 0.579149 -0.195003
v 0.039321 0.614424 0.003221
v -0.078571 0.285990 -0.041287
v -0.132841 0.311661 -0.137005
v -0.076955 0.290218 -0.104078
v -0.022546 0.249781 -0.137842
v -0.174989 0.125352 -0.114319
v -0.158426 0.091630 -0.076387
v -0.136022 0.296039 -0.010965
v -0.019227 0.243039 -0.012792
v -0.603260 1.617723 -0.116303
v -0.640514 1.590111 -0.108964
v -0.689204 1.338149 -0.097283
v -0.519670 1.415372 0.068992
v -0.360075 1.446386 -0.109708
v -0.517820 1.372806 -0.274593
v -0.637241 1.335353 -0.222874
v -0.642029 1.373144 0.025569
v -0.410336 1.451583 0.010625
v -0.405236 1.411814 -0.225477
v -0.426380 1.257611 -0.099837
v -0.496016 1.250744 -0.047385
v -0.513785 1.229584 -0.135667
v -0.434431 1.020811 -0.030783
v -0.464290 1.008538 -0.073083
v -0.419592 1.014939 -0.107810
v -0.423986 0.804236 -0.126025
v -0.397137 0.816305 -0.073209
v -0.463831 0.821154 -0.074183
v -0.361985 0.413380 -0.155016
v -0.425646 0.389525 -0.150709
v -0.412311 0.587191 -0.081438
v -0.380569 0.599957 -0.137467
v -0.281176 0.166637 -0.113728
v -0.311671 0.152115 -0.167133
v -0.256851 -0.051645 -0.091090
v -0.201017 -0.038428 -0.148488
v -0.559165 1.088595 -0.126228
v -0.494251 1.124176 0.033965
v -0.334162 1.154966 -0.036174
v -0.399917 1.118634 -0.199140
v -0.409033 1.143672 -0.099095
v -0.479065 1.137945 -0.067288
v -0.464169 1.128313 -0.116357
v -0.387245 1.026880 -0.062004
v -0.435504 1.145963 -0.046747
v -0.322288 0.794907 -0.134493
v -0.463601 0.591233 -0.116635
v -0.455780 0.655481 -0.198377
v -0.549285 0.770586 -0.049722
v -0.391687 0.765117 0.016042
v -0.483295 0.805021 -0.210950
v -0.281935 0.405051 -0.096702
v -0.363927 0.389973 -0.107704
v -0.417275 0.353192 -0.040980
v -0.364464 0.205268 -0.057524
v -0.355296 0.142053 -0.134606
v -0.338486 0.369058 -0.234387
v -0.479089 0.342738 -0.182221
v -0.141566 0.946722 -0.475162
v -0.092144 0.768285 -0.471556
v -0.268627 0.824425 -0.455187
v -0.248587 0.867458 -0.345465
v -0.099569 0.828796 -0.325391
v -0.210858 0.791297 -0.506598
v -0.226576 0.584673 -0.345188
v -0.197156 0.594931 -0.318144
v -0.185099 0.466786 -0.297549
v -0.221653 0.473964 -0.298283
v -0.202783 0.471967 -0.334865
v -0.185652 0.234266 -0.222964
v -0.149773 0.181527 -0.262574
v -0.212066 0.333362 -0.284717
v -0.189957 0.345861 -0.253230
v -0.225931 0.071260 -0.199247
v -0.238551 -0.036750 -0.118893
v -0.148879 0.630187 -0.395681
v -0.255198 0.650095 -0.406843
v -0.260693 0.683797 -0.302953
v -0.152612 0.663483 -0.291431
v -0.205358 0.673914 -0.325768
v -0.202848 0.692105 -0.375768
v -0.179874 0.684203 -0.357982
v -0.231357 0.602735 -0.313956
v -0.215587 0.695637 -0.354163
v -0.208377 0.469065 -0.238895
v -0.171069 0.327636 -0.286759
v -0.192564 0.433689 -0.383868
v -0.272165 0.439423 -0.315201
v -0.121960 0.466356 -0.306913
v -0.227272 0.218929 -0.202200
v -0.232084 0.188501 -0.278509
v -0.211131 0.076394 -0.161123
v -0.188930 0.069489 -0.192776
v -0.152885 0.210565 -0.193726
vn -0.1196 -0.8075 0.5777
vn 0.2925 -0.3566 0.8873
vn -0.4220 -0.0097 0.9065
vn -0.9210 -0.2608 -0.2893
vn -0.8292 0.4570 -0.3218
vn -0.3585 0.3625 -0.8603
vn 0.8579 -0.3234 -0.3993
vn 0.4603 0.8680 0.1862
vn 0.8021 -0.4731 0.3644
vn -0.8634 0.2726 0.4244
vn -0.3470 -0.1397 0.9274
vn 0.9949 0.0989 -0.0198
vn 0.7831 -0.3947 -0.4807
vn -0.7522 0.0013 -0.6590
vn -0.4758 0.5105 -0.7163
vn -0.4633 0.6813 0.5667
vn 0.7919 -0.5698 0.2194
vn 0.1819 0.2708 0.9453
vn 0.9964 0.0409 0.0737
vn -0.9778 0.0880 0.1900
vn 0.2754 0.3565 -0.8928
vn -0.8008 0.5735 0.1728
vn -0.0242 -0.1452 -0.9891
vn 0.0988 0.4967 0.8623
vn 0.1455 -0.0047 -0.9893
vn 0.6469 -0.5009 -0.5750
vn 0.7394 0.0784 -0.6687
vn -0.0694 -0.2419 0.9678
vn -0.7000 0.3134 -0.6417
vn 0.3097 -0.7050 -0.6380
vn 0.5409 -0.6058 -0.5834
vn -0.0747 0.4712 -0.8789
vn 0.7330 -0.0700 -0.6766
vn -0.7765 0.6119 0.1505
vn -0.6012 0.5349 -0.5937
vn 0.8124 -0.2481 -0.5277
vn -0.0359 0.1454 0.9887
vn 0.6307 -0.3060 0.7131
vn -0.5969 0.2963 0.7456
vn -0.8594 0.5085 -0.0525
vn 0.9603 -0.1953 0.1994
vn -0.4615 0.6258 -0.6288
vn 0.7685 -0.0718 0.6358
vn -0.4873 0.2947 0.8220
vn -0.2961 -0.8050 -0.5140
vn -0.6369 -0.3233 -0.6999
vn 0.0524 -0.1002 -0.9936
vn 0.9400 -0.3379 -0.0480
vn 0.9527 0.3023 -0.0314
vn 0.6857 0.2822 0.6709
vn -0.6323 -0.2005 0.7483
vn -0.8049 0.5935 -0.0042
vn -0.9185 -0.3933 0.0419
vn -0.2170 0.9699 -0.1104
vn 0.6803 0.1037 -0.7255
vn 0.2013 -0.1528 -0.9675
vn -0.9024 0.2346 0.3615
vn -0.9463 -0.2294 -0.2277
vn -0.2380 -0.1885 0.9528
vn 0.9661 -0.0834 0.2444
vn 0.7861 0.4201 0.4534
vn 0.3210 0.5822 -0.7470
vn 0.8326 -0.1204 -0.5407
vn 0.0878 0.4781 0.8739
vn 0.5453 0.5560 -0.6273
vn -0.9558 0.1081 -0.2736
vn -0.8587 -0.4978 0.1215
vn 0.3558 -0.1559 0.9215
vn -0.3312 0.4902 -0.8062
vn 0.2279 0.0384 0.9729
vn 0.8436 0.0836 0.5305
vn 0.7176 -0.5509 -0.4260
vn 0.3404 -0.0174 -0.9401
vn -0.0291 -0.9062 0.4218
vn 0.3207 0.4693 0.8228
vn -0.3458 0.2105 0.9144
vn 0.7505 0.4683 -0.4663
vn 0.8630 0.4332 0.2599
vn -0.9137 0.1194 0.3885
vn -0.0987 -0.5386 0.8367
vn -0.4283 0.1626 -0.8889
vn -0.9136 -0.0661 -0.4012
vn 0.3200 0.1768 -0.9308
vn 0.8853 0.3561 -0.2990
vn -0.9843 -0.0330 0.1736
vn 0.7549 0.5535 0.3519
vn -0.4389 0.2521 0.8624
vn -0.9295 -0.2799 -0.2401
vn -0.7415 -0.6593 -0.1241
vn 0.9548 0.0315 0.2956
vn 0.7591 -0.3932 -0.5188
vn 0.6546 0.1655 0.7376
vn -0.2998 -0.2926 -0.9080
vn 0.2440 0.8836 -0.3997
vn -0.7142 0.3934 0.5789
vn -0.6524 0.4509 0.6091
vn 0.9065 -0.1201 0.4049
vn 0.0715 0.1068 -0.9917
vn -0.3785 -0.2994 -0.8758
vn -0.7526 0.0327 0.6576
vn -0.7571 0.4948 0.4265
vn 0.5566 0.6269 0.5452
vn 0.8080 -0.0098 -0.5892
vn 0.5604 0.2588 0.7868
vn 0.7004 -0.1791 -0.6909
vn 0.1750 0.3620 0.9156
vn -0.6416 0.4723 0.6044
vn -0.1280 0.2924 0.9477
vn -0.9738 -0.1268 -0.1885
vn 0.9170 0.3987 0.0130
vn -0.9725 -0.0000 -0.2328
vn 0.7791 -0.5802 -0.2375
vn -0.2273 -0.8379 0.4962
vn -0.7478 -0.4369 -0.4998
vn -0.5234 0.2603 -0.8114
vn -0.0948 0.1522 0.9838
vn -0.6400 -0.1203 -0.7589
vn 0.1245 0.6190 0.7754
vn -0.7040 0.4084 0.5810
vn -0.4050 -0.2381 -0.8828
vn 0.7650 -0.3771 -0.5222
vn 0.6899 0.1760 0.7022
vn -0.1300 0.4805 0.8673
vn 0.3459 -0.2274 -0.9103
vn 0.2819 0.0306 -0.9589
vn -0.0783 -0.1802 0.9805
vn 0.0876 0.0610 0.9943
vn -0.2729 -0.3437 0.8986
vn -0.3143 -0.2090 -0.9260
vn 0.2545 0.1980 -0.9466
vn -0.9237 0.0674 -0.3771
vt 0.562636 0.700907
vt 0.562856 0.699100
vt 0.546286 0.701171
vt 0.562856 0.703241
vt 0.579426 0.701171
vt 0.574572 0.699706
vt 0.551139 0.699706
vt 0.551139 0.702635
vt 0.574572 0.702635
vt 0.563531 0.702819
vt 0.572276 0.700047
vt 0.060810 0.333782
vt 0.529991 0.609319
vt 0.021993 0.267119
vt 0.081909 0.349402
vt 0.548079 0.609851
vt 0.000094 0.268923
vt 0.098004 0.346881
vt 0.548622 0.501014
vt 0.939063 0.237581
vt 0.883273 0.379873
vt 0.925975 0.275380
vt 0.533850 0.497746
vt 0.898896 0.235317
vt 0.957522 0.254064
vt 0.535148 0.506311
vt 0.948735 0.233932
vt 0.920653 0.272747
vt 0.543111 0.269141
vt 0.959093 0.053761
vt 0.936934 0.017563
vt 0.534067 0.268455
vt 0.939934 0.058717
vt 0.809369 0.255083
vt 0.527999 0.388801
vt 0.135027 0.385207
vt 0.041665 0.244299
vt 0.063694 0.245217
vt 0.541048 0.385041
vt 0.102866 0.311312
vt 0.032116 0.269313
vt 0.090428 0.018077
vt 0.529763 0.132505
vt 0.101209 0.115790
vt 0.059878 0.031318
vt 0.531572 0.007242
vt 0.542425 0.007242
vt 0.468228 0.804652
vt 0.537334 0.807226
vt 0.605253 0.805541
vt 0.594651 0.804963
vt 0.555463 0.655330
vt 0.906099 0.356606
vt 0.902632 0.391773
vt 0.546219 0.672600
vt 0.974892 0.280729
vt 0.999906 0.223309
vt 0.562627 0.655111
vt 0.947493 0.346641
vt 0.966690 0.223497
vt 0.541979 0.607696
vt 0.107306 0.350006
vt 0.000094 0.268730
vt 0.538472 0.655239
vt 0.975926 0.282944
vt 0.961839 0.296098
vt 0.533911 0.864411
vt 0.542162 0.391061
vt 0.125412 0.391743
vt 0.033342 0.250851
vt 0.379796 0.867271
vt 0.526789 0.865406
vt 0.524767 0.865503
vt 0.509432 0.863408
vt 0.548380 0.268667
vt 0.950361 0.057125
vt 0.823718 0.242938
vt 0.453293 0.688085
vt 0.528198 0.268942
vt 0.936293 0.019629
vt 0.823352 0.237825
vt 0.482408 0.692219
vt 0.541849 0.132872
vt 0.082418 0.036863
vt 0.101740 0.140025
vt 0.111499 0.130658
vt 0.547909 0.132341
vt 0.087344 0.049608
vt 0.475703 0.693801
vt 0.472799 0.691738
vt 0.562737 0.701913
vt 0.559647 0.699681
vt 0.562856 0.699100
vt 0.546286 0.701171
vt 0.562856 0.703241
vt 0.579426 0.701171
vt 0.574572 0.699706
vt 0.551139 0.699706
vt 0.551139 0.702635
vt 0.574572 0.702635
vt 0.563531 0.702819
vt 0.548522 0.700496
vt 0.572276 0.700047
vt 0.527963 0.608680
vt 0.021993 0.267119
vt 0.087014 0.362772
vt 0.534186 0.610642
vt 0.006591 0.273798
vt 0.081909 0.349401
vt 0.548079 0.609851
vt 0.000094 0.268923
vt 0.098004 0.346881
vt 0.548622 0.501014
vt 0.939063 0.237581
vt 0.883273 0.379873
vt 0.925975 0.275380
vt 0.533850 0.497746
vt 0.898896 0.235317
vt 0.957522 0.254064
vt 0.535148 0.506311
vt 0.948735 0.233932
vt 0.920653 0.272747
vt 0.543141 0.269140
vt 0.959093 0.053761
vt 0.936934 0.017563
vt 0.539672 0.268537
vt 0.939934 0.058717
vt 0.871205 0.166200
vt 0.959093 0.015033
vt 0.527999 0.388801
vt 0.135027 0.385207
vt 0.041665 0.244299
vt 0.063694 0.245217
vt 0.541048 0.385041
vt 0.102866 0.311312
vt 0.032116 0.269313
vt 0.532071 0.132720
vt 0.080988 0.019629
vt 0.082418 0.036863
vt 0.085278 0.105743
vt 0.547909 0.132341
vt 0.082258 0.031568
vt 0.113511 0.138563
vt 0.531572 0.007242
vt 0.542425 0.007242
vt 0.468228 0.804652
vt 0.537335 0.807226
vt 0.605253 0.805541
vt 0.594651 0.804963
vt 0.555463 0.655330
vt 0.906100 0.356605
vt 0.902631 0.391774
vt 0.544767 0.655024
vt 0.974892 0.280729
vt 0.999906 0.223309
vt 0.562627 0.655111
vt 0.947493 0.346642
vt 0.966690 0.223497
vt 0.541979 0.607696
vt 0.107306 0.350006
vt 0.000094 0.268730
vt 0.538472 0.655239
vt 0.975926 0.282944
vt 0.961839 0.296098
vt 0.533911 0.864411
vt 0.542162 0.391061
vt 0.125412 0.391742
vt 0.033342 0.250851
vt 0.379796 0.867271
vt 0.526790 0.865406
vt 0.524767 0.865503
vt 0.509432 0.863408
vt 0.453293 0.688085
vt 0.527989 0.268924
vt 0.936293 0.019629
vt 0.820361 0.242450
vt 0.482500 0.692202
vt 0.262334 0.687633
vt 0.064008 0.033127
vt 0.534050 0.132169
vt 0.124192 0.139590
vt 0.498937 0.692786
vt 0.472799 0.691738
vt 0.562636 0.700907
vt 0.568848 0.699410
vt 0.546286 0.701171
vt 0.557053 0.702941
vt 0.577067 0.701883
vt 0.551139 0.699706
vt 0.060810 0.333782
vt 0.529991 0.609319
vt 0.021993 0.267119
vt 0.081909 0.349402
vt 0.548079 0.609851
vt 0.000094 0.268923
vt 0.098004 0.346882
vt 0.548622 0.501014
vt 0.939063 0.237581
vt 0.883273 0.379873
vt 0.925975 0.275380
vt 0.533850 0.497746
vt 0.898896 0.235317
vt 0.957522 0.254064
vt 0.535148 0.506311
vt 0.920653 0.272747
vt 0.948735 0.233932
vt 0.542648 0.269148
vt 0.959093 0.053761
vt 0.936934 0.017563
vt 0.534548 0.268448
vt 0.939934 0.058717
vt 0.564731 0.572475
vt 0.527999 0.388801
vt 0.135027 0.385207
vt 0.041665 0.244299
vt 0.063694 0.245217
vt 0.541048 0.385041
vt 0.032116 0.269313
vt 0.102866 0.311312
vt 0.090428 0.018077
vt 0.532202 0.132295
vt 0.092669 0.109870
vt 0.059878 0.031318
vt 0.537263 0.007242
vt 0.468228 0.804652
vt 0.537335 0.807226
vt 0.605253 0.805541
vt 0.594651 0.804963
vt 0.555463 0.655330
vt 0.906099 0.356606
vt 0.902631 0.391773
vt 0.546218 0.672600
vt 0.974892 0.280729
vt 0.999906 0.223309
vt 0.565779 0.669790
vt 0.947493 0.346641
vt 0.966690 0.223497
vt 0.541979 0.607696
vt 0.107306 0.350006
vt 0.000094 0.268730
vt 0.547247 0.671899
vt 0.975926 0.282944
vt 0.961839 0.296099
vt 0.533911 0.864411
vt 0.542162 0.391061
vt 0.125412 0.391743
vt 0.068629 0.313635
vt 0.526790 0.865406
vt 0.524767 0.865503
vt 0.509432 0.863408
vt 0.528187 0.268941
vt 0.936293 0.019629
vt 0.574057 0.542342
vt 0.482446 0.692216
vt 0.092218 0.069974
vt 0.542308 0.132866
vt 0.098761 0.128512
vt 0.547909 0.132341
vt 0.079529 0.023039
vt 0.114550 0.140628
vt 0.575752 0.564185
vt 0.950361 0.057125
vt 0.548380 0.268667
s 1
f 11/11/1 6/6/2 5/5/3
f 10/10/4 4/4/5 8/8/6
f 7/7/7 1/1/8 2/2/9
f 5/5/3 1/1/8 9/9/10
f 2/2/9 1/1/8 6/6/2
f 10/10/4 9/9/10 4/4/5
f 6/6/2 1/1/8 5/5/3
f 13/16/11 16/26/12 12/13/13
f 31/61/14 15/23/15 14/19/16
f 34/68/17 39/75/18 18/32/19
f 20/39/20 41/79/21 17/29/22
f 20/39/20 17/29/22 39/75/18
f 34/68/17 18/32/19 19/35/23
f 19/35/23 41/79/21 20/39/20
f 14/21/16 38/74/24 16/27/12
f 19/36/23 37/73/25 16/28/12
f 21/44/26 42/82/27 18/33/19
f 21/42/26 18/34/19 44/86/28
f 43/83/29 23/47/30 44/87/28
f 21/43/26 22/46/31 23/47/30
f 32/66/32 25/49/33 12/12/13
f 28/53/34 26/50/35 31/62/14
f 29/55/36 32/64/32 10/10/4
f 11/11/1 30/58/37 29/55/36
f 41/79/21 19/35/23 18/32/19
f 29/56/36 12/12/13 25/49/33
f 29/57/36 30/59/37 24/48/38
f 30/60/37 28/54/34 27/51/39
f 15/22/15 33/67/40 14/20/16
f 20/40/20 33/67/40 15/22/15
f 16/25/12 34/69/17 36/72/41
f 17/31/22 41/81/21 40/78/42
f 18/33/19 42/82/27 41/80/21
f 44/86/28 46/90/43 39/76/18
f 39/77/18 45/89/44 44/88/28
f 18/34/19 46/90/43 44/86/28
f 59/103/45 53/97/46 52/96/47
f 57/101/48 51/95/49 55/99/50
f 54/98/51 48/92/52 49/93/53
f 52/96/47 47/91/54 56/100/55
f 49/93/53 48/92/52 53/97/46
f 57/101/48 56/100/55 51/95/49
f 62/110/56 65/120/57 61/107/58
f 61/107/58 65/120/57 60/104/59
f 81/159/60 64/117/61 63/113/62
f 69/134/63 90/174/64 66/123/65
f 69/134/63 66/123/65 67/126/66
f 84/166/67 67/126/66 68/130/68
f 68/130/68 90/174/64 69/134/63
f 63/115/62 88/172/69 65/121/57
f 68/131/68 87/171/70 65/122/57
f 70/137/71 73/145/72 71/141/73
f 70/137/71 72/144/74 73/145/72
f 82/164/75 75/147/76 60/106/59
f 78/151/77 76/148/78 81/160/60
f 59/103/45 79/153/79 58/102/80
f 58/102/80 82/162/75 57/101/48
f 59/103/45 80/156/81 79/153/79
f 90/174/64 68/130/68 67/126/66
f 79/155/79 80/157/81 74/146/82
f 80/158/81 78/152/77 77/149/83
f 64/116/61 83/165/84 63/114/62
f 69/135/63 83/165/84 64/116/61
f 65/119/57 84/167/67 86/170/85
f 66/125/65 90/176/64 89/173/86
f 67/127/66 91/177/87 90/175/64
f 67/128/66 95/183/88 93/181/89
f 119/235/90 97/185/91 100/188/92
f 101/189/93 96/184/94 97/185/91
f 121/241/95 100/188/92 99/187/96
f 97/185/91 96/184/94 100/188/92
f 103/194/97 106/204/98 102/191/99
f 120/238/100 105/201/101 104/197/102
f 123/245/103 131/263/104 108/210/105
f 110/217/106 127/251/107 107/207/108
f 110/217/106 107/207/108 131/263/104
f 123/245/103 108/210/105 109/213/109
f 109/213/109 127/251/107 110/217/106
f 104/199/102 126/250/110 106/206/98
f 109/214/109 125/249/111 106/205/98
f 130/258/112 112/224/113 111/221/114
f 111/222/114 128/254/115 108/211/105
f 108/212/105 130/260/112 111/220/114
f 129/256/116 112/224/113 130/258/112
f 121/243/95 114/226/117 102/190/99
f 117/230/118 115/227/119 120/239/100
f 127/251/107 109/213/109 108/210/105
f 118/233/120 102/190/99 114/226/117
f 118/234/120 119/236/90 113/225/121
f 119/237/90 117/231/118 116/228/122
f 105/200/101 122/244/123 104/198/102
f 110/219/106 122/244/123 105/200/101
f 106/203/98 123/246/103 124/248/124
f 5/5/3 9/9/10 10/10/4 11/11/1
f 107/208/108 129/255/116 131/261/104
f 131/261/104 129/255/116 130/259/112
f 108/211/105 128/254/115 127/252/107
f 130/260/112 108/212/105 131/262/104
f 3/3/125 29/55/36 10/10/4 8/8/6
f 29/55/36 3/3/125 7/7/7
f 4/4/5 9/9/10 1/1/8
f 7/7/7 3/3/125 1/1/8
f 8/8/6 4/4/5 1/1/8
f 11/11/1 2/2/9 6/6/2
f 2/2/9 11/11/1 29/55/36 7/7/7
f 3/3/125 8/8/6 1/1/8
f 37/73/25 19/36/23 20/38/20 15/24/15
f 31/61/14 12/13/13 15/23/15
f 13/16/11 31/61/14 14/19/16
f 12/13/13 16/26/12 15/23/15
f 34/68/17 20/39/20 39/75/18
f 22/46/31 21/43/26 44/87/28 23/47/30
f 28/52/34 30/58/37 11/11/1 10/10/4
f 39/76/18 46/90/43 18/34/19
f 43/83/29 21/43/26 23/47/30
f 28/54/34 13/18/11 27/51/39
f 30/59/37 12/15/13 24/48/38
f 36/72/41 34/69/17 19/37/23 16/25/12
f 10/10/4 32/64/32 28/52/34
f 31/62/14 26/50/35 32/65/32 12/14/13
f 14/19/16 16/26/12 13/16/11
f 32/65/32 26/50/35 28/53/34
f 35/71/126 34/70/17 16/27/12 38/74/24
f 29/56/36 25/49/33 32/66/32
f 13/17/11 12/15/13 30/59/37
f 12/15/13 29/57/36 24/48/38
f 28/54/34 31/63/14 13/18/11
f 30/60/37 27/51/39 13/18/11
f 14/21/16 20/41/20 35/71/126
f 14/20/16 33/67/40 20/40/20
f 15/24/15 16/28/12 37/73/25
f 44/88/28 45/89/44 17/30/22 43/84/29
f 20/41/20 34/70/17 35/71/126
f 14/21/16 35/71/126 38/74/24
f 41/81/21 43/85/29 40/78/42
f 41/80/21 42/82/27 21/44/26
f 17/30/22 45/89/44 39/77/18
f 41/81/21 21/45/26 43/85/29
f 43/85/29 17/31/22 40/78/42
f 52/96/47 56/100/55 57/101/48 59/103/45
f 47/91/54 48/92/52 54/98/51 50/94/127
f 58/102/80 50/94/127 54/98/51
f 51/95/49 56/100/55 47/91/54
f 47/91/54 52/96/47 53/97/46 48/92/52
f 55/99/50 51/95/49 47/91/54
f 59/103/45 49/93/53 53/97/46
f 50/94/127 58/102/80 57/101/48 55/99/50
f 49/93/53 59/103/45 58/102/80 54/98/51
f 50/94/127 55/99/50 47/91/54
f 87/171/70 68/131/68 69/133/63 64/118/61
f 81/159/60 60/104/59 64/117/61
f 62/110/56 81/159/60 63/113/62
f 60/104/59 65/120/57 64/117/61
f 84/166/67 69/134/63 67/126/66
f 72/144/74 93/180/89 71/141/73 73/145/72
f 92/178/128 91/177/87 67/127/66 93/179/89
f 93/179/89 70/138/71 92/178/128
f 78/150/77 80/156/81 59/103/45 57/101/48
f 70/137/71 93/180/89 72/144/74
f 78/152/77 62/112/56 77/149/83
f 80/157/81 61/109/58 74/146/82
f 86/170/85 84/167/67 68/132/68 65/119/57
f 57/101/48 82/162/75 78/150/77
f 58/102/80 79/153/79 82/162/75
f 81/160/60 76/148/78 82/163/75 60/105/59
f 63/113/62 65/120/57 62/110/56
f 82/163/75 76/148/78 78/151/77
f 60/106/59 75/147/76 79/154/79 61/108/58
f 85/169/129 84/168/67 65/121/57 88/172/69
f 79/154/79 75/147/76 82/164/75
f 62/111/56 61/109/58 80/157/81
f 61/109/58 79/155/79 74/146/82
f 78/152/77 81/161/60 62/112/56
f 80/158/81 77/149/83 62/112/56
f 63/115/62 69/136/63 85/169/129
f 63/114/62 83/165/84 69/135/63
f 64/118/61 65/122/57 87/171/70
f 92/178/128 70/138/71 90/175/64 91/177/87
f 69/136/63 84/168/67 85/169/129
f 63/115/62 85/169/129 88/172/69
f 90/176/64 70/140/71 89/173/86
f 71/143/73 94/182/130 66/124/65 70/139/71
f 67/129/66 66/124/65 94/182/130
f 70/140/71 66/125/65 89/173/86
f 95/183/88 67/128/66 71/142/73 93/181/89
f 67/129/66 94/182/130 71/143/73
f 98/186/131 118/232/120 121/241/95 99/187/96
f 121/241/95 119/235/90 100/188/92
f 118/232/120 98/186/131 101/189/93
f 99/187/96 100/188/92 96/184/94
f 101/189/93 98/186/131 96/184/94
f 97/185/91 119/235/90 118/232/120 101/189/93
f 98/186/131 99/187/96 96/184/94
f 125/249/111 109/214/109 110/216/106 105/202/101
f 120/238/100 102/191/99 105/201/101
f 103/194/97 120/238/100 104/197/102
f 102/191/99 106/204/98 105/201/101
f 123/245/103 110/217/106 131/263/104
f 124/248/124 123/246/103 109/215/109 106/203/98
f 129/256/116 111/221/114 112/224/113
f 117/231/118 103/196/97 116/228/122
f 119/236/90 102/193/99 113/225/121
f 119/235/90 121/241/95 117/229/118
f 120/239/100 115/227/119 121/242/95 102/192/99
f 104/197/102 106/204/98 103/194/97
f 121/242/95 115/227/119 117/230/118
f 118/233/120 114/226/117 121/243/95
f 103/195/97 102/193/99 119/236/90
f 102/193/99 118/234/120 113/225/121
f 117/231/118 120/240/100 103/196/97
f 119/237/90 116/228/122 103/196/97
f 104/199/102 110/218/106 123/247/103
f 104/198/102 122/244/123 110/219/106
f 105/202/101 106/205/98 125/249/111
f 106/206/98 126/250/110 123/247/103
f 104/199/102 123/247/103 126/250/110
f 111/222/114 127/252/107 128/254/115
f 111/223/114 129/257/116 127/253/107
f 107/209/108 127/253/107 129/257/116
