# Blender 3.3.1
# www.blender.org
o Cylinder.050
v -0.001400 0.004717 -0.006187
v -0.001400 0.079661 0.042850
v -0.001400 0.129971 0.115501
v -0.001400 0.204059 0.159268
v -0.001400 0.288950 0.163124
v 0.004451 0.289214 0.166492
v 0.004451 0.202888 0.162380
v 0.004451 0.127721 0.117917
v 0.004451 0.077361 0.045236
v 0.004451 0.002889 -0.003347
v 0.004451 0.289740 0.173227
v 0.004451 0.200546 0.168604
v 0.004451 0.123220 0.122750
v 0.004451 0.072760 0.050007
v 0.004451 -0.000769 0.002333
v -0.001400 0.290003 0.176595
v -0.001400 0.199375 0.171716
v -0.001400 0.120969 0.125167
v -0.001400 0.070460 0.052393
v -0.001400 -0.002598 0.005173
v -0.007250 0.289740 0.173227
v -0.007250 0.200546 0.168604
v -0.007250 0.123220 0.122750
v -0.007250 0.072760 0.050007
v -0.007250 -0.000769 0.002333
v -0.007250 0.289214 0.166492
v -0.007250 0.202888 0.162380
v -0.007250 0.127721 0.117917
v -0.007250 0.077361 0.045236
v -0.007250 0.002889 -0.003347
v -0.001400 0.245689 0.166706
v 0.004451 0.245514 0.170051
v 0.004451 0.245165 0.176741
v -0.001400 0.244990 0.180086
v -0.007250 0.245165 0.176741
v -0.007250 0.245514 0.170051
vn -0.6843 -0.2958 -0.6665
vn -0.0000 -0.0786 -0.9969
vn 0.6843 -0.2958 -0.6665
vn 0.6841 -0.7294 0.0036
vn -0.0000 -0.9415 0.3369
vn -0.6841 -0.7294 0.0036
vn -0.8381 0.3808 -0.3906
vn -0.0000 0.6976 -0.7165
vn -0.8939 0.3054 -0.3281
vn -0.0000 0.6813 -0.7320
vn -0.8890 0.1597 -0.4292
vn -0.0000 0.3483 -0.9374
vn -0.8830 0.0226 -0.4687
vn -0.6854 0.5767 -0.4446
vn -0.0000 0.5440 -0.8391
vn -0.0000 0.0478 -0.9989
vn -0.6853 0.6395 0.3484
vn -0.0000 0.6692 0.7431
vn 0.6853 0.6395 0.3484
vn 0.6854 0.5767 -0.4446
vn -0.8916 -0.3152 0.3252
vn -0.8345 -0.3755 0.4032
vn -0.8398 -0.1905 0.5085
vn -0.8473 -0.0274 0.5305
vn -0.0000 -0.6961 0.7179
vn -0.0000 -0.6816 0.7317
vn -0.0000 -0.3510 0.9364
vn -0.0000 -0.0517 0.9987
vn 0.8916 -0.3152 0.3252
vn 0.8345 -0.3755 0.4032
vn 0.8398 -0.1905 0.5085
vn 0.8473 -0.0274 0.5305
vn 0.8381 0.3808 -0.3906
vn 0.8939 0.3054 -0.3281
vn 0.8890 0.1597 -0.4292
vn 0.8830 0.0226 -0.4687
vt 0.307217 0.086116
vt 0.307217 0.167415
vt 0.307217 0.248713
vt 0.307217 0.330012
vt 0.307217 0.411311
vt 0.304112 0.411311
vt 0.304112 0.330012
vt 0.304112 0.248713
vt 0.304112 0.167415
vt 0.304112 0.086116
vt 0.297900 0.411311
vt 0.297900 0.330012
vt 0.297900 0.248713
vt 0.297900 0.167415
vt 0.297900 0.086116
vt 0.294795 0.411311
vt 0.294795 0.330012
vt 0.294795 0.248713
vt 0.294795 0.167415
vt 0.294795 0.086116
vt 0.297900 0.411311
vt 0.297900 0.330012
vt 0.297900 0.248713
vt 0.297900 0.167415
vt 0.297900 0.086116
vt 0.304112 0.411311
vt 0.304112 0.330012
vt 0.304112 0.248713
vt 0.304112 0.167415
vt 0.304112 0.086116
vt 0.307217 0.370661
vt 0.304112 0.370661
vt 0.297900 0.370661
vt 0.294795 0.370661
vt 0.297900 0.370661
vt 0.304112 0.370661
s 1
f 30/30/1 1/1/2 10/10/3 15/15/4 20/20/5 25/25/6
f 30/30/1 29/29/7 2/2/8 1/1/2
f 29/29/7 28/28/9 3/3/10 2/2/8
f 28/28/9 27/27/11 4/4/12 3/3/10
f 36/36/13 26/26/14 5/5/15 31/31/16
f 26/26/14 21/21/17 16/16/18 11/11/19 6/6/20 5/5/15
f 25/25/6 24/24/21 29/29/7 30/30/1
f 24/24/21 23/23/22 28/28/9 29/29/7
f 23/23/22 22/22/23 27/27/11 28/28/9
f 35/35/24 21/21/17 26/26/14 36/36/13
f 20/20/5 19/19/25 24/24/21 25/25/6
f 19/19/25 18/18/26 23/23/22 24/24/21
f 18/18/26 17/17/27 22/22/23 23/23/22
f 34/34/28 16/16/18 21/21/17 35/35/24
f 15/15/4 14/14/29 19/19/25 20/20/5
f 14/14/29 13/13/30 18/18/26 19/19/25
f 13/13/30 12/12/31 17/17/27 18/18/26
f 33/33/32 11/11/19 16/16/18 34/34/28
f 10/10/3 9/9/33 14/14/29 15/15/4
f 9/9/33 8/8/34 13/13/30 14/14/29
f 8/8/34 7/7/35 12/12/31 13/13/30
f 32/32/36 6/6/20 11/11/19 33/33/32
f 1/1/2 2/2/8 9/9/33 10/10/3
f 2/2/8 3/3/10 8/8/34 9/9/33
f 3/3/10 4/4/12 7/7/35 8/8/34
f 31/31/16 5/5/15 6/6/20 32/32/36
f 4/4/12 31/31/16 32/32/36 7/7/35
f 7/7/35 32/32/36 33/33/32 12/12/31
f 12/12/31 33/33/32 34/34/28 17/17/27
f 17/17/27 34/34/28 35/35/24 22/22/23
f 22/22/23 35/35/24 36/36/13 27/27/11
f 27/27/11 36/36/13 31/31/16 4/4/12
