# Blender 3.3.1
# www.blender.org
o Cylinder.054
v -0.003388 0.005429 -0.024716
v 0.020701 0.006532 -0.010980
v 0.021727 0.004598 0.008107
v -0.015142 0.075368 0.008650
v -0.015148 0.075516 -0.008098
v 0.028740 0.025610 -0.021132
v -0.023645 0.064896 0.013409
v -0.030064 0.040992 0.025759
v -0.028652 0.022630 0.025517
v -0.000870 0.088723 -0.026736
v 0.022465 0.088665 -0.013186
v 0.006253 0.081000 0.004307
v -0.000871 0.088658 0.027192
v -0.024769 0.088842 0.013989
v -0.025263 0.088624 -0.013197
v 0.025951 0.090361 -0.023788
v -0.008112 0.091008 -0.034844
v -0.027015 0.092716 0.031643
v 0.013156 0.092706 0.038512
v 0.033011 0.091008 0.011564
v 0.035862 0.090698 -0.010485
v 0.007746 0.090247 -0.036428
v -0.028634 0.090698 -0.026288
v -0.035490 0.089816 0.011633
v -0.008112 0.091008 0.035307
v 0.025849 0.091022 0.023995
v -0.001059 0.079720 -0.006913
v -0.007153 0.079702 0.003858
v 0.005179 0.079718 -0.003449
v -0.000823 0.079718 0.007377
v -0.007172 0.079704 -0.003153
v -0.001277 -0.000552 0.000334
v 0.025892 0.025795 0.026702
v 0.011015 0.006968 0.022931
v -0.037195 0.025758 0.009212
v -0.021008 0.005466 0.015143
v -0.034027 0.024956 -0.014694
v 0.008473 0.025795 -0.036197
v -0.005259 0.005196 0.022933
v -0.001961 0.025537 0.037917
v 0.034985 0.022081 -0.012785
v 0.030772 0.043261 0.023185
v -0.039425 0.042639 0.000181
v 0.033536 0.023658 0.014901
v -0.030768 0.022083 -0.023926
v -0.021461 0.006424 -0.012800
v -0.004976 0.023868 -0.037068
v -0.000839 0.044306 -0.038064
v 0.036168 0.040651 -0.012793
v -0.003994 0.043031 0.039568
v -0.031393 0.040646 -0.024958
v 0.015360 0.078618 -0.004637
v 0.051511 0.084146 0.000231
v 0.039289 0.092716 -0.006638
v 0.003517 0.076857 0.000231
v 0.016002 0.071969 0.007619
v 0.002979 0.078599 -0.016326
v 0.025279 0.084129 -0.045195
v 0.013068 0.093492 -0.037927
v 0.001282 0.076833 -0.003632
v 0.014273 0.072198 -0.010265
v 0.027234 0.041959 -0.026994
v -0.009463 0.079214 -0.014518
v -0.027177 0.084146 -0.045200
v -0.027014 0.092716 -0.031183
v -0.003180 0.076857 -0.003636
v -0.002929 0.072008 -0.018112
v -0.023963 0.064273 -0.012933
v -0.053361 0.084361 0.000227
v -0.040984 0.092679 0.007265
v -0.041475 0.091190 -0.006588
v -0.005408 0.076833 0.000231
v -0.019190 0.069591 0.000228
v -0.017129 0.079246 0.000155
v -0.002268 0.078318 0.016477
v -0.027177 0.084146 0.045662
v -0.028633 0.090698 0.026751
v -0.003180 0.076857 0.004098
v -0.005604 0.071068 0.019189
v 0.011429 0.078600 0.011910
v 0.025280 0.084127 0.045658
v 0.008198 0.090683 0.037455
v 0.003069 0.071279 0.017857
v 0.004538 0.090543 -0.003045
v -0.006528 0.090543 -0.002881
v 0.001124 0.083249 0.003708
v 0.005149 0.091141 0.004062
v -0.000853 0.090543 -0.006158
v -0.006528 0.090543 0.003344
v -0.000678 0.091141 0.007427
v -0.002174 0.094943 0.001352
v -0.001031 0.094150 -0.001518
v 0.000664 0.093609 0.000919
vn 0.2339 -0.5111 -0.8271
vn 0.8367 -0.5001 -0.2234
vn 0.7139 0.4592 -0.5287
vn 0.7935 -0.3003 0.5292
vn 0.8257 0.4549 0.3336
vn -0.0666 -0.3729 0.9255
vn 0.3485 0.4301 0.8328
vn -0.3362 -0.5979 -0.7277
vn -0.0757 0.4125 -0.9078
vn -0.0103 -0.9999 -0.0117
vn 0.5350 -0.8245 0.1842
vn 0.2971 -0.7503 0.5905
vn -0.7205 0.2173 -0.6585
vn -0.0252 0.3079 -0.9511
vn 0.7714 0.2749 0.5740
vn 0.5898 -0.2765 0.7587
vn 0.8948 -0.3148 0.3166
vn -0.1016 -0.8090 0.5790
vn -0.8773 -0.4493 -0.1685
vn -0.4571 -0.1349 0.8792
vn -0.3499 0.8261 0.4417
vn -0.6171 -0.1839 -0.7651
vn 0.5671 -0.4252 -0.7054
vn 0.9575 0.2614 -0.1216
vn -0.1340 0.8677 -0.4786
vn -0.1042 0.8716 0.4791
vn 0.5727 -0.4332 0.6960
vn 0.9507 0.2828 -0.1273
vn -0.6234 -0.0160 0.7818
vn -0.9956 -0.0135 0.0925
vn -0.3169 -0.4327 -0.8440
vn 0.3301 0.3163 -0.8894
vn -0.4599 0.8749 -0.1514
vn -0.4619 0.8734 0.1542
vn -0.3169 -0.4328 0.8440
vn 0.3566 0.3092 0.8816
vn -0.9946 -0.0071 -0.1031
vn 0.3423 -0.0232 -0.9393
vn 0.8894 -0.4328 0.1475
vn 0.3917 0.2878 0.8739
vn 0.3621 0.8740 -0.3240
vn 0.5807 0.8114 -0.0665
vn -0.0035 0.9979 -0.0652
vn 0.1902 0.8151 -0.5473
vn -0.8017 0.5259 0.2842
vn -0.8485 -0.0956 -0.5205
vn -0.4306 0.8552 0.2884
vn -0.8630 -0.0925 0.4967
vn -0.1473 0.7925 0.5918
vn 0.0851 0.9950 -0.0526
vn -0.0111 0.9999 0.0088
vn 0.0600 0.9965 0.0583
vn -0.1606 0.9863 0.0373
vn 0.3649 0.6569 0.6598
vn -0.1198 0.9927 0.0165
vn -0.0155 0.9950 0.0987
vn 0.0044 1.0000 -0.0010
vn -0.0312 0.9984 0.0480
vn -0.1264 0.9919 0.0079
vn 0.0613 0.9780 -0.1993
vn -0.1693 -0.3015 -0.9383
vn -0.7254 -0.3571 -0.5884
vn 0.9444 0.2391 -0.2255
vn 0.6462 -0.3418 -0.6824
vn 0.6505 0.2295 -0.7240
vn -0.8450 0.5347 -0.0013
vn -0.6759 0.6016 -0.4257
vn -0.1757 0.5312 0.8288
vn -0.6908 0.5990 0.4049
vn 0.3363 -0.2944 -0.8946
vn -0.7190 0.2172 0.6602
vn -0.9785 0.2060 0.0080
vn -0.9282 -0.3222 -0.1862
vn 0.8835 -0.3507 -0.3106
vn 0.4845 -0.7990 -0.3562
vn -0.0071 -0.8041 -0.5944
vn -0.5372 -0.8050 -0.2520
vn -0.5099 -0.7962 0.3257
vn 0.0014 -0.2929 0.9561
vn -0.0444 0.2529 0.9665
vn -0.6741 -0.3263 0.6626
vn -0.0038 0.6310 -0.7758
vn 0.0827 0.9952 -0.0520
vn 0.0110 0.9952 -0.0977
vn -0.0872 0.9950 -0.0481
vn -0.0878 0.9953 0.0407
vn -0.0084 0.9750 0.2220
vn 0.1582 0.9830 0.0935
vn -0.5448 0.7657 0.3418
vn 0.7415 0.5712 0.3520
vn -0.8767 -0.4656 -0.1207
vn -0.9359 -0.3085 0.1698
vn -0.2235 0.1587 -0.9617
vt 0.545997 0.386646
vt 0.489759 0.524913
vt 0.444852 0.400471
vt 0.679900 0.400471
vt 0.682708 0.521433
vt 0.632694 0.386646
vt 0.700436 0.527593
vt 0.679900 0.400471
vt 0.282774 0.074921
vt 0.508551 0.802256
vt 0.155508 0.136242
vt 0.282774 0.074921
vt 0.156358 0.129619
vt 0.388656 0.802256
vt 0.753982 0.405183
vt 0.712496 0.297549
vt 0.266049 0.195143
vt 0.241246 0.134293
vt 0.259255 0.313918
vt 0.235867 0.229607
vt 0.270737 0.421759
vt 0.247725 0.315039
vt 0.284423 0.906307
vt 0.405367 0.737264
vt 0.376419 0.907595
vt 0.399607 0.743838
vt 0.508551 0.873687
vt 0.470026 0.809038
vt 0.411184 0.600692
vt 0.740594 0.954175
vt 0.614421 0.907513
vt 0.536617 0.732951
vt 0.525282 0.909133
vt 0.342340 0.740946
vt 0.357700 0.909194
vt 0.356339 0.743791
vt 0.300666 0.915834
vt 0.609639 0.828451
vt 0.238394 0.922472
vt 0.609644 0.811917
vt 0.640229 0.955476
vt 0.560754 0.871951
vt 0.685036 0.955476
vt 0.562590 0.865353
vt 0.513331 0.922475
vt 0.611151 0.815391
vt 0.394178 0.916963
vt 0.230843 0.907699
vt 0.281800 0.916964
vt 0.509792 0.908859
vt 0.319756 0.811345
vt 0.658814 0.922474
vt 0.320891 0.804814
vt 0.594176 0.922553
vt 0.398499 0.809020
vt 0.505381 0.954175
vt 0.506530 0.596711
vt 0.476258 0.807783
vt 0.270169 0.954175
vt 0.410377 0.598408
vt 0.419952 0.808984
vt 0.740594 0.954175
vt 0.528155 0.607230
vt 0.498709 0.808996
vt 0.423242 0.594643
vt 0.505381 0.954175
vt 0.429487 0.810702
vt 0.270169 0.954175
vt 0.415920 0.597168
vt 0.557195 0.551488
vt 0.507954 0.551488
vt 0.475783 0.418477
vt 0.707171 0.297549
vt 0.736593 0.399841
vt 0.579313 0.386646
vt 0.657497 0.511555
vt 0.565274 0.511555
vt 0.180403 0.297520
vt 0.205238 0.399841
vt 0.344832 0.524583
vt 0.276286 0.386646
vt 0.333299 0.400471
vt 0.232516 0.405812
vt 0.180435 0.297549
vt 0.581324 0.399841
vt 0.561027 0.297549
vt 0.474022 0.525664
vt 0.437277 0.400471
vt 0.557226 0.297549
vt 0.500602 0.412545
vt 0.420421 0.315039
vt 0.807879 0.421771
vt 0.783076 0.315039
vt 0.770175 0.305652
vt 0.795133 0.229607
vt 0.716770 0.219447
vt 0.194215 0.301913
vt 0.169412 0.219445
vt 0.795726 0.418079
vt 0.783076 0.315039
vt 0.255661 0.421771
vt 0.233181 0.315039
vt 0.323189 0.400471
vt 0.338114 0.521604
vt 0.276286 0.386646
vt 0.475815 0.417741
vt 0.435518 0.315039
vt 0.434251 0.229607
vt 0.512083 0.307785
vt 0.558403 0.219447
vt 0.819547 0.314534
vt 0.795133 0.229607
vt 0.559142 0.219447
vt 0.415077 0.229607
vt 0.244748 0.314465
vt 0.222478 0.229607
vt 0.835926 0.042181
vt 0.415669 0.802256
vt 0.448529 0.865696
vt 0.467319 0.982239
vt 0.403797 0.955476
vt 0.369359 0.874817
vt 0.448604 0.773916
vt 0.696933 0.954684
vt 0.869292 0.302174
vt 0.687264 0.080265
vt 0.576974 0.042160
vt 0.342170 0.802256
vt 0.172579 0.865688
vt 0.456317 0.988097
vt 0.212171 0.965425
vt 0.365021 0.878035
vt 0.419093 0.773916
vt 0.601040 0.955141
vt 0.749858 0.195143
vt 0.793801 0.302187
vt 0.650061 0.081269
vt 0.746440 0.301913
vt 0.718003 0.219447
vt 0.334271 0.048337
vt 0.358682 0.802256
vt 0.172574 0.865696
vt 0.467913 0.979446
vt 0.256978 0.955476
vt 0.368638 0.872469
vt 0.419093 0.773916
vt 0.409575 0.954684
vt 0.428527 0.301836
vt 0.445573 0.080187
vt 0.266049 0.195143
vt 0.241255 0.134282
vt 0.463596 0.979547
vt 0.448637 0.866623
vt 0.493410 0.955476
vt 0.364939 0.872147
vt 0.565050 0.871951
vt 0.404898 0.937186
vt 0.448604 0.773916
vt 0.314006 0.955141
vt 0.281311 0.077013
vt 0.133674 0.306375
vt 0.448603 0.802231
vt 0.168200 0.037346
vt 0.475326 0.037131
vt 0.563749 0.802256
vt 0.461386 0.978891
vt 0.724632 0.865696
vt 0.615407 0.916963
vt 0.478114 0.773916
vt 0.409575 0.954684
vt 0.319959 0.271378
vt 0.413933 0.093889
vt 0.760717 0.042159
vt 0.522011 0.802256
vt 0.462304 0.972227
vt 0.724712 0.865697
vt 0.669710 0.916918
vt 0.577801 0.302386
vt 0.524991 0.076386
vt 0.776565 0.703850
vt 0.227610 0.703853
vt 0.478114 0.773916
vt 0.598340 0.834445
vt 0.805018 0.691572
vt 0.511936 0.703852
vt 0.227602 0.703851
vt 0.502680 0.691573
vt 0.467153 0.615759
vt 0.513483 0.631886
vt 0.572920 0.643920
s 1
f 57/127/1 52/117/2 61/136/3
f 52/117/2 80/173/4 56/125/5
f 80/173/4 75/164/6 83/178/7
f 63/140/8 57/127/1 67/148/9
f 32/70/10 3/7/11 34/76/12
f 51/116/13 67/149/9 48/108/14
f 42/94/15 33/74/16 44/99/17
f 39/87/18 32/71/10 34/77/12
f 69/153/19 24/50/20 70/154/21
f 22/48/22 58/129/23 16/37/24
f 58/129/23 22/48/22 59/131/25
f 19/44/26 81/175/27 26/53/28
f 82/177/29 81/176/27 19/43/26
f 23/49/30 64/142/31 17/39/32
f 64/142/31 23/49/30 65/144/33
f 18/42/34 76/166/35 25/51/36
f 77/168/37 76/167/35 18/41/34
f 21/47/38 53/119/39 20/45/40
f 53/119/39 21/47/38 54/121/41
f 11/25/42 21/47/38 52/118/2
f 20/45/40 12/27/43 80/174/4
f 57/128/1 16/37/24 52/118/2
f 10/23/44 22/48/22 57/128/1
f 16/37/24 11/25/42 52/118/2
f 15/35/45 23/49/30 5/14/46
f 17/39/32 10/23/44 57/128/1
f 14/33/47 24/50/20 4/10/48
f 75/165/6 77/168/37 4/10/48
f 13/31/49 25/52/36 75/165/6
f 77/168/37 14/33/47 4/10/48
f 80/174/4 82/177/29 75/165/6
f 12/27/43 26/54/28 80/174/4
f 82/177/29 13/31/49 75/165/6
f 28/58/50 72/158/51 31/67/52
f 13/32/49 12/29/43 30/65/53
f 30/64/53 12/28/43 86/182/54
f 29/61/55 27/55/56 60/133/57
f 27/55/56 31/67/52 66/146/58
f 28/58/50 30/64/53 78/169/59
f 12/28/43 29/61/55 55/123/60
f 47/107/61 45/102/62 51/116/13 48/108/14
f 49/111/63 6/15/64 62/138/65
f 73/160/66 5/12/46 68/151/67
f 79/172/68 4/9/48 7/18/69
f 62/139/65 6/16/64 38/86/70
f 8/19/71 7/17/69 43/97/72
f 48/109/14 38/85/70 47/106/61
f 68/150/67 51/115/13 43/97/72
f 51/115/13 37/83/73 43/97/72
f 61/135/3 49/111/63 62/138/65
f 49/112/63 56/126/5 42/95/15
f 37/83/73 51/115/13 45/101/62
f 6/15/64 49/111/63 41/92/74
f 61/136/3 52/117/2 56/125/5
f 3/8/11 32/72/10 2/4/75
f 2/4/75 41/93/74 3/8/11
f 53/120/39 54/122/41 20/46/40
f 67/148/9 57/127/1 61/136/3
f 58/130/23 59/132/25 16/38/24
f 5/13/46 63/140/8 67/148/9
f 1/3/76 32/72/10 46/103/77
f 46/103/77 45/102/62 1/3/76
f 5/12/46 67/149/9 68/151/67
f 23/49/30 63/141/8 5/14/46
f 64/143/31 65/145/33 17/40/32
f 36/82/78 32/72/10 39/88/18
f 40/91/79 50/114/80 9/22/81
f 76/167/35 77/168/37 25/52/36
f 75/164/6 79/171/68 83/178/7
f 56/125/5 80/173/4 83/178/7
f 81/176/27 82/177/29 26/54/28
f 66/147/58 92/189/82 60/134/57
f 84/180/83 29/62/55 60/134/57
f 55/124/60 84/180/83 60/134/57
f 29/62/55 84/180/83 55/124/60
f 88/185/84 66/147/58 60/134/57
f 27/56/56 88/185/84 60/134/57
f 88/185/84 27/56/56 66/147/58
f 31/68/52 85/181/85 66/147/58
f 85/181/85 31/68/52 72/159/51
f 66/147/58 85/181/85 72/159/51
f 28/59/50 89/186/86 72/159/51
f 89/186/86 28/59/50 78/170/59
f 89/186/86 78/170/59 72/159/51
f 30/66/53 90/187/87 78/170/59
f 87/184/88 12/30/43 55/124/60
f 78/170/59 91/188/89 72/159/51
f 55/124/60 93/190/90 86/183/54
f 92/189/82 91/188/89 93/190/90
f 79/171/68 75/164/6 4/11/48
f 5/13/46 73/161/66 74/163/91
f 28/60/50 31/69/52 15/36/45 14/34/47
f 6/15/64 41/92/74 2/5/75
f 9/21/81 35/79/92 36/80/78
f 20/45/40 80/174/4 52/118/2 21/47/38
f 10/23/44 59/131/25 22/48/22
f 15/35/45 65/144/33 23/49/30
f 14/34/47 15/36/45 70/155/21
f 14/33/47 70/154/21 24/50/20
f 15/35/45 24/50/20 71/157/93
f 77/168/37 18/41/34 14/33/47
f 14/34/47 18/42/34 25/51/36
f 82/177/29 19/43/26 13/31/49
f 13/32/49 19/44/26 26/53/28
f 11/25/42 54/121/41 21/47/38
f 17/39/32 57/128/1 63/141/8 23/49/30
f 15/35/45 5/14/46 74/162/91 24/50/20
f 27/57/56 29/63/55 11/26/42 10/24/44
f 14/34/47 25/51/36 13/32/49
f 13/32/49 26/53/28 12/29/43
f 31/69/52 27/57/56 10/24/44 15/36/45
f 30/65/53 28/60/50 14/34/47 13/32/49
f 35/78/92 37/84/73 46/105/77 36/81/78
f 12/29/43 11/26/42 29/63/55
f 37/83/73 45/101/62 46/104/77
f 40/89/79 33/73/16 42/96/15 50/113/80
f 37/84/73 35/78/92 43/98/72
f 33/73/16 40/89/79 34/75/12
f 50/113/80 42/96/15 83/179/7 79/172/68
f 2/6/75 1/1/76 38/86/70 6/16/64
f 35/79/92 9/21/81 8/19/71 43/97/72
f 32/72/10 36/81/78 46/105/77
f 1/1/76 2/6/75 32/72/10
f 47/106/61 38/85/70 1/2/76
f 34/76/12 3/7/11 44/99/17 33/74/16
f 8/20/71 50/114/80 79/172/68 7/18/69
f 45/102/62 47/107/61 1/3/76
f 40/90/79 39/87/18 34/77/12
f 50/114/80 8/20/71 9/22/81
f 44/100/17 41/93/74 49/112/63 42/95/15
f 41/93/74 44/100/17 3/8/11
f 61/137/3 62/139/65 48/110/14 67/149/9
f 61/137/3 56/126/5 49/112/63
f 12/29/43 20/46/40 11/26/42
f 20/46/40 54/122/41 11/26/42
f 9/22/81 36/82/78 39/88/18 40/91/79
f 38/86/70 48/110/14 62/139/65
f 11/26/42 16/38/24 10/24/44
f 22/48/22 16/37/24 57/128/1
f 16/38/24 59/132/25 10/24/44
f 10/24/44 17/40/32 15/36/45
f 17/40/32 65/145/33 15/36/45
f 68/151/67 67/149/9 51/116/13
f 43/98/72 7/18/69 68/151/67
f 68/151/67 7/18/69 73/160/66
f 7/18/69 4/9/48 73/160/66
f 4/10/48 24/50/20 74/162/91
f 15/36/45 71/156/93 70/155/21
f 70/155/21 71/156/93 69/152/19
f 71/157/93 24/50/20 69/153/19
f 73/161/66 4/11/48 74/163/91
f 93/190/90 91/188/89 78/170/59 86/183/54
f 25/52/36 77/168/37 75/165/6
f 42/96/15 56/126/5 83/179/7
f 26/54/28 82/177/29 80/174/4
f 92/189/82 93/190/90 55/124/60 60/134/57
f 86/183/54 90/187/87 30/66/53
f 78/170/59 90/187/87 86/183/54
f 12/30/43 87/184/88 86/183/54
f 86/183/54 87/184/88 55/124/60
f 91/188/89 92/189/82 66/147/58 72/159/51
