# Blender 3.3.1
# www.blender.org
o Cylinder.049
v -0.008778 -0.000213 -0.005294
v 0.001218 0.477214 -0.045207
v -0.003280 0.002225 -0.002217
v 0.006346 0.481159 -0.043260
v -0.003628 0.004250 0.004219
v 0.005587 0.485338 -0.038006
v -0.009475 0.003836 0.007579
v -0.000299 0.485571 -0.034698
v -0.014974 0.001398 0.004502
v -0.005427 0.481626 -0.036644
v -0.014625 -0.000627 -0.001934
v -0.004668 0.477447 -0.041899
v -0.029818 0.082388 -0.031917
v -0.027115 0.173075 -0.032657
v -0.000639 0.249913 0.003976
v 0.027248 0.330338 0.020248
v 0.029039 0.415236 0.008742
v 0.034527 0.417394 0.011396
v 0.032832 0.329277 0.023597
v 0.004557 0.247061 0.007194
v -0.021654 0.171431 -0.029418
v -0.024143 0.083568 -0.028689
v 0.034147 0.419953 0.017368
v 0.032618 0.329158 0.030262
v 0.003883 0.245163 0.013593
v -0.022114 0.170177 -0.022961
v -0.024317 0.084633 -0.022093
v 0.028279 0.420355 0.020687
v 0.026819 0.330100 0.033578
v -0.001987 0.246117 0.016774
v -0.028035 0.170567 -0.019742
v -0.030165 0.084519 -0.018725
v 0.022790 0.418197 0.018034
v 0.021235 0.331161 0.030228
v -0.007183 0.248969 0.013556
v -0.033496 0.172211 -0.022980
v -0.035839 0.083340 -0.021953
v 0.023170 0.415638 0.012061
v 0.021449 0.331280 0.023564
v -0.006509 0.250867 0.007157
v -0.033036 0.173465 -0.029438
v -0.035666 0.082275 -0.028549
vn 0.0968 -0.3876 -0.9167
vn -0.1187 -0.0610 -0.9911
vn 0.4905 0.4118 -0.7680
vn 0.9150 -0.0168 -0.4031
vn 0.4088 0.9016 -0.1414
vn 0.8160 0.3468 0.4624
vn -0.2679 0.9326 0.2419
vn 0.0181 0.4043 0.9145
vn -0.8821 0.4710 0.0088
vn -0.8190 0.1032 0.5645
vn -0.7944 -0.0318 -0.6065
vn -0.8629 -0.3241 -0.3877
vn 0.1781 -0.8007 -0.5720
vn 0.8297 -0.5170 -0.2105
vn 0.7919 -0.2764 0.5445
vn 0.1121 -0.3243 0.9393
vn -0.5387 -0.6117 0.5793
vn -0.5028 -0.8459 -0.1779
vn -0.8385 -0.1722 -0.5169
vn -0.0203 -0.1591 -0.9871
vn -0.8053 0.2563 -0.5345
vn 0.0124 0.2062 -0.9784
vn -0.7878 0.4213 -0.4494
vn 0.0852 0.2899 -0.9533
vn -0.8482 0.1639 -0.5037
vn 0.0688 0.0141 -0.9975
vn -0.9007 -0.0263 0.4337
vn -0.9139 0.0762 0.3988
vn -0.8538 0.1237 0.5057
vn -0.8273 0.1327 0.5459
vn -0.0650 0.1527 0.9861
vn -0.1064 -0.1915 0.9757
vn -0.0854 -0.2908 0.9530
vn 0.0285 -0.0273 0.9992
vn 0.8578 0.1715 0.4844
vn 0.8430 -0.2518 0.4753
vn 0.7520 -0.4275 0.5018
vn 0.8294 -0.1564 0.5363
vn 0.8404 0.0046 -0.5420
vn 0.8401 -0.0320 -0.5414
vn 0.8799 -0.1519 -0.4503
vn 0.8948 -0.1458 -0.4221
vt 0.307217 0.004817
vt 0.307217 0.492609
vt 0.304112 0.004817
vt 0.304112 0.492609
vt 0.297900 0.004817
vt 0.297900 0.492609
vt 0.294795 0.004817
vt 0.294795 0.492609
vt 0.297900 0.004817
vt 0.297900 0.492609
vt 0.304112 0.004817
vt 0.304112 0.492609
vt 0.307217 0.086116
vt 0.307217 0.167415
vt 0.307217 0.248713
vt 0.307217 0.330012
vt 0.307217 0.411311
vt 0.304112 0.411311
vt 0.304112 0.330012
vt 0.304112 0.248713
vt 0.304112 0.167415
vt 0.304112 0.086116
vt 0.297900 0.411311
vt 0.297900 0.330012
vt 0.297900 0.248713
vt 0.297900 0.167415
vt 0.297900 0.086116
vt 0.294795 0.411311
vt 0.294795 0.330012
vt 0.294795 0.248713
vt 0.294795 0.167415
vt 0.294795 0.086116
vt 0.297900 0.411311
vt 0.297900 0.330012
vt 0.297900 0.248713
vt 0.297900 0.167415
vt 0.297900 0.086116
vt 0.304112 0.411311
vt 0.304112 0.330012
vt 0.304112 0.248713
vt 0.304112 0.167415
vt 0.304112 0.086116
s 1
f 17/17/1 2/2/2 4/4/3 18/18/4
f 18/18/4 4/4/3 6/6/5 23/23/6
f 23/23/6 6/6/5 8/8/7 28/28/8
f 28/28/8 8/8/7 10/10/9 33/33/10
f 4/4/3 2/2/2 12/12/11 10/10/9 8/8/7 6/6/5
f 33/33/10 10/10/9 12/12/11 38/38/12
f 38/38/12 12/12/11 2/2/2 17/17/1
f 1/1/13 3/3/14 5/5/15 7/7/16 9/9/17 11/11/18
f 11/11/18 42/42/19 13/13/20 1/1/13
f 42/42/19 41/41/21 14/14/22 13/13/20
f 41/41/21 40/40/23 15/15/24 14/14/22
f 40/40/23 39/39/25 16/16/26 15/15/24
f 39/39/25 38/38/12 17/17/1 16/16/26
f 9/9/17 37/37/27 42/42/19 11/11/18
f 37/37/27 36/36/28 41/41/21 42/42/19
f 36/36/28 35/35/29 40/40/23 41/41/21
f 35/35/29 34/34/30 39/39/25 40/40/23
f 34/34/30 33/33/10 38/38/12 39/39/25
f 7/7/16 32/32/31 37/37/27 9/9/17
f 32/32/31 31/31/32 36/36/28 37/37/27
f 31/31/32 30/30/33 35/35/29 36/36/28
f 30/30/33 29/29/34 34/34/30 35/35/29
f 29/29/34 28/28/8 33/33/10 34/34/30
f 5/5/15 27/27/35 32/32/31 7/7/16
f 27/27/35 26/26/36 31/31/32 32/32/31
f 26/26/36 25/25/37 30/30/33 31/31/32
f 25/25/37 24/24/38 29/29/34 30/30/33
f 24/24/38 23/23/6 28/28/8 29/29/34
f 3/3/14 22/22/39 27/27/35 5/5/15
f 22/22/39 21/21/40 26/26/36 27/27/35
f 21/21/40 20/20/41 25/25/37 26/26/36
f 20/20/41 19/19/42 24/24/38 25/25/37
f 19/19/42 18/18/4 23/23/6 24/24/38
f 1/1/13 13/13/20 22/22/39 3/3/14
f 13/13/20 14/14/22 21/21/40 22/22/39
f 14/14/22 15/15/24 20/20/41 21/21/40
f 15/15/24 16/16/26 19/19/42 20/20/41
f 16/16/26 17/17/1 18/18/4 19/19/42
