# Blender 3.3.1
# www.blender.org
o Cylinder.053
v 0.021035 0.001328 -0.000903
v -0.001029 0.076085 0.016328
v -0.015471 0.076554 0.004383
v 0.037075 0.036757 -0.018876
v -0.030482 0.029624 0.027952
v 0.001850 0.077135 -0.014444
v 0.004388 0.005828 0.024393
v -0.012728 -0.000984 0.007144
v -0.033515 0.030796 -0.025079
v 0.032870 0.033990 0.023243
v -0.040932 0.035073 0.002897
v -0.011329 0.001374 -0.020521
v 0.000377 0.032329 -0.040280
v -0.002780 0.035220 0.041080
v 0.017543 0.073034 0.001896
v -0.015873 0.073672 -0.010619
v -0.000948 0.070154 0.000231
vn -0.3881 -0.8932 0.2271
vn 0.5767 -0.8126 -0.0843
vn 0.1453 -0.7254 0.6728
vn -0.7866 -0.0810 -0.6121
vn 0.1084 0.8562 -0.5052
vn 0.0778 -0.0388 -0.9962
vn 0.6412 0.7627 0.0850
vn 0.8753 0.0112 -0.4835
vn 0.0109 0.8410 0.5410
vn -0.0517 0.0268 0.9983
vn 0.8198 -0.0069 0.5726
vn -0.7336 -0.1356 0.6659
vn -0.4201 0.8773 0.2320
vn -0.9974 -0.0118 0.0706
vn -0.5360 0.6983 -0.4744
vn -0.3475 0.9350 0.0704
vn -0.2296 -0.8198 -0.5247
vt 0.700436 0.527593
vt 0.632694 0.386646
vt 0.679900 0.400471
vt 0.503712 0.173531
vt 0.460736 0.087753
vt 0.370256 0.081230
vt 0.266049 0.195143
vt 0.694901 0.076548
vt 0.154038 0.147703
vt 0.276591 0.083762
vt 0.733881 0.242139
vt 0.758452 0.248228
vt 0.265978 0.377068
vt 0.242811 0.279635
vt 0.502641 0.107344
vt 0.628363 0.147350
vt 0.386961 0.073478
vt 0.657497 0.511555
vt 0.579313 0.386646
vt 0.437277 0.400471
vt 0.557195 0.551488
vt 0.344850 0.524588
vt 0.376960 0.402072
vt 0.406358 0.409201
vt 0.247420 0.368693
vt 0.180435 0.297549
vt 0.228097 0.274460
vt 0.774775 0.411617
vt 0.789661 0.268376
vt 0.712414 0.254890
vt 0.198388 0.338984
vt 0.173573 0.249001
vt 0.276286 0.386646
vt 0.545997 0.386646
vt 0.395769 0.400471
vt 0.559904 0.264127
vt 0.434976 0.278480
vt 0.558358 0.251413
vt 0.417264 0.264573
vt 0.861322 0.240074
vt 0.685148 0.077239
vt 0.266049 0.195143
vt 0.252907 0.192315
vt 0.277184 0.082913
vt 0.478622 0.265660
s 1
f 8/21/1 1/1/2 7/18/3
f 9/27/4 6/15/5 13/37/6
f 6/15/5 15/41/7 4/12/8
f 2/5/9 14/38/10 10/30/11
f 5/13/12 3/7/13 11/31/14
f 10/28/11 7/18/3 1/1/2
f 16/42/15 9/25/4 11/31/14
f 4/12/8 15/41/7 10/29/11
f 13/36/6 6/15/5 4/12/8
f 2/6/9 17/45/16 3/8/13
f 3/8/13 17/45/16 6/17/5
f 6/16/5 2/4/9 15/40/7
f 5/13/12 11/31/14 8/22/1
f 1/2/2 12/34/17 13/36/6 4/11/8
f 10/30/11 14/38/10 7/19/3
f 5/14/12 14/39/10 2/5/9 3/10/13
f 11/32/14 9/26/4 12/33/17 8/23/1
f 12/34/17 1/2/2 8/24/1
f 9/27/4 13/37/6 12/35/17
f 5/14/12 8/24/1 7/20/3 14/39/10
f 4/12/8 10/29/11 1/3/2
f 16/44/15 6/15/5 9/27/4
f 16/43/15 3/9/13 6/16/5
f 11/32/14 3/10/13 16/44/15
f 10/30/11 15/41/7 2/5/9
f 2/6/9 6/17/5 17/45/16
