# Blender 3.3.1
# www.blender.org
o Cylinder.054
v 0.021035 0.001817 -0.000903
v -0.017775 0.076497 -0.003122
v 0.036703 0.034863 -0.018581
v 0.024895 0.089305 -0.016589
v -0.002486 0.089660 0.030908
v -0.010649 0.083024 0.005106
v 0.043998 0.091563 0.001023
v 0.020320 0.089284 -0.041707
v -0.025967 0.091048 -0.037414
v 0.022215 0.091540 0.038767
v 0.004388 0.006317 0.024393
v -0.012352 -0.000357 0.007272
v -0.033515 0.031285 -0.025079
v 0.032870 0.034479 0.023243
v -0.039191 0.033702 0.017978
v -0.011325 0.001916 -0.020573
v 0.000377 0.032818 -0.040280
v -0.002780 0.035709 0.041080
v 0.001109 0.076129 -0.016905
v -0.001628 0.091683 -0.032820
v 0.003149 0.078279 0.002284
v 0.016785 0.077239 0.001619
v -0.046514 0.091059 0.002504
v -0.030336 0.090355 -0.013847
v -0.002821 0.075365 0.017448
v -0.025968 0.091048 0.037878
v 0.001146 0.085877 -0.004675
v -0.006386 0.086883 -0.000848
v 0.000183 0.089815 0.002181
vn -0.4032 -0.8821 0.2434
vn 0.5709 -0.8170 -0.0808
vn 0.1011 -0.7245 0.6818
vn -0.8147 -0.0704 -0.5756
vn 0.1150 -0.3615 -0.9253
vn 0.1076 -0.0285 -0.9938
vn -0.1210 0.9756 0.1833
vn -0.0194 0.9845 0.1743
vn -0.8561 0.4753 -0.2031
vn 0.9235 0.3656 -0.1163
vn 0.9222 0.3060 0.2364
vn 0.9190 0.1052 0.3798
vn 0.2441 0.9458 0.2142
vn -0.3078 0.4902 -0.8155
vn 0.5176 0.1010 -0.8496
vn -0.6349 0.1698 -0.7537
vn -0.9451 -0.3247 -0.0365
vn -0.9214 0.2460 0.3008
vn -0.0881 -0.3390 0.9366
vn -0.6559 0.2872 0.6981
vn 0.6572 0.3211 0.6819
vn 0.0848 0.6001 0.7954
vn -0.0982 0.0243 0.9949
vn 0.8197 -0.0056 0.5728
vn -0.9071 -0.0670 0.4155
vn 0.8795 -0.0278 -0.4751
vn 0.5655 0.8218 0.0696
vn 0.1951 0.8725 0.4479
vn -0.2425 -0.8217 -0.5158
vt 0.700436 0.527593
vt 0.632694 0.386646
vt 0.679900 0.400471
vt 0.266049 0.195143
vt 0.280897 0.077605
vt 0.431104 0.802252
vt 0.715814 0.250491
vt 0.790340 0.263565
vt 0.474823 0.774139
vt 0.349290 0.910546
vt 0.459192 0.760940
vt 0.630271 0.912854
vt 0.525282 0.909133
vt 0.323604 0.954370
vt 0.377136 0.668048
vt 0.437565 0.903364
vt 0.467118 0.928747
vt 0.456317 0.988097
vt 0.193174 0.880538
vt 0.439027 0.948319
vt 0.223419 0.899626
vt 0.682377 0.903271
vt 0.463255 0.918929
vt 0.657497 0.511555
vt 0.579313 0.386646
vt 0.437277 0.400471
vt 0.557195 0.551488
vt 0.376026 0.402560
vt 0.404534 0.409473
vt 0.247420 0.368693
vt 0.180435 0.297549
vt 0.228097 0.274460
vt 0.774775 0.411617
vt 0.789661 0.268376
vt 0.712414 0.254890
vt 0.234197 0.359161
vt 0.173573 0.249001
vt 0.242811 0.279635
vt 0.276286 0.386646
vt 0.545997 0.386646
vt 0.395804 0.400471
vt 0.434976 0.278480
vt 0.559904 0.264127
vt 0.558358 0.251413
vt 0.417264 0.264573
vt 0.445573 0.080187
vt 0.342170 0.802256
vt 0.463522 0.777072
vt 0.261614 0.918344
vt 0.508551 0.873687
vt 0.696870 0.954544
vt 0.505381 0.954175
vt 0.414087 0.599236
vt 0.464199 0.802256
vt 0.667039 0.080811
vt 0.426566 0.939236
vt 0.473281 0.901544
vt 0.370121 0.916560
vt 0.411262 0.777517
vt 0.563749 0.802256
vt 0.494277 0.081227
vt 0.490280 0.947795
vt 0.673801 0.899613
vt 0.509951 0.779662
vt 0.517009 0.601808
vt 0.340350 0.902120
vt 0.415920 0.597168
vt 0.617807 0.689652
s 1
f 12/27/1 1/1/2 11/24/3
f 13/32/4 19/46/5 17/42/6
f 6/15/7 28/67/8 24/59/9
f 4/10/10 7/16/11 22/54/12
f 7/16/11 21/50/13 22/54/12
f 19/47/5 4/10/10 22/54/12
f 20/49/14 8/19/15 19/47/5
f 24/58/9 9/21/16 2/6/17
f 6/13/7 23/57/18 2/6/17
f 25/60/19 26/63/20 2/6/17
f 26/63/20 6/13/7 2/6/17
f 22/54/12 10/22/21 25/60/19
f 21/50/13 10/22/21 22/54/12
f 10/22/21 5/12/22 25/60/19
f 25/61/19 18/44/23 14/35/24
f 14/33/24 11/24/3 1/1/2
f 2/4/17 13/30/4 15/36/25
f 3/8/26 22/55/12 14/34/24
f 8/18/15 20/48/14 4/9/10
f 28/66/8 29/68/27 21/51/13
f 27/64/28 28/66/8 21/51/13
f 21/52/13 29/68/27 6/14/7
f 6/14/7 29/68/27 28/66/8
f 6/15/7 24/59/9 23/56/18
f 6/15/7 26/62/20 5/11/22
f 28/67/8 27/65/28 20/48/14 24/59/9
f 2/6/17 23/57/18 24/58/9
f 5/11/22 10/23/21 21/53/13
f 4/9/10 20/48/14 27/65/28
f 15/37/25 13/31/4 16/39/29 12/28/1
f 6/15/7 5/11/22 21/53/13
f 21/53/13 4/9/10 27/65/28
f 1/2/2 16/40/29 17/43/6 3/7/26
f 14/35/24 18/44/23 11/25/3
f 15/38/25 18/45/23 25/61/19 2/5/17
f 16/40/29 1/2/2 12/29/1
f 13/32/4 17/42/6 16/41/29
f 22/55/12 3/7/26 17/43/6 19/46/5
f 3/8/26 14/34/24 1/3/2
f 21/53/13 7/17/11 4/9/10
f 15/38/25 12/29/1 11/26/3 18/45/23
f 8/19/15 4/10/10 19/47/5
f 20/48/14 9/20/16 24/59/9
f 2/5/17 19/46/5 13/32/4
f 5/12/22 26/63/20 25/60/19
f 14/35/24 22/55/12 25/61/19
f 20/49/14 19/47/5 2/6/17 9/21/16
