# Blender 3.3.1
# www.blender.org
o Plane.065
v -0.009870 0.004442 0.541965
v 0.029055 0.007057 0.543054
v -0.096472 0.007362 0.503870
v 0.116128 0.007214 0.506376
v 0.004647 0.061638 0.379644
v -0.109719 0.013104 0.211144
v 0.159468 0.021449 0.226241
v 0.203386 0.008898 0.251153
v -0.168876 0.009589 0.266174
v -0.179032 0.021989 0.329801
v -0.051671 0.008503 0.529371
v 0.070745 0.016691 0.532817
v -0.000225 0.000760 0.126865
v 0.014644 0.001824 0.126475
v 0.013689 0.002737 0.001549
v -0.000028 0.000656 0.000524
v 0.013948 -0.006434 0.070920
v -0.000964 -0.007478 0.070792
v -0.049702 0.006395 0.148838
v 0.018474 0.062811 0.380084
v 0.011679 0.058253 0.325258
v 0.009674 0.057636 0.266128
v 0.006782 0.011866 0.153263
v 0.008703 0.052161 0.249236
v 0.006985 0.004402 0.139469
v 0.010807 0.043573 0.427057
v 0.011650 0.028181 0.458890
v 0.082383 0.024083 0.167851
v -0.186010 0.015525 0.308679
v 0.223101 0.018932 0.298800
v -0.140718 0.042799 0.404840
v -0.128015 0.024213 0.457541
v 0.152428 0.034939 0.462851
v 0.174386 0.051130 0.402272
v 0.077004 0.015028 0.148082
v 0.180608 0.046129 0.346798
v -0.147496 0.038251 0.351936
v 0.217513 0.025188 0.319419
v 0.073512 0.010424 0.540660
v -0.019054 0.003688 0.126236
v 0.009773 0.007788 0.535394
v -0.015028 0.032003 0.462972
v -0.062913 0.077484 0.293330
v -0.053980 0.092420 0.347474
v -0.070539 0.051208 0.236255
v -0.061136 0.024209 0.183081
v -0.041828 0.075099 0.395315
v 0.061948 0.079780 0.400294
v 0.084987 0.098267 0.345227
v 0.099959 0.052157 0.223917
v 0.088829 0.088133 0.292924
v 0.035563 0.033273 0.468018
v -0.112069 0.063907 0.329224
v -0.100380 0.074502 0.373362
v -0.120282 0.051335 0.273631
v -0.114926 0.064029 0.302020
v -0.068987 0.030836 0.470329
v 0.146411 0.069278 0.293026
v 0.084697 0.025694 0.486158
v 0.153163 0.055127 0.266416
v 0.143197 0.070462 0.325187
v 0.107754 0.060818 0.434810
v 0.131385 0.080661 0.372911
v -0.051966 0.014622 0.529223
v -0.010073 0.010668 0.541589
v 0.004844 0.046558 0.222217
v -0.140961 0.049932 0.353081
v -0.097579 0.013744 0.502482
v 0.070449 0.022810 0.532669
v 0.109353 0.018488 0.501813
v -0.066835 0.031714 0.483769
v 0.017772 0.068721 0.380621
v 0.009530 0.064068 0.321613
v -0.116233 0.019301 0.217593
v 0.203311 0.015077 0.251091
v 0.158968 0.029285 0.227827
v -0.169265 0.015682 0.266110
v 0.174278 0.056913 0.348842
v -0.170420 0.034570 0.332780
v 0.013266 0.064951 0.268116
v 0.008158 0.021236 0.160486
v -0.115222 0.070148 0.301872
v 0.085143 0.032497 0.172896
v 0.014315 0.007942 0.126335
v -0.052891 0.012774 0.151030
v 0.002120 0.007084 -0.000809
v 0.013652 -0.000316 0.070772
v -0.001259 -0.001364 0.070682
v 0.000177 0.006379 0.128316
v 0.005197 0.067724 0.382033
v 0.005112 0.062872 0.275766
v 0.007446 0.063480 0.262927
v 0.035356 0.040262 0.466159
v 0.101547 0.059236 0.226557
v 0.087346 0.094407 0.290669
v 0.010602 0.034247 0.459119
v 0.011005 0.048757 0.428618
v -0.018737 0.037752 0.465228
v 0.107459 0.066936 0.434662
v 0.131090 0.086779 0.372763
v 0.152868 0.061245 0.266268
v -0.060940 0.030422 0.183072
v -0.055347 0.000785 0.536653
v 0.217108 0.031157 0.319136
v 0.222802 0.025640 0.299851
v -0.140421 0.049557 0.403955
v -0.128631 0.029801 0.457090
v 0.152688 0.041164 0.462226
v 0.173474 0.057666 0.401985
v 0.074301 0.019598 0.146104
v -0.186532 0.021557 0.309039
v 0.030588 0.013539 0.543202
v 0.033525 0.007192 0.124621
v 0.010988 0.013707 0.535091
v -0.063900 0.084983 0.297723
v -0.053469 0.098586 0.343115
v -0.071002 0.055575 0.231797
v -0.109872 0.071583 0.328532
v -0.084883 0.057261 0.426362
v -0.120389 0.056669 0.271383
v -0.101940 0.079750 0.375932
v -0.034598 0.081455 0.392962
v 0.060773 0.084696 0.402581
v 0.083578 0.104909 0.340543
v 0.146116 0.075396 0.292878
v 0.084401 0.031812 0.486010
v 0.143173 0.076497 0.325323
vn 0.0382 -0.9246 0.3790
vn -0.1661 -0.8620 0.4789
vn -0.0111 -0.9683 0.2494
vn 0.0455 -0.8924 0.4490
vn -0.1704 -0.8738 0.4554
vn -0.3730 -0.9208 -0.1143
vn -0.6735 -0.7391 0.0109
vn 0.4274 -0.8997 -0.0892
vn -0.2913 -0.9268 -0.2369
vn -0.4857 -0.8124 -0.3225
vn 0.2655 -0.8255 0.4981
vn 0.1089 -0.8933 -0.4361
vn -0.1068 -0.9151 -0.3889
vn 0.1642 -0.8402 -0.5167
vn -0.1678 -0.9665 -0.1944
vn 0.0413 -0.9977 0.0544
vn 0.2896 -0.9423 -0.1680
vn 0.0570 -0.9686 0.2419
vn 0.0595 -0.9648 0.2561
vn 0.0685 -0.9335 0.3520
vn 0.4379 -0.8098 -0.3905
vn -0.4837 -0.6890 0.5398
vn 0.4306 -0.1803 -0.8843
vn 0.5516 -0.7173 0.4257
vn 0.4464 -0.5143 0.7322
vn -0.1389 -0.8909 -0.4325
vn -0.3494 -0.1574 -0.9236
vn -0.1025 -0.9296 -0.3541
vn 0.3879 -0.9057 -0.1710
vn -0.0251 -0.9994 -0.0234
vn 0.0604 -0.7577 0.6498
vn 0.1894 -0.8725 0.4503
vn 0.1807 -0.9080 -0.3781
vn -0.0444 -0.7704 0.6360
vn -0.4839 -0.8204 0.3046
vn 0.4513 -0.8119 0.3704
vn -0.1009 -0.8969 -0.4305
vn -0.0840 0.9288 0.3610
vn -0.2003 0.9044 0.3768
vn -0.0598 0.9095 0.4114
vn -0.3580 0.9311 0.0697
vn -0.0396 0.9668 -0.2523
vn 0.0697 0.9975 -0.0112
vn -0.0714 0.6789 0.7308
vn -0.0514 0.9074 -0.4170
vn 0.1917 0.8507 -0.4895
vn -0.2641 0.8327 -0.4866
vn 0.6932 0.7205 -0.0206
vn 0.8310 -0.0527 -0.5538
vn -0.3510 0.5980 -0.7205
vn -0.6288 0.4085 -0.6616
vn -0.2593 0.8296 -0.4946
vn -0.5003 0.4874 -0.7156
vn 0.0835 0.9178 0.3881
vn -0.1208 0.8961 0.4271
vn -0.2151 0.7535 0.6213
vn 0.1400 0.8522 -0.5041
vn -0.7392 0.6735 -0.0078
vn -0.2809 0.9450 0.1673
vn -0.0314 0.9966 -0.0767
vn 0.1865 0.9617 0.2007
vn 0.0104 0.9665 -0.2565
vn -0.0236 0.9148 -0.4032
vn 0.1673 0.8632 -0.4763
vn 0.6752 0.7342 0.0711
vn 0.7755 0.5788 0.2520
vn 0.2005 -0.7508 0.6294
vn -0.6081 0.4608 0.6464
vn -0.2803 -0.7357 0.6166
vn 0.4836 0.6871 -0.5422
vn 0.7361 0.3632 -0.5711
vn 0.3434 0.5268 -0.7775
vn -0.9308 0.3546 -0.0886
vn -0.4576 -0.5459 0.7019
vn -0.7014 0.6302 0.3329
vn -0.0611 0.9658 -0.2519
vn -0.4164 0.8992 -0.1343
vn -0.4570 0.8893 -0.0187
vn 0.0766 0.5547 0.8285
vn -0.1948 0.8701 -0.4528
vn 0.1831 0.8444 0.5034
vn 0.0968 0.9003 0.4244
vn 0.3606 0.7132 0.6011
vn -0.0860 0.4139 0.9062
vn 0.0680 -0.8585 0.5083
vn 0.6614 -0.7492 0.0355
vn 0.4030 -0.6847 0.6072
vn 0.8963 0.4207 -0.1401
vn 0.8071 0.4852 0.3363
vn 0.7252 -0.6885 0.0042
vn -0.5496 -0.8184 0.1679
vn 0.0766 -0.9257 -0.3705
vn 0.0613 -0.9134 -0.4024
vn -0.4156 -0.8832 -0.2173
vn -0.6466 -0.7590 -0.0768
vn -0.1924 -0.7681 0.6107
vn 0.4665 -0.8844 0.0135
vn -0.6525 -0.7570 0.0347
vn 0.4066 -0.9060 0.1179
vn -0.6195 -0.5940 -0.5132
vn 0.0331 -0.9989 -0.0325
vn 0.1983 -0.9242 -0.3262
vn 0.4215 -0.8699 -0.2562
vn -0.1169 -0.8734 -0.4727
vn -0.3621 -0.9198 -0.1508
vn -0.4599 -0.8874 0.0306
vn -0.4389 -0.8070 0.3952
vn -0.4131 -0.8945 0.1711
vn 0.6890 -0.7158 0.1140
vn 0.6017 -0.7875 0.1334
vn -0.2003 0.9213 0.3334
vn -0.7663 0.3327 -0.5497
vn -0.4518 0.8103 -0.3733
vn -0.6868 0.7188 0.1076
vn -0.7883 0.5579 0.2595
vn -0.3736 0.9091 0.1841
vn -0.7381 0.4782 0.4759
vn -0.1638 0.8797 0.4465
vn -0.0361 0.9991 0.0203
vn 0.0329 0.9994 0.0121
vn 0.1623 0.9302 0.3293
vn 0.6335 0.5290 0.5646
vn 0.1149 0.8757 0.4690
vn 0.3567 0.9218 0.1518
vn 0.4607 0.8868 -0.0361
vn 0.4408 0.8070 -0.3930
vn 0.4141 0.8939 -0.1714
vt 0.606570 0.381586
vt 0.588447 0.392825
vt 0.363862 0.156960
vt 0.276382 0.167419
vt 0.353870 0.157417
vt 0.271468 0.170135
vt 0.345918 0.308731
vt 0.249977 0.436338
vt 0.248428 0.435042
vt 0.745846 0.254066
vt 0.270844 0.164841
vt 0.655270 0.282852
vt 0.744424 0.260200
vt 0.706598 0.186665
vt 0.771958 0.125125
vt 0.768570 0.125208
vt 0.703830 0.188484
vt 0.731880 0.149328
vt 0.731880 0.124428
vt 0.141667 0.167135
vt 0.167225 0.227886
vt 0.154524 0.235759
vt 0.114227 0.168464
vt 0.303764 0.482188
vt 0.699825 0.309815
vt 0.313869 0.309820
vt 0.283841 0.494537
vt 0.140180 0.309626
vt 0.816842 0.309303
vt 0.235994 0.309833
vt 0.777687 0.309815
vt 0.791894 0.394725
vt 0.229965 0.448736
vt 0.679252 0.308848
vt 0.228403 0.447448
vt 0.468475 0.308731
vt 0.240331 0.457269
vt 0.260240 0.444935
vt 0.241701 0.458501
vt 0.261601 0.446172
vt 0.272582 0.454659
vt 0.250092 0.466049
vt 0.252820 0.466899
vt 0.269938 0.453753
vt 0.273826 0.489211
vt 0.293674 0.476914
vt 0.258096 0.469335
vt 0.277719 0.457177
vt 0.279272 0.493410
vt 0.367808 0.307343
vt 0.299963 0.480588
vt 0.214413 0.438935
vt 0.449814 0.308327
vt 0.216084 0.439744
vt 0.236338 0.427196
vt 0.234706 0.426361
vt 0.205510 0.434622
vt 0.204462 0.434042
vt 0.224996 0.421317
vt 0.226024 0.421913
vt 0.767469 0.401377
vt 0.751224 0.143789
vt 0.840650 0.123165
vt 0.848267 0.122983
vt 0.757619 0.139789
vt 0.625206 0.163936
vt 0.609564 0.202940
vt 0.556816 0.217508
vt 0.545587 0.166321
vt 0.553798 0.219451
vt 0.538929 0.166649
vt 0.608911 0.203363
vt 0.623760 0.164007
vt 0.783446 0.396560
vt 0.645780 0.196063
vt 0.645780 0.128112
vt 0.645673 0.128120
vt 0.645673 0.196163
vt 0.736210 0.124212
vt 0.736210 0.146583
vt 0.162197 0.227824
vt 0.136825 0.167112
vt 0.349834 0.454033
vt 0.185265 0.422823
vt 0.620367 0.398003
vt 0.708231 0.397930
vt 0.705139 0.397932
vt 0.681462 0.397952
vt 0.684035 0.397950
vt 0.737981 0.397905
vt 0.731922 0.397910
vt 0.769032 0.397879
vt 0.766800 0.397882
vt 0.652428 0.395752
vt 0.654835 0.394943
vt 0.639760 0.406685
vt 0.642810 0.406549
vt 0.669387 0.405364
vt 0.672116 0.405243
vt 0.723563 0.402948
vt 0.731709 0.402584
vt 0.694845 0.404227
vt 0.698784 0.404053
vt 0.603881 0.408285
vt 0.657515 0.236550
vt 0.655647 0.283175
vt 0.629632 0.268823
vt 0.633080 0.295101
vt 0.766056 0.287574
vt 0.728916 0.299087
vt 0.710494 0.282053
vt 0.710494 0.299154
vt 0.434122 0.239211
vt 0.386966 0.250423
vt 0.707062 0.293258
vt 0.707062 0.308091
vt 0.421017 0.245726
vt 0.380520 0.259305
vt 0.762085 0.296457
vt 0.726303 0.305948
vt 0.654919 0.293506
vt 0.656940 0.250522
vt 0.567446 0.278177
vt 0.585235 0.311971
vt 0.626155 0.279764
vt 0.630057 0.304717
vt 0.141667 0.167135
vt 0.167225 0.227886
vt 0.606558 0.381673
vt 0.265875 0.477452
vt 0.285499 0.465296
vt 0.264274 0.474885
vt 0.283857 0.462752
vt 0.623778 0.209280
vt 0.623778 0.129154
vt 0.362619 0.157028
vt 0.275886 0.167817
vt 0.154524 0.235759
vt 0.114227 0.168464
vt 0.320031 0.159246
vt 0.257863 0.180916
vt 0.434122 0.239211
vt 0.386966 0.250423
vt 0.228403 0.447448
vt 0.679207 0.308527
vt 0.229965 0.448736
vt 0.240331 0.457269
vt 0.260240 0.444935
vt 0.241701 0.458501
vt 0.531035 0.308554
vt 0.261601 0.446172
vt 0.745846 0.254066
vt 0.383270 0.189062
vt 0.706633 0.186646
vt 0.771996 0.125124
vt 0.704140 0.296623
vt 0.744424 0.260200
vt 0.768641 0.125206
vt 0.703894 0.188449
vt 0.624407 0.208890
vt 0.624407 0.129123
vt 0.703752 0.165907
vt 0.703752 0.125735
vt 0.252820 0.466899
vt 0.250092 0.466049
vt 0.527477 0.307971
vt 0.276240 0.490874
vt 0.271004 0.485613
vt 0.296102 0.478572
vt 0.290443 0.472985
vt 0.710494 0.282053
vt 0.710494 0.299154
vt 0.765041 0.401251
vt 0.313869 0.309807
vt 0.283841 0.494537
vt 0.790698 0.395087
vt 0.640557 0.308845
vt 0.235994 0.309833
vt 0.777647 0.309815
vt 0.279272 0.493410
vt 0.303295 0.481990
vt 0.666254 0.309543
vt 0.331739 0.308783
vt 0.249977 0.436338
vt 0.248428 0.435042
vt 0.478344 0.309153
vt 0.269938 0.453753
vt 0.496629 0.309170
vt 0.256745 0.468122
vt 0.274119 0.455185
vt 0.605623 0.408208
vt 0.723563 0.402948
vt 0.731146 0.402610
vt 0.694845 0.404227
vt 0.699087 0.404040
vt 0.205510 0.434622
vt 0.204462 0.434042
vt 0.226024 0.421913
vt 0.224996 0.421317
vt 0.214413 0.438935
vt 0.234706 0.426361
vt 0.216084 0.439744
vt 0.515659 0.308067
vt 0.236338 0.427196
vt 0.620955 0.398003
vt 0.567446 0.278177
vt 0.585235 0.311971
vt 0.626155 0.279764
vt 0.630057 0.304717
vt 0.762085 0.296457
vt 0.726303 0.305948
vt 0.769032 0.397879
vt 0.766800 0.397882
vt 0.163237 0.165833
vt 0.174423 0.220246
vt 0.736310 0.146524
vt 0.736310 0.124207
vt 0.846336 0.123028
vt 0.755931 0.140768
vt 0.620942 0.164145
vt 0.607623 0.204181
vt 0.557647 0.216927
vt 0.547507 0.166223
vt 0.554219 0.219158
vt 0.539898 0.166600
vt 0.607332 0.204370
vt 0.620296 0.164178
vt 0.796125 0.403130
vt 0.751388 0.143695
vt 0.840837 0.123161
vt 0.588467 0.392706
vt 0.332460 0.464802
vt 0.186019 0.422837
vt 0.472388 0.318619
vt 0.707832 0.397931
vt 0.705139 0.397932
vt 0.681462 0.397952
vt 0.684035 0.397950
vt 0.740756 0.397903
vt 0.731922 0.397910
vt 0.657515 0.236550
vt 0.655647 0.283175
vt 0.574291 0.269358
vt 0.591120 0.303584
vt 0.766056 0.287574
vt 0.728916 0.299087
vt 0.629632 0.268823
vt 0.633080 0.295101
vt 0.656777 0.397972
vt 0.653907 0.397975
vt 0.639760 0.406685
vt 0.642810 0.406549
vt 0.669387 0.405364
vt 0.672116 0.405243
vt 0.707062 0.293258
vt 0.707062 0.308091
vt 0.421017 0.245726
vt 0.380520 0.259305
vt 0.654919 0.293506
vt 0.656940 0.250522
s 1
f 24/47/1 50/100/2 51/103/3
f 23/45/4 28/61/5 50/101/2
f 13/25/6 18/31/7 14/26/8
f 6/11/9 19/32/10 46/92/11
f 57/113/12 42/85/13 11/20/14
f 5/7/15 21/36/16 20/34/17
f 22/41/18 43/86/19 24/48/1
f 19/32/10 13/24/6 25/51/20
f 25/49/20 14/27/8 28/61/5
f 28/61/5 35/74/21 7/12/22
f 14/27/8 113/232/23 28/61/5
f 4/5/24 39/82/25 12/23/26
f 113/232/23 35/74/21 28/61/5
f 40/83/27 13/24/6 19/32/10
f 47/95/28 54/107/29 44/88/30
f 42/85/13 1/1/31 11/21/14
f 46/93/11 23/46/4 45/90/32
f 45/91/32 24/48/1 43/86/19
f 7/12/22 50/101/2 28/61/5
f 52/104/33 12/22/26 2/2/34
f 57/113/12 11/20/14 3/3/35
f 6/10/9 45/90/32 55/109/36
f 47/94/28 42/85/13 57/114/12
f 59/117/37 4/5/24 12/23/26
f 96/196/38 93/191/39 97/200/40
f 80/166/41 92/188/42 91/186/43
f 114/233/44 93/191/39 96/197/38
f 81/167/45 83/173/46 89/180/47
f 87/178/48 15/28/49 86/177/50
f 74/153/51 102/212/52 85/176/53
f 98/205/54 71/142/55 64/127/56
f 84/174/57 87/178/48 88/179/58
f 72/145/59 73/150/60 90/183/61
f 80/164/41 95/195/62 92/189/42
f 66/130/63 94/193/64 81/168/45
f 89/180/47 83/173/46 84/175/57
f 84/175/57 83/173/46 113/232/23
f 78/160/65 109/226/66 36/75/67
f 64/127/56 68/136/68 103/214/69
f 76/156/70 75/154/71 110/228/72
f 111/229/73 10/18/74 79/162/75
f 113/232/23 83/173/46 110/228/72
f 40/83/27 85/176/53 89/181/47
f 115/235/76 82/171/77 118/241/78
f 98/205/54 96/198/38 97/201/40
f 98/205/54 64/128/56 65/129/79
f 117/239/80 66/131/63 81/170/45
f 115/234/76 91/186/43 92/188/42
f 94/193/64 76/156/70 83/173/46
f 93/191/39 114/233/44 69/138/81
f 71/142/55 68/136/68 64/127/56
f 74/153/51 117/239/80 102/213/52
f 126/257/82 69/139/81 70/140/83
f 2/2/34 39/81/25 112/231/84
f 41/84/85 112/231/84 114/233/44
f 40/83/27 89/181/47 13/24/6
f 35/74/21 113/232/23 110/228/72
f 41/84/85 65/129/79 1/1/31
f 34/72/86 36/75/67 109/226/66
f 38/80/87 105/219/88 104/216/89
f 15/28/49 87/178/48 17/30/90
f 10/18/74 111/229/73 29/62/91
f 3/3/35 103/214/69 68/136/68
f 27/57/92 26/52/93 52/104/33
f 52/104/33 2/2/34 41/84/85 27/58/92
f 41/84/85 1/1/31 42/85/13 27/59/92
f 23/45/4 25/49/20 28/61/5
f 13/25/6 14/26/8 25/50/20
f 55/109/36 29/63/91 9/16/94 6/10/9
f 54/108/29 31/67/95 37/78/96 53/106/97
f 57/114/12 3/4/35 32/68/98 47/94/28
f 56/112/99 10/18/74 29/62/91 55/110/36
f 15/28/49 17/30/90 18/31/7 16/29/100
f 14/26/8 18/31/7 17/30/90
f 49/98/101 48/97/102 20/33/17 21/37/16
f 26/53/93 5/7/15 20/34/17
f 44/88/30 21/38/16 5/8/15 47/95/28
f 48/96/102 52/104/33 26/54/93 20/35/17
f 51/102/3 49/99/101 21/39/16 22/42/18
f 23/46/4 46/92/11 19/32/10 25/51/20
f 22/43/18 24/47/1 51/103/3
f 24/47/1 23/45/4 50/101/2
f 11/20/14 103/214/69 3/3/35
f 12/22/26 39/81/25 2/2/34
f 1/1/31 103/215/69 11/21/14
f 7/12/22 35/74/21 8/14/103
f 21/40/16 44/89/30 43/87/19 22/44/18
f 43/86/19 53/105/97 56/111/99
f 26/55/93 42/85/13 47/95/28 5/9/15
f 42/85/13 26/56/93 27/60/92
f 45/90/32 23/46/4 24/48/1
f 52/104/33 48/96/102 62/124/104 59/118/37
f 48/97/102 49/98/101 63/125/105 62/123/104
f 49/99/101 51/102/3 61/121/106 63/126/105
f 51/103/3 50/100/2 60/120/107 58/116/108
f 7/13/22 60/119/107 50/101/2
f 59/117/37 12/23/26 52/104/33
f 58/115/108 61/122/106 51/103/3
f 56/111/99 53/105/97 37/77/96 10/19/74
f 6/11/9 46/93/11 45/90/32
f 31/66/95 54/107/29 47/95/28 32/69/98
f 43/86/19 56/112/99 55/110/36 45/91/32
f 44/89/30 54/108/29 53/106/97 43/87/19
f 62/123/104 63/125/105 34/73/86 33/71/109
f 63/126/105 61/121/106 36/75/67 34/72/86
f 36/76/67 61/122/106 58/115/108 38/79/87
f 59/118/37 62/124/104 33/70/109 4/6/24
f 60/119/107 7/13/22 8/15/103 30/64/110
f 58/116/108 60/120/107 30/65/110 38/80/87
f 94/192/64 66/132/63 92/189/42 95/195/62
f 123/251/111 72/144/59 97/202/40 93/191/39
f 97/203/40 72/145/59 90/183/61
f 98/205/54 65/129/79 114/233/44 96/199/38
f 81/168/45 94/193/64 83/173/46
f 89/182/47 84/174/57 88/179/58
f 77/158/112 111/230/73 120/245/113 74/152/51
f 67/134/114 106/221/115 121/248/116 118/242/78
f 107/222/117 68/137/68 71/143/55 119/244/118
f 111/229/73 79/162/75 82/172/77 120/246/113
f 124/253/119 73/147/60 72/146/59 123/252/111
f 88/179/58 87/178/48 86/177/50
f 116/237/120 122/249/121 90/184/61 73/148/60
f 95/194/62 80/165/41 73/149/60 124/254/119
f 73/150/60 80/166/41 91/186/43
f 112/231/84 39/81/25 69/138/81 114/233/44
f 83/173/46 76/156/70 110/228/72
f 70/141/83 4/6/24 108/224/122
f 37/77/96 67/135/114 79/163/75 10/19/74
f 39/82/25 4/5/24 70/140/83 69/139/81
f 67/134/114 37/78/96 106/221/115
f 104/217/89 78/161/65 36/76/67
f 64/128/56 103/215/69 65/129/79
f 121/247/116 119/243/118 122/249/121 116/237/120
f 81/169/45 89/181/47 85/176/53 102/212/52
f 73/151/60 91/187/43 115/236/76 116/238/120
f 97/204/40 90/185/61 122/250/121 98/205/54
f 102/213/52 117/239/80 81/170/45
f 92/190/42 66/133/63 117/240/80 115/235/76
f 99/207/123 123/251/111 93/191/39 126/258/82
f 100/208/124 124/253/119 123/252/111 99/206/123
f 127/259/125 95/194/62 124/254/119 100/209/124
f 101/211/126 94/192/64 95/195/62 125/256/127
f 94/193/64 101/210/126 76/157/70
f 93/191/39 69/139/81 126/257/82
f 95/195/62 127/260/125 125/255/127
f 67/135/114 118/241/78 82/171/77 79/163/75
f 74/152/51 120/245/113 117/239/80
f 106/220/115 107/223/117 119/243/118 121/247/116
f 98/205/54 122/250/121 119/244/118 71/143/55
f 115/235/76 117/240/80 120/246/113 82/172/77
f 116/238/120 115/236/76 118/242/78 121/248/116
f 109/227/66 100/208/124 99/206/123 108/225/122
f 78/160/65 127/259/125 100/209/124 109/226/66
f 78/161/65 104/217/89 125/255/127 127/260/125
f 108/224/122 99/207/123 126/258/82 70/141/83
f 75/155/71 76/157/70 101/210/126 105/218/88
f 105/219/88 101/211/126 125/256/127 104/216/89
f 68/137/68 107/222/117 32/68/98 3/4/35
f 41/84/85 2/2/34 112/231/84
f 87/178/48 84/174/57 14/26/8 17/30/90
f 113/232/23 14/27/8 84/175/57
f 88/179/58 86/177/50 16/29/100 18/31/7
f 33/70/109 108/224/122 4/6/24
f 85/176/53 19/32/10 6/11/9 74/153/51
f 108/225/122 33/71/109 34/73/86 109/227/66
f 75/154/71 8/14/103 35/74/21 110/228/72
f 19/32/10 85/176/53 40/83/27
f 77/158/112 9/16/94 29/63/91 111/230/73
f 41/84/85 114/233/44 65/129/79
f 75/155/71 105/218/88 30/64/110 8/15/103
f 77/159/112 74/153/51 6/11/9 9/17/94
f 107/223/117 106/220/115 31/66/95 32/69/98
f 1/1/31 65/129/79 103/215/69
f 15/28/49 16/29/100 86/177/50
f 36/76/67 38/79/87 104/217/89
f 38/80/87 30/65/110 105/219/88
f 31/67/95 106/221/115 37/78/96
f 88/179/58 18/31/7 13/25/6 89/182/47
