# Blender 3.3.1
# www.blender.org
o Cylinder.053
v -0.003388 0.004940 -0.024716
v 0.020701 0.006043 -0.010980
v 0.021727 0.004109 0.008107
v 0.003809 0.077663 0.008469
v -0.010590 0.077900 0.002322
v -0.000246 0.068882 -0.021450
v 0.021814 0.064407 -0.012837
v 0.028740 0.025121 -0.021132
v 0.034921 0.040992 0.014778
v 0.007731 0.042296 0.037828
v -0.030064 0.040503 0.025759
v -0.028652 0.022141 0.025517
v 0.004108 0.078095 -0.008525
v -0.018034 0.070882 0.008296
v 0.025892 0.025306 0.026702
v 0.011015 0.006479 0.022931
v -0.037195 0.025269 0.009212
v -0.020967 0.004885 0.015083
v -0.034027 0.024467 -0.014694
v 0.008473 0.025306 -0.036197
v -0.005259 0.004707 0.022933
v -0.001961 0.025048 0.037917
v 0.034985 0.021592 -0.012785
v 0.027088 0.041481 0.027638
v -0.039425 0.042150 0.000181
v 0.033536 0.023169 0.014901
v -0.030768 0.021594 -0.023926
v -0.021511 0.006013 -0.012833
v -0.004976 0.023379 -0.037068
v -0.000839 0.043817 -0.038064
v 0.036168 0.040162 -0.012793
v -0.009169 0.039331 0.038785
v -0.031393 0.040157 -0.024958
v 0.006631 0.074231 -0.016583
v 0.016276 0.072481 -0.003874
v 0.014844 0.073095 0.008792
v -0.019240 0.074341 0.001460
v -0.013072 0.073398 -0.013149
v -0.000919 -0.000999 0.000332
v 0.027234 0.041470 -0.026994
v -0.005269 0.070538 -0.017261
v -0.023963 0.063785 -0.012933
v -0.000948 0.070154 0.000231
v -0.004682 0.071754 0.018935
v 0.004071 0.072447 0.017196
vn 0.1060 0.9855 -0.1325
vn 0.6457 0.7505 -0.1407
vn 0.5056 0.4444 -0.7395
vn -0.1374 0.9850 0.1043
vn -0.9618 0.2676 -0.0574
vn -0.1506 0.7276 0.6693
vn -0.4249 0.7245 -0.5427
vn -0.0058 -0.9999 -0.0125
vn 0.5353 -0.8242 0.1845
vn 0.2971 -0.7503 0.5906
vn -0.1012 -0.8090 0.5790
vn 0.9297 0.2346 0.2841
vn 0.5992 0.7448 0.2937
vn 0.6447 0.2249 0.7306
vn 0.2450 0.2443 0.9382
vn -0.2785 0.1867 0.9421
vn 0.9494 0.2017 -0.2408
vn 0.6462 -0.3418 -0.6824
vn 0.6488 0.1979 -0.7348
vn -0.6659 0.6350 0.3915
vn -0.6729 0.6133 -0.4137
vn -0.0118 0.6335 -0.7736
vn 0.6749 0.6387 -0.3697
vn 0.3363 -0.2944 -0.8946
vn -0.7384 0.2549 0.6244
vn -0.9745 0.2234 0.0226
vn -0.0350 0.2943 -0.9551
vn -0.1693 -0.3015 -0.9383
vn -0.7208 0.2179 -0.6580
vn -0.9282 -0.3221 -0.1864
vn -0.7254 -0.3572 -0.5884
vn 0.8709 -0.3715 -0.3218
vn 0.4849 -0.7986 -0.3565
vn -0.2764 0.5968 -0.7533
vn -0.0079 -0.8048 -0.5935
vn -0.5371 -0.8050 -0.2520
vn -0.5077 -0.7985 0.3234
vn -0.0029 -0.3432 0.9393
vn -0.6801 -0.3372 0.6510
vn 0.0821 0.9846 0.1545
vn 0.2484 0.7387 0.6266
vn 0.0089 0.9981 0.0605
vn 0.6134 -0.3159 0.7239
vn 0.8822 -0.3366 0.3293
vn -0.9360 -0.3084 0.1698
vt 0.545997 0.386646
vt 0.489759 0.524913
vt 0.444852 0.400471
vt 0.679900 0.400471
vt 0.682708 0.521433
vt 0.632694 0.386646
vt 0.700436 0.527593
vt 0.679900 0.400471
vt 0.667332 0.037131
vt 0.370256 0.081230
vt 0.694901 0.076548
vt 0.168228 0.037131
vt 0.197372 0.070711
vt 0.686108 0.311293
vt 0.518331 0.114808
vt 0.749858 0.195143
vt 0.725055 0.134293
vt 0.753982 0.405183
vt 0.712496 0.297549
vt 0.810673 0.311838
vt 0.795133 0.229607
vt 0.580376 0.301929
vt 0.559142 0.219447
vt 0.259255 0.313918
vt 0.235867 0.229607
vt 0.270737 0.421759
vt 0.247725 0.315039
vt 0.639659 0.037131
vt 0.386961 0.073478
vt 0.266049 0.195143
vt 0.133043 0.311293
vt 0.276591 0.083762
vt 0.707171 0.297549
vt 0.736593 0.399841
vt 0.579313 0.386646
vt 0.657497 0.511555
vt 0.565274 0.511555
vt 0.180403 0.297520
vt 0.205238 0.399841
vt 0.344850 0.524588
vt 0.276286 0.386646
vt 0.333299 0.400471
vt 0.232516 0.405812
vt 0.180435 0.297549
vt 0.581324 0.399841
vt 0.561027 0.297549
vt 0.474022 0.525664
vt 0.437277 0.400471
vt 0.557226 0.297549
vt 0.500602 0.412545
vt 0.420421 0.315039
vt 0.807879 0.421771
vt 0.783076 0.315039
vt 0.745701 0.301913
vt 0.716770 0.219447
vt 0.194215 0.301913
vt 0.169412 0.219445
vt 0.795726 0.418079
vt 0.783076 0.315039
vt 0.255661 0.421771
vt 0.233181 0.315039
vt 0.323189 0.400471
vt 0.337687 0.521565
vt 0.276286 0.386646
vt 0.475815 0.417741
vt 0.435518 0.315039
vt 0.512083 0.307785
vt 0.434251 0.229607
vt 0.558403 0.219447
vt 0.819547 0.314534
vt 0.795133 0.229607
vt 0.443254 0.314652
vt 0.415077 0.229607
vt 0.244748 0.314465
vt 0.222478 0.229607
vt 0.645448 0.174212
vt 0.863393 0.256213
vt 0.684667 0.076552
vt 0.749858 0.195143
vt 0.858683 0.219507
vt 0.685760 0.078115
vt 0.151858 0.164690
vt 0.282774 0.074921
vt 0.252907 0.192315
vt 0.557195 0.551488
vt 0.507954 0.551488
vt 0.484136 0.418494
vt 0.746440 0.301913
vt 0.718003 0.219447
vt 0.419199 0.311293
vt 0.437743 0.076476
vt 0.266049 0.195143
vt 0.241255 0.134282
vt 0.478622 0.265660
vt 0.507954 0.195143
vt 0.415756 0.095006
vt 0.323850 0.210752
vt 0.609146 0.259518
vt 0.530121 0.076566
s 1
f 13/28/1 35/77/2 34/76/3
f 5/13/4 37/82/5 44/97/6
f 5/12/4 38/84/7 37/82/5
f 13/28/1 34/76/3 38/84/7
f 39/85/8 3/7/9 16/36/10
f 21/47/11 39/86/8 16/37/10
f 9/20/12 36/79/13 24/54/14
f 10/22/15 44/95/6 32/72/16
f 31/70/17 8/18/18 40/88/19
f 14/32/20 38/83/7 42/93/21
f 6/15/22 35/78/2 7/17/23
f 40/89/19 8/19/18 20/46/24
f 11/24/25 14/30/20 25/56/26
f 30/67/27 20/45/24 29/65/28
f 42/92/21 33/74/29 25/56/26
f 33/74/29 19/43/30 25/56/26
f 7/16/23 31/70/17 40/88/19
f 19/43/30 33/74/29 27/60/31
f 8/18/18 31/70/17 23/52/32
f 34/76/3 35/77/2 6/14/22
f 3/8/9 39/87/8 2/4/33
f 2/4/33 23/53/32 3/8/9
f 41/90/34 34/76/3 6/14/22
f 30/69/27 6/15/22 40/89/19
f 1/3/35 39/87/8 28/62/36
f 28/62/36 27/61/31 1/3/35
f 38/83/7 41/91/34 42/93/21
f 18/42/37 39/87/8 21/48/11
f 22/51/38 32/73/16 12/27/39
f 36/80/13 4/9/40 45/98/41
f 4/10/40 43/94/42 5/11/4
f 5/11/4 43/94/42 13/29/1
f 36/80/13 35/77/2 13/28/1 4/9/40
f 29/66/28 27/61/31 33/75/29 30/68/27
f 6/15/22 30/68/27 33/75/29 41/91/34
f 15/34/43 26/58/44 9/20/12 24/54/14
f 17/38/45 19/44/30 28/64/36 18/41/37
f 8/18/18 23/52/32 2/5/33
f 22/50/38 10/22/15 32/72/16
f 12/26/39 17/39/45 18/40/37
f 19/43/30 27/60/31 28/63/36
f 22/49/38 15/33/43 24/55/14 10/23/15
f 19/44/30 17/38/45 25/57/26
f 15/33/43 22/49/38 16/35/10
f 10/23/15 24/55/14 45/99/41 44/96/6
f 2/6/33 1/1/35 20/46/24 8/19/18
f 17/39/45 12/26/39 11/24/25 25/56/26
f 6/15/22 7/17/23 40/89/19
f 18/41/37 28/64/36 39/87/8
f 1/1/35 2/6/33 39/87/8
f 29/65/28 20/45/24 1/2/35
f 16/36/10 3/7/9 26/58/44 15/34/43
f 11/25/25 32/73/16 44/96/6 14/32/20
f 27/61/31 29/66/28 1/3/35
f 22/50/38 21/47/11 16/37/10
f 32/73/16 11/25/25 12/27/39
f 26/59/44 23/53/32 31/71/17 9/21/12
f 23/53/32 26/59/44 3/8/9
f 36/81/13 9/21/12 31/71/17 35/78/2
f 12/27/39 18/42/37 21/48/11 22/51/38
f 38/84/7 34/76/3 41/90/34
f 38/84/7 14/31/20 37/82/5
f 44/97/6 37/82/5 14/31/20
f 7/17/23 35/78/2 31/71/17
f 20/46/24 30/69/27 40/89/19
f 42/93/21 41/91/34 33/75/29
f 38/84/7 5/12/4 13/28/1
f 25/57/26 14/32/20 42/93/21
f 5/13/4 44/97/6 45/98/41 4/9/40
f 24/55/14 36/81/13 45/99/41
f 4/10/40 13/29/1 43/94/42
