# Blender 3.3.1
# www.blender.org
o Cylinder.004
v -0.232841 0.014259 0.123749
v -0.213727 0.005088 0.136452
v -0.210699 0.108117 0.124879
v -0.198127 0.014638 0.154184
v -0.185583 0.101520 0.147236
v -0.209345 0.014638 0.217803
v -0.200310 0.102768 0.227677
v -0.230069 0.005088 0.229130
v -0.221386 0.108258 0.237544
v -0.252375 0.014259 0.234530
v -0.254462 0.100428 0.248135
v -0.301825 0.014753 0.192998
v -0.316101 0.103734 0.194266
v -0.302159 0.004955 0.168639
v -0.314326 0.107971 0.174011
v -0.293514 0.014753 0.145864
v -0.307313 0.102732 0.139668
v -0.226952 0.034056 0.100932
v -0.230868 0.101943 0.111245
v -0.194523 0.064815 0.113519
v -0.198902 0.029074 0.118737
v -0.176648 0.034654 0.144017
v -0.183572 0.064372 0.242618
v -0.192639 0.034654 0.234703
v -0.219867 0.064815 0.257248
v -0.222197 0.029074 0.250847
v -0.257074 0.063616 0.269344
v -0.254644 0.034056 0.257985
v -0.337151 0.065137 0.202204
v -0.325136 0.035212 0.198782
v -0.331668 0.064815 0.163436
v -0.324960 0.029074 0.164618
v -0.313441 0.035212 0.132455
v -0.248669 0.127159 0.162429
v -0.231177 0.127679 0.174867
v -0.235079 0.127120 0.185942
v -0.254666 0.127669 0.194828
v -0.249574 0.136774 0.180387
v -0.246234 0.136775 0.177655
v -0.250270 0.136774 0.176165
v -0.248016 0.008269 0.178186
v -0.229672 0.107964 0.105880
v -0.167695 0.028520 0.139784
v -0.191302 0.126530 0.188186
v -0.180084 0.107323 0.145233
v -0.185673 0.028520 0.241743
v -0.255385 0.027847 0.267918
v -0.287323 0.126570 0.221710
v -0.255487 0.106381 0.253553
v -0.334639 0.029147 0.201356
v -0.321490 0.029147 0.126786
v -0.270066 0.126570 0.123842
v -0.312148 0.108344 0.135721
v -0.224250 0.027847 0.091344
v -0.225350 0.063616 0.089427
v -0.165421 0.064372 0.139681
v -0.196107 0.108750 0.231601
v -0.307899 0.117194 0.192503
v -0.328970 0.100528 0.198391
v -0.323561 0.065137 0.125130
v -0.276799 0.020492 0.097365
v -0.280945 0.064510 0.089429
v -0.276915 0.106616 0.103543
v -0.304200 0.018945 0.241069
v -0.309315 0.064510 0.250328
v -0.300702 0.106616 0.238442
v -0.166540 0.019013 0.195915
v -0.155792 0.064510 0.194447
v -0.170210 0.106589 0.191905
v -0.260214 0.127690 0.164502
v -0.262378 0.127081 0.185952
v -0.250630 0.143082 0.180385
v -0.245707 0.143082 0.178593
v -0.249720 0.143082 0.175226
vn -0.8076 0.4113 0.4226
vn -0.2196 0.9380 -0.2682
vn -0.8460 0.5208 0.1142
vn 0.9324 -0.2433 -0.2672
vn 0.0736 -0.9264 -0.3693
vn 0.6961 -0.4412 -0.5664
vn 0.0515 0.4116 -0.9099
vn 0.3553 0.9331 -0.0546
vn 0.3286 0.5211 -0.7877
vn -0.8831 -0.2795 0.3768
vn -0.8693 0.0864 -0.4868
vn -0.8922 -0.4513 0.0150
vn -0.2718 -0.9274 -0.2570
vn 0.6333 0.0914 0.7685
vn 0.0227 0.5356 0.8442
vn -0.2687 0.4072 0.8729
vn -0.0577 0.9878 -0.1447
vn -0.0976 0.9880 0.1200
vn 0.1480 0.9887 0.0234
vn -0.2267 -0.2619 0.9381
vn 0.2842 -0.9285 0.2390
vn 0.1396 -0.4378 0.8882
vn 0.1079 -0.2619 -0.9590
vn 0.8586 0.0847 -0.5056
vn 0.4377 -0.4530 -0.7766
vn 0.1356 0.8829 -0.4495
vn 0.1912 0.9157 0.3535
vn 0.3536 -0.9243 -0.1434
vn -0.9846 0.0726 0.1589
vn -0.8536 0.3965 -0.3378
vn -0.6368 0.3976 -0.6606
vn -0.7010 -0.2795 -0.6561
vn -0.3463 -0.9287 0.1327
vn -0.8368 -0.4425 -0.3225
vn 0.7562 0.4134 0.5072
vn -0.1130 0.9279 0.3554
vn 0.5142 0.5209 0.6814
vn 0.7848 -0.2433 0.5700
vn 0.0075 0.0899 0.9959
vn 0.4543 -0.4468 0.7707
vn 0.3114 0.8881 0.3381
vn -0.4027 0.9152 -0.0119
vn 0.0077 -1.0000 -0.0057
vn -0.2687 -0.6590 -0.7025
vn 0.1724 -0.9357 0.3077
vn -0.3344 -0.9406 -0.0590
vn 0.2132 0.9151 -0.3424
vn -0.4152 0.9040 0.1016
vn -0.0450 -0.9260 0.3749
vn 0.3484 0.0980 -0.9322
vn 0.7176 0.5357 -0.4450
vn 0.8874 0.4107 -0.2094
vn 0.2344 -0.9317 -0.2773
vn -0.8301 -0.5381 -0.1464
vn -0.9818 0.0811 -0.1716
vn -0.6760 0.7337 -0.0679
vn 0.2993 -0.5308 0.7929
vn 0.3413 0.0990 0.9347
vn 0.2600 0.7389 0.6217
vn 0.5524 -0.5308 -0.6427
vn 0.6376 0.0991 -0.7640
vn 0.3967 0.7378 -0.5461
vn -0.4979 -0.6784 0.5403
vn -0.4872 0.6411 -0.5930
vn 0.7179 -0.6774 0.1602
vn -0.5394 0.5438 0.6429
vn -0.2217 0.9287 0.2974
vn 0.8374 0.5262 0.1476
vn 0.3557 0.9330 0.0552
vn -0.3389 0.1017 -0.9353
vn -0.2884 0.5260 -0.8001
vn -0.1269 0.9330 -0.3367
vn -0.6320 0.0817 0.7706
vn 0.9807 0.0942 0.1711
vt 0.515228 0.513285
vt 0.426471 0.557039
vt 0.480490 0.488613
vt 0.372679 0.526562
vt 0.469471 0.761653
vt 0.452138 0.514305
vt 0.328775 0.558298
vt 0.429494 0.746185
vt 0.293709 0.844737
vt 0.472525 0.514305
vt 0.360345 0.558298
vt 0.335443 0.847755
vt 0.456444 0.748628
vt 0.510190 0.488613
vt 0.418669 0.526562
vt 0.504377 0.761731
vt 0.550729 0.513285
vt 0.481445 0.557039
vt 0.555702 0.743543
vt 0.489146 0.841473
vt 0.640600 0.514615
vt 0.620613 0.558681
vt 0.664738 0.751069
vt 0.657992 0.850770
vt 0.641208 0.488255
vt 0.621555 0.526119
vt 0.658565 0.761236
vt 0.625496 0.514615
vt 0.597224 0.558681
vt 0.632830 0.848369
vt 0.648490 0.749125
vt 0.504524 0.566541
vt 0.409896 0.622826
vt 0.422224 0.845163
vt 0.512485 0.746530
vt 0.445589 0.649291
vt 0.453547 0.553140
vt 0.268327 0.624815
vt 0.413102 0.568152
vt 0.433205 0.654065
vt 0.289104 0.727450
vt 0.442164 0.568152
vt 0.313330 0.624815
vt 0.491648 0.649291
vt 0.495883 0.553140
vt 0.556980 0.652372
vt 0.492334 0.725238
vt 0.487833 0.622826
vt 0.554854 0.566541
vt 0.696362 0.655758
vt 0.721235 0.729657
vt 0.682967 0.569653
vt 0.686220 0.626670
vt 0.694839 0.649291
vt 0.682647 0.553140
vt 0.653306 0.626670
vt 0.661712 0.569653
vt 0.544024 0.806516
vt 0.471062 0.929761
vt 0.515131 0.806516
vt 0.421178 0.934127
vt 0.518616 0.806516
vt 0.428555 0.929747
vt 0.554058 0.806516
vt 0.488171 0.934112
vt 0.476160 0.963140
vt 0.546789 0.841744
vt 0.538475 0.841736
vt 0.463358 0.963140
vt 0.546825 0.841735
vt 0.473668 0.963140
vt 0.469177 0.537133
vt 0.419131 0.861745
vt 0.243129 0.604429
vt 0.309566 0.930137
vt 0.280791 0.860741
vt 0.293725 0.604429
vt 0.489918 0.602193
vt 0.579800 0.930269
vt 0.490652 0.857992
vt 0.712963 0.606515
vt 0.675958 0.606515
vt 0.531234 0.930269
vt 0.645732 0.863742
vt 0.402294 0.602193
vt 0.502491 0.652371
vt 0.402874 0.725238
vt 0.401588 0.654065
vt 0.237190 0.727450
vt 0.325666 0.864108
vt 0.637709 0.899112
vt 0.697009 0.843728
vt 0.673504 0.655758
vt 0.683697 0.729657
vt 0.550228 0.580467
vt 0.561850 0.724033
vt 0.550510 0.863958
vt 0.619512 0.578185
vt 0.641694 0.724033
vt 0.617453 0.863958
vt 0.240002 0.578317
vt 0.209631 0.724033
vt 0.250208 0.863868
vt 0.562882 0.806516
vt 0.503834 0.934145
vt 0.569432 0.806516
vt 0.513565 0.929729
vt 0.476727 0.984806
vt 0.462385 0.984806
vt 0.474076 0.984806
s 1
f 17/30/1 70/105/2 53/84/3
f 18/33/4 1/2/5 54/85/6
f 5/9/7 35/61/8 45/76/9
f 33/56/10 60/94/11 51/82/12
f 16/29/13 33/56/10 51/82/12
f 23/41/14 57/90/15 7/12/16
f 39/68/17 40/70/18 38/67/19
f 24/43/20 6/11/21 46/77/22
f 22/38/23 56/89/24 43/74/25
f 40/71/18 34/59/26 74/110/27
f 4/7/28 22/38/23 43/74/25
f 29/51/29 59/92/30 13/24/31
f 30/53/32 12/22/33 50/81/34
f 11/20/35 37/65/36 49/80/37
f 28/48/38 27/47/39 47/78/40
f 39/69/17 36/63/41 73/109/42
f 41/72/43 16/29/13 61/95/44
f 41/72/43 6/11/21 8/15/45
f 41/72/43 12/22/33 14/26/46
f 35/61/8 73/109/42 36/63/41
f 37/65/36 72/108/47 71/107/48
f 70/105/2 74/110/27 34/59/26
f 10/18/49 28/48/38 47/78/40
f 38/66/19 71/107/48 72/108/47
f 55/87/50 42/73/51 19/34/52
f 38/66/19 72/108/47 37/65/36
f 41/72/43 61/95/44 1/2/5 2/4/53
f 16/28/13 14/25/46 32/55/54 33/57/10
f 33/57/10 32/55/54 31/54/55 60/93/11
f 17/31/1 60/93/11 31/54/55 15/27/56
f 32/55/54 14/25/46 12/21/33 30/52/32
f 31/54/55 32/55/54 30/52/32 29/50/29
f 31/54/55 29/50/29 13/23/31 15/27/56
f 10/17/49 8/14/45 26/45/57 28/49/38
f 60/94/11 17/30/1 53/84/3
f 19/34/52 42/73/51 34/59/26
f 28/49/38 26/45/57 25/44/58 27/46/39
f 11/19/35 27/46/39 25/44/58 9/16/59
f 26/45/57 8/14/45 6/10/21 24/42/20
f 25/44/58 26/45/57 24/42/20 23/40/14
f 25/44/58 23/40/14 7/13/16 9/16/59
f 4/6/28 2/3/53 21/37/60 22/39/23
f 24/43/20 46/77/22 23/41/14
f 22/39/23 21/37/60 20/36/61 56/88/24
f 5/8/7 56/88/24 20/36/61 3/5/62
f 21/37/60 2/3/53 1/1/5 18/32/4
f 20/36/61 21/37/60 18/32/4 55/86/50
f 20/36/61 55/86/50 19/35/52 3/5/62
f 39/68/17 3/5/62 19/35/52 34/58/26
f 39/68/17 35/60/8 5/8/7 3/5/62
f 40/70/18 70/104/2 17/31/1 15/27/56
f 40/70/18 15/27/56 13/23/31 71/106/48
f 38/67/19 37/64/36 11/19/35 9/16/59
f 7/12/16 57/90/15 36/63/41
f 10/18/49 64/98/63 41/72/43 8/15/45
f 40/70/18 71/106/48 38/67/19
f 38/67/19 36/62/41 39/68/17
f 39/68/17 34/58/26 40/70/18
f 38/67/19 9/16/59 7/13/16 36/62/41
f 40/71/18 74/110/27 70/105/2
f 56/89/24 5/9/7 45/76/9
f 30/53/32 50/81/34 29/51/29
f 13/24/31 59/92/30 58/91/64
f 13/24/31 58/91/64 71/107/48
f 41/72/43 14/26/46 16/29/13
f 4/7/28 67/101/65 41/72/43 2/4/53
f 41/72/43 67/101/65 6/11/21
f 41/72/43 64/98/63 12/22/33
f 58/91/64 59/92/30 66/100/66 48/79/67
f 69/103/68 44/75/69 57/90/15
f 54/85/6 61/95/44 62/96/70 55/87/50
f 63/97/71 52/83/72 42/73/51
f 61/95/44 54/85/6 1/2/5
f 42/73/51 55/87/50 62/96/70 63/97/71
f 50/81/34 64/98/63 65/99/73 29/51/29
f 64/98/63 50/81/34 12/22/33
f 59/92/30 29/51/29 65/99/73 66/100/66
f 46/77/22 67/101/65 68/102/74 23/41/14
f 67/101/65 46/77/22 6/11/21
f 57/90/15 23/41/14 68/102/74 69/103/68
f 36/63/41 57/90/15 44/75/69 35/61/8
f 44/75/69 45/76/9 35/61/8
f 52/83/72 53/84/3 70/105/2
f 48/79/67 49/80/37 37/65/36
f 68/102/74 56/89/24 45/76/9 69/103/68
f 68/102/74 67/101/65 43/74/25 56/89/24
f 71/107/48 58/91/64 48/79/67 37/65/36
f 4/7/28 43/74/25 67/101/65
f 45/76/9 44/75/69 69/103/68
f 65/99/73 27/47/39 49/80/37 66/100/66
f 65/99/73 64/98/63 47/78/40 27/47/39
f 34/59/26 42/73/51 52/83/72 70/105/2
f 10/18/49 47/78/40 64/98/63
f 49/80/37 48/79/67 66/100/66
f 62/96/70 60/94/11 53/84/3 63/97/71
f 62/96/70 61/95/44 51/82/12 60/94/11
f 16/29/13 51/82/12 61/95/44
f 53/84/3 52/83/72 63/97/71
f 18/33/4 54/85/6 55/87/50
f 39/69/17 73/109/42 35/61/8
f 27/47/39 11/20/35 49/80/37
