# Blender 3.3.1
# www.blender.org
mtllib GridTile.mtl
o Cylinder
v 0.000000 0.046891 -1.000000
v 0.866025 0.046891 -0.500000
v 0.866025 0.046891 0.500000
v 0.000000 0.046891 1.000000
v -0.866025 0.046891 0.500000
v -0.866025 0.046891 -0.500000
v 0.814469 0.044769 -0.470234
v 0.000000 0.044769 -0.940468
v 0.814469 0.044769 0.470234
v 0.000000 0.044769 0.940468
v -0.814469 0.044769 0.470234
v -0.814469 0.044769 -0.470234
vn 0.0206 0.9992 0.0356
vn 0.0411 0.9992 -0.0000
vn 0.0206 0.9992 -0.0356
vn -0.0206 0.9992 0.0356
vn -0.0206 0.9992 -0.0356
vn -0.0411 0.9992 -0.0000
vt -0.000000 1.000000
vt 1.000000 1.000000
vt 0.833333 1.000000
vt 0.666667 1.000000
vt 0.500000 1.000000
vt 0.333333 1.000000
vt 0.166667 1.000000
vt 0.833333 1.000000
vt -0.000000 1.000000
vt 1.000000 1.000000
vt 0.666667 1.000000
vt 0.500000 1.000000
vt 0.333333 1.000000
vt 0.166667 1.000000
s 0
f 1/1/1 6/7/1 12/14/1 8/9/1
f 6/7/2 5/6/2 11/13/2 12/14/2
f 5/6/3 4/5/3 10/12/3 11/13/3
f 2/3/4 1/2/4 8/10/4 7/8/4
f 4/5/5 3/4/5 9/11/5 10/12/5
f 3/4/6 2/3/6 7/8/6 9/11/6
