# Blender 3.3.1
# www.blender.org
o Plane
v -1.971418 0.245633 -0.748851
v -0.537392 0.023734 0.198711
v -1.729052 0.250845 -1.199390
v -0.138116 0.023734 -0.569314
v -1.488269 0.282228 -0.133648
v -0.956125 0.282228 -1.157250
v -1.033462 0.110040 0.083671
v -0.517208 0.110040 -0.909363
v -1.372742 0.335082 -1.252252
v -1.805081 0.335082 -0.420632
v -2.051452 0.127975 -0.991959
v -1.950819 0.147521 -1.126799
v -1.868973 0.239809 -0.993006
v -1.219267 0.286171 -0.650849
v -0.772412 0.113941 -0.417549
v -0.335986 0.027645 -0.189466
v -1.586413 0.338904 -0.842596
v -0.195654 0.037151 0.169449
v 0.035022 0.037151 -0.274267
v -0.053849 0.043348 -0.041325
v -1.964349 0.232305 -0.745176
v -0.536144 0.008090 0.199360
v -1.721983 0.237518 -1.195715
v -0.136867 0.008090 -0.568664
v -1.488658 0.266457 -0.133850
v -0.956513 0.266457 -1.157451
v -1.034967 0.094433 0.082889
v -0.518713 0.094433 -0.910146
v -1.370533 0.319794 -1.251104
v -1.802872 0.319794 -0.419484
v -2.045287 0.118345 -0.988754
v -1.944654 0.137891 -1.123594
v -1.859826 0.223652 -0.988251
v -1.219849 0.262515 -0.651151
v -0.774670 0.090531 -0.418723
v -0.334113 0.004179 -0.188492
v -1.583100 0.315972 -0.840874
v -0.194124 0.025401 0.170244
v 0.036552 0.025401 -0.273471
v -0.051809 0.027683 -0.040264
v -1.917643 0.253945 -0.841372
v -0.782252 0.049617 0.158416
v -0.221935 0.027156 -0.408752
v -1.557245 0.307624 -1.235556
v -1.668240 0.328401 -0.269894
v -0.735502 0.198651 -1.049028
v -1.067350 0.285678 -0.943097
v -1.273074 0.198651 -0.014987
v -0.311801 0.049617 -0.746514
v -0.624991 0.113454 -0.701234
v -1.170882 0.328401 -1.226582
v -1.897957 0.306973 -0.582140
v -1.463191 0.338426 -1.079451
v -1.373333 0.285678 -0.354526
v -2.037275 0.166218 -0.904036
v -1.879570 0.180791 -1.163598
v -1.771761 0.257895 -1.110114
v -1.927923 0.179176 -1.079517
v -1.991183 0.165172 -0.999911
v -0.921837 0.113454 -0.130239
v -0.451519 0.027156 0.032862
v -1.711785 0.338426 -0.601269
v -1.416791 0.332333 -0.753954
v -1.001249 0.202572 -0.537033
v -1.726546 0.310644 -0.916291
v -0.544588 0.053519 -0.298566
v 0.008392 0.042287 -0.171667
v -0.125680 0.042287 0.086225
v -0.324369 0.027293 0.196908
v -0.166182 0.031604 -0.100391
v -0.016935 0.027293 -0.394454
v -1.907639 0.235193 -0.836171
v -0.782535 0.034010 0.158269
v -0.220140 0.004668 -0.407818
v -1.552509 0.293321 -1.233094
v -1.667606 0.312670 -0.269565
v -0.736842 0.182966 -1.049725
v -1.067907 0.263008 -0.943386
v -1.274414 0.182966 -0.015683
v -0.312084 0.034010 -0.746661
v -0.627155 0.091019 -0.702359
v -1.170248 0.312670 -1.226252
v -1.893222 0.292669 -0.579678
v -1.460016 0.316450 -1.077800
v -1.373891 0.263008 -0.354816
v -2.029551 0.153867 -0.900021
v -1.871846 0.168440 -1.159582
v -1.761756 0.239143 -1.104913
v -1.919965 0.166546 -1.075379
v -1.983225 0.152543 -0.995773
v -0.924001 0.091019 -0.131364
v -0.449724 0.004668 0.033795
v -1.708610 0.316450 -0.599619
v -1.415840 0.308738 -0.753460
v -1.003260 0.179045 -0.538078
v -1.719514 0.289460 -0.912636
v -0.545012 0.030108 -0.298787
v 0.010345 0.027292 -0.170652
v -0.123727 0.027292 0.087241
v -0.322515 0.012301 0.197872
v -0.163398 0.009089 -0.098943
v -0.015081 0.012301 -0.393490
v -1.989227 0.235527 -0.716301
v -2.066031 0.105438 -1.009632
v -1.073570 0.102236 0.158982
v -1.529083 0.274343 -0.055616
v -1.970275 0.127500 -1.127532
v -1.713401 0.241228 -1.229734
v -0.108066 0.015912 -0.625590
v 0.055377 0.034063 -0.270386
v -0.479878 0.102236 -0.983007
v -0.567234 0.015912 0.257637
v -1.919913 0.193845 -1.021337
v -1.339975 0.327438 -1.312582
v -0.917116 0.274343 -1.232758
v -1.837164 0.327438 -0.356219
v -0.014488 0.041875 -0.020619
v -0.181060 0.034063 0.184411
v -0.680739 0.053031 -0.036696
v -1.560860 0.331841 -0.476783
v -1.156857 0.202082 -0.237818
v -1.824423 0.310750 -0.724626
v -1.991369 0.191370 -0.925195
v -1.274879 0.331841 -1.026879
v -0.256183 0.030995 0.070843
v -1.872743 0.202669 -1.119428
v -0.847753 0.202082 -0.832392
v -1.627890 0.311188 -1.101349
v -0.410230 0.053031 -0.557030
v -0.078945 0.030995 -0.270081
v -0.681146 0.030596 -0.036907
v -1.559949 0.309229 -0.476310
v -1.158784 0.179535 -0.238819
v -1.817633 0.290257 -0.721096
v -1.980760 0.174243 -0.919680
v -1.273968 0.309229 -1.026405
v -0.253515 0.009423 0.072230
v -1.862134 0.185541 -1.113913
v -0.849680 0.179535 -0.833393
v -1.621100 0.290695 -1.097819
v -0.410637 0.030596 -0.557242
v -0.076277 0.009423 -0.268694
v -2.054685 0.148552 -0.895637
v -1.314738 0.190809 0.063518
v -1.881411 0.164757 -1.180245
v 0.007158 0.020071 -0.434473
v -0.277251 0.041813 -0.813318
v -0.818269 0.041813 0.227351
v -1.951305 0.159786 -1.066082
v -1.133996 0.320535 -1.296760
v -1.530786 0.300103 -1.281776
v -1.994382 0.144294 -1.029772
v -1.922243 0.299391 -0.530934
v 0.039586 0.040894 -0.139128
v -1.705957 0.320535 -0.196569
v -0.081245 0.040894 0.093297
v -0.696530 0.190809 -1.125629
v -0.344078 0.020072 0.241143
vn -0.2274 -0.9572 -0.1789
vn -0.2429 -0.9606 -0.1352
vn -0.1477 -0.9852 -0.0868
vn -0.1369 -0.9808 -0.1390
vn -0.2459 -0.9608 -0.1278
vn -0.1504 -0.9855 -0.0782
vn -0.0398 -0.9990 -0.0207
vn -0.0379 -0.9988 -0.0322
vn -0.0370 -0.9942 -0.1007
vn 0.1284 -0.9917 -0.0105
vn 0.0710 -0.9972 0.0254
vn -0.1002 -0.9931 -0.0616
vn -0.0639 -0.9931 -0.0984
vn 0.0626 -0.9975 0.0324
vn -0.1055 -0.9929 -0.0548
vn -0.2332 -0.9648 -0.1212
vn -0.2292 -0.9649 -0.1279
vn -0.2039 -0.9649 -0.1653
vn -0.2835 -0.9462 -0.1559
vn -0.2643 -0.9445 -0.1952
vn -0.2869 -0.9463 -0.1491
vn 0.5296 -0.8376 0.1338
vn 0.4225 -0.8848 0.1963
vn 0.2657 -0.9563 0.1223
vn 0.3508 -0.9330 0.0805
vn 0.4322 -0.8742 0.2214
vn 0.2533 -0.9586 0.1300
vn 0.6321 -0.7541 0.1782
vn 0.5049 -0.8290 0.2405
vn 0.6299 -0.7149 0.3034
vn 0.4946 -0.7864 0.3700
vn 0.0607 -0.9972 0.0432
vn -0.1081 -0.9931 -0.0464
vn 0.0639 -0.9914 0.1142
vn -0.1178 -0.9930 0.0067
vn -0.2532 -0.9649 -0.0702
vn -0.2364 -0.9649 -0.1139
vn 0.0495 -0.9984 0.0257
vn 0.0508 -0.9987 0.0105
vn 0.0241 -0.9996 0.0126
vn 0.0213 -0.9994 -0.0254
vn 0.0335 -0.9962 -0.0803
vn 0.0310 -0.9957 -0.0877
vn 0.6219 -0.6989 0.3532
vn 0.5119 -0.7436 0.4302
vn 0.4843 -0.8311 0.2734
vn 0.5922 -0.7826 0.1918
vn 0.4098 -0.8357 0.3656
vn 0.3978 -0.8884 0.2290
vn -0.2906 -0.9462 -0.1423
vn -0.3125 -0.9444 -0.1027
vn -0.2781 -0.9570 -0.0819
vn -0.2504 -0.9606 -0.1209
vn 0.2491 -0.9577 0.1443
vn 0.2636 -0.9330 0.2449
vn -0.1560 -0.9852 -0.0708
vn -0.1938 -0.9806 -0.0306
vn -0.1057 -0.9940 0.0293
vn -0.0484 -0.9988 -0.0123
vn -0.0567 -0.9954 0.0778
vn 0.0373 -0.9987 0.0358
vn -0.0493 -0.9959 0.0759
vn -0.0097 -0.9994 0.0327
vn 0.2629 0.9618 0.0758
vn 0.1621 0.9866 0.0160
vn 0.1517 0.9860 0.0688
vn 0.2481 0.9613 0.1200
vn 0.0408 0.9972 -0.0623
vn 0.0391 0.9992 0.0087
vn 0.0368 0.9991 0.0191
vn 0.1490 0.9858 0.0775
vn 0.2450 0.9611 0.1274
vn 0.0030 0.9974 -0.0726
vn 0.1494 0.9887 0.0128
vn 0.1135 0.9923 0.0495
vn -0.0514 0.9980 -0.0373
vn 0.2632 0.9616 0.0776
vn 0.2387 0.9642 0.1154
vn 0.2347 0.9644 0.1220
vn 0.1083 0.9925 0.0563
vn -0.0580 0.9979 -0.0299
vn 0.3092 0.9454 0.1028
vn 0.2907 0.9461 0.1426
vn 0.2874 0.9461 0.1494
vn -0.3077 0.9151 -0.2606
vn -0.1708 0.9699 -0.1733
vn -0.2410 0.9612 -0.1345
vn -0.3924 0.8964 -0.2062
vn -0.2457 0.9611 -0.1260
vn -0.3989 0.8941 -0.2038
vn -0.4648 0.8541 -0.2334
vn -0.3547 0.8879 -0.2930
vn -0.4972 0.8621 -0.0978
vn -0.3912 0.8967 -0.2071
vn 0.1057 0.9923 0.0648
vn -0.0592 0.9981 -0.0195
vn 0.2314 0.9642 0.1293
vn 0.2140 0.9615 0.1725
vn 0.0958 0.9885 0.1172
vn -0.0561 0.9972 0.0489
vn -0.0731 0.9960 -0.0507
vn -0.0763 0.9963 -0.0396
vn -0.0895 0.9835 -0.1571
vn -0.1848 0.9628 -0.1972
vn -0.2114 0.9666 -0.1450
vn -0.2092 0.9718 -0.1087
vn -0.3756 0.9077 -0.1871
vn -0.3561 0.8721 -0.3356
vn -0.4503 0.8601 -0.2396
vn -0.4289 0.8974 -0.1031
vn -0.3874 0.9012 -0.1944
vn -0.3770 0.9223 -0.0848
vn 0.2837 0.9461 0.1562
vn 0.2406 0.9613 0.1343
vn 0.2120 0.9618 0.1731
vn 0.2609 0.9454 0.1955
vn -0.2445 0.9628 -0.1152
vn -0.2314 0.9724 -0.0289
vn 0.1433 0.9860 0.0848
vn 0.0294 0.9992 0.0273
vn -0.0296 0.9970 0.0710
vn 0.1047 0.9866 0.1250
vn -0.0838 0.9960 -0.0305
vn -0.1828 0.9830 0.0192
vn -0.2413 0.9664 -0.0892
vn -0.2702 0.9622 -0.0353
vn 0.8432 0.4012 -0.3579
vn 0.6363 0.5631 0.5272
vn 0.8536 0.2641 -0.4491
vn 0.4348 0.0094 -0.9005
vn 0.5285 -0.0586 -0.8469
vn 0.3476 0.0667 -0.9353
vn 0.2117 0.4075 0.8883
vn 0.1420 0.2648 0.9538
vn 0.7980 0.5619 0.2179
vn -0.8890 -0.0165 0.4576
vn -0.9923 -0.1127 0.0516
vn -0.7728 0.0555 0.6322
vn -0.6616 0.0780 0.7458
vn -0.5661 0.0668 0.8216
vn 0.2302 0.0781 -0.9700
vn 0.0716 0.0557 -0.9959
vn 0.7947 0.2915 -0.5324
vn 0.7865 0.3740 0.4915
vn -0.2247 -0.0798 0.9712
vn -0.3904 -0.0584 0.9188
vn -0.0140 -0.0327 0.9994
vn 0.1420 0.1001 0.9848
vn -0.0271 0.2614 0.9648
vn 0.8852 0.0998 -0.4543
vn 0.8099 -0.0334 -0.5856
vn -0.9388 -0.1435 -0.3131
vn -0.8779 -0.1452 -0.4562
vn 0.6665 -0.0800 -0.7412
vn -0.7972 -0.1435 -0.5864
vn -0.5311 -0.1128 -0.8398
vn -0.4879 0.0096 0.8729
vn -0.1409 -0.0165 -0.9899
vt 0.304834 0.915915
vt 0.177478 0.550792
vt 0.689134 0.919137
vt 0.872092 0.556613
vt 0.048806 0.766644
vt 0.967628 0.774342
vt 0.073615 0.659468
vt 0.959222 0.666888
vt 0.878427 0.862918
vt 0.124756 0.856602
vt 0.480147 0.992960
vt 0.518486 0.982552
vt 0.506725 0.917608
vt 0.513720 0.767528
vt 0.521156 0.662857
vt 0.528362 0.559663
vt 0.507570 0.854557
vt 0.370725 0.496826
vt 0.690694 0.499507
vt 0.532696 0.492058
vt 0.335939 0.915822
vt 0.177513 0.550333
vt 0.663354 0.916976
vt 0.872125 0.556153
vt 0.048780 0.767001
vt 0.967603 0.774699
vt 0.159526 0.660501
vt 0.875619 0.666501
vt 0.878440 0.862719
vt 0.124774 0.856404
vt 0.447251 0.957055
vt 0.553951 0.951989
vt 0.504456 0.921438
vt 0.513690 0.767940
vt 0.521095 0.663665
vt 0.528376 0.559487
vt 0.507609 0.854031
vt 0.369787 0.477982
vt 0.693345 0.480694
vt 0.534442 0.479362
vt 0.401004 0.916391
vt 0.125547 0.605130
vt 0.693715 0.560553
vt 0.783781 0.891027
vt 0.146343 0.811961
vt 0.963425 0.720615
vt 0.733455 0.769621
vt 0.061210 0.713056
vt 0.915657 0.611751
vt 0.735605 0.664684
vt 0.865745 0.817989
vt 0.214795 0.886259
vt 0.685682 0.856488
vt 0.290723 0.765911
vt 0.392490 0.954438
vt 0.603810 0.950845
vt 0.603139 0.916992
vt 0.512606 0.950080
vt 0.493436 0.955284
vt 0.303758 0.661066
vt 0.360681 0.557762
vt 0.325932 0.853473
vt 0.510396 0.814139
vt 0.517353 0.716456
vt 0.505635 0.887963
vt 0.524950 0.609172
vt 0.624978 0.493881
vt 0.439008 0.492322
vt 0.309215 0.517302
vt 0.531012 0.519047
vt 0.748117 0.520980
vt 0.404470 0.914597
vt 0.189081 0.606020
vt 0.693250 0.560349
vt 0.743466 0.889394
vt 0.086777 0.811703
vt 0.894182 0.720554
vt 0.733308 0.770024
vt 0.132658 0.714173
vt 0.854102 0.611592
vt 0.725648 0.665363
vt 0.923021 0.818709
vt 0.258304 0.885528
vt 0.686185 0.855998
vt 0.290805 0.766316
vt 0.402441 0.944650
vt 0.596672 0.941834
vt 0.600177 0.915032
vt 0.534606 0.942152
vt 0.470420 0.945884
vt 0.313894 0.661912
vt 0.361192 0.557566
vt 0.325509 0.852976
vt 0.510393 0.814185
vt 0.517297 0.717207
vt 0.505574 0.886950
vt 0.524922 0.609544
vt 0.613893 0.480028
vt 0.452115 0.478672
vt 0.273650 0.514157
vt 0.531219 0.517093
vt 0.782735 0.518423
vt 0.308159 0.917381
vt 0.456048 0.966895
vt 0.094762 0.659702
vt 0.048793 0.766822
vt 0.544432 0.960397
vt 0.688438 0.918954
vt 0.872108 0.556383
vt 0.695453 0.493282
vt 0.938362 0.666771
vt 0.177496 0.550563
vt 0.504568 0.936059
vt 0.878433 0.862818
vt 0.967616 0.774521
vt 0.124765 0.856503
vt 0.533451 0.481115
vt 0.366396 0.490525
vt 0.327232 0.607400
vt 0.306947 0.812608
vt 0.291468 0.714634
vt 0.361452 0.886838
vt 0.429758 0.942000
vt 0.710660 0.815991
vt 0.405735 0.518066
vt 0.572350 0.939470
vt 0.740102 0.718392
vt 0.645667 0.889120
vt 0.719941 0.610690
vt 0.654539 0.520150
vt 0.334586 0.607811
vt 0.301024 0.812608
vt 0.299585 0.715430
vt 0.366248 0.885614
vt 0.428572 0.937390
vt 0.716351 0.816088
vt 0.403587 0.515894
vt 0.574108 0.935164
vt 0.732134 0.719054
vt 0.641358 0.887786
vt 0.712767 0.610980
vt 0.656879 0.518016
vt 0.391327 0.950139
vt 0.070453 0.713454
vt 0.605826 0.946858
vt 0.779504 0.520101
vt 0.907404 0.611803
vt 0.134014 0.605323
vt 0.517197 0.948046
vt 0.917330 0.818623
vt 0.779717 0.890422
vt 0.488633 0.952702
vt 0.219512 0.885910
vt 0.615237 0.483026
vt 0.092699 0.811714
vt 0.450216 0.481644
vt 0.954392 0.720860
vt 0.276824 0.515889
s 1
f 7/7/1 60/60/2 119/119/3 42/42/4
f 60/60/2 15/15/5 66/66/6 119/119/3
f 119/119/3 66/66/6 16/16/7 61/61/8
f 42/42/4 119/119/3 61/61/8 2/2/9
f 10/10/10 62/62/11 120/120/12 45/45/13
f 62/62/11 17/17/14 63/63/15 120/120/12
f 120/120/12 63/63/15 14/14/16 54/54/17
f 45/45/13 120/120/12 54/54/17 5/5/18
f 5/5/18 54/54/17 121/121/19 48/48/20
f 54/54/17 14/14/16 64/64/21 121/121/19
f 121/121/19 64/64/21 15/15/5 60/60/2
f 48/48/20 121/121/19 60/60/2 7/7/1
f 1/1/22 41/41/23 122/122/24 52/52/25
f 41/41/23 13/13/26 65/65/27 122/122/24
f 122/122/24 65/65/27 17/17/14 62/62/11
f 52/52/25 122/122/24 62/62/11 10/10/10
f 1/1/22 55/55/28 123/123/29 41/41/23
f 11/11/30 59/59/31 123/123/29 55/55/28
f 13/13/26 41/41/23 123/123/29 59/59/31
f 17/17/14 53/53/32 124/124/33 63/63/15
f 53/53/32 9/9/34 51/51/35 124/124/33
f 124/124/33 51/51/35 6/6/36 47/47/37
f 63/63/15 124/124/33 47/47/37 14/14/16
f 16/16/7 70/70/38 125/125/39 61/61/8
f 70/70/38 20/20/40 68/68/41 125/125/39
f 125/125/39 68/68/41 18/18/42 69/69/43
f 61/61/8 125/125/39 69/69/43 2/2/9
f 12/12/44 56/56/45 126/126/46 58/58/47
f 3/3/48 57/57/49 126/126/46 56/56/45
f 13/13/26 58/58/47 126/126/46 57/57/49
f 14/14/16 47/47/37 127/127/50 64/64/21
f 47/47/37 6/6/36 46/46/51 127/127/50
f 127/127/50 46/46/51 8/8/52 50/50/53
f 64/64/21 127/127/50 50/50/53 15/15/5
f 13/13/26 57/57/49 128/128/54 65/65/27
f 57/57/49 3/3/48 44/44/55 128/128/54
f 128/128/54 44/44/55 9/9/34 53/53/32
f 65/65/27 128/128/54 53/53/32 17/17/14
f 15/15/5 50/50/53 129/129/56 66/66/6
f 50/50/53 8/8/52 49/49/57 129/129/56
f 129/129/56 49/49/57 4/4/58 43/43/59
f 66/66/6 129/129/56 43/43/59 16/16/7
f 4/4/58 71/71/60 130/130/61 43/43/59
f 71/71/60 19/19/62 67/67/63 130/130/61
f 130/130/61 67/67/63 20/20/40 70/70/38
f 43/43/59 130/130/61 70/70/38 16/16/7
f 27/27/64 73/73/65 131/131/66 91/91/67
f 73/73/65 22/22/68 92/92/69 131/131/66
f 131/131/66 92/92/69 36/36/70 97/97/71
f 91/91/67 131/131/66 97/97/71 35/35/72
f 30/30/73 76/76/74 132/132/75 93/93/76
f 76/76/74 25/25/77 85/85/78 132/132/75
f 132/132/75 85/85/78 34/34/79 94/94/80
f 93/93/76 132/132/75 94/94/80 37/37/81
f 25/25/77 79/79/82 133/133/83 85/85/78
f 79/79/82 27/27/64 91/91/67 133/133/83
f 133/133/83 91/91/67 35/35/72 95/95/84
f 85/85/78 133/133/83 95/95/84 34/34/79
f 21/21/85 83/83/86 134/134/87 72/72/88
f 83/83/86 30/30/73 93/93/76 134/134/87
f 134/134/87 93/93/76 37/37/81 96/96/89
f 72/72/88 134/134/87 96/96/89 33/33/90
f 21/21/85 72/72/88 135/135/91 86/86/92
f 33/33/90 90/90/93 135/135/91 72/72/88
f 31/31/94 86/86/92 135/135/91 90/90/93
f 37/37/81 94/94/80 136/136/95 84/84/96
f 94/94/80 34/34/79 78/78/97 136/136/95
f 136/136/95 78/78/97 26/26/98 82/82/99
f 84/84/96 136/136/95 82/82/99 29/29/100
f 36/36/70 92/92/69 137/137/101 101/101/102
f 92/92/69 22/22/68 100/100/103 137/137/101
f 137/137/101 100/100/103 38/38/104 99/99/105
f 101/101/102 137/137/101 99/99/105 40/40/106
f 32/32/107 89/89/108 138/138/109 87/87/110
f 33/33/90 88/88/111 138/138/109 89/89/108
f 23/23/112 87/87/110 138/138/109 88/88/111
f 34/34/79 95/95/84 139/139/113 78/78/97
f 95/95/84 35/35/72 81/81/114 139/139/113
f 139/139/113 81/81/114 28/28/115 77/77/116
f 78/78/97 139/139/113 77/77/116 26/26/98
f 33/33/90 96/96/89 140/140/117 88/88/111
f 96/96/89 37/37/81 84/84/96 140/140/117
f 140/140/117 84/84/96 29/29/100 75/75/118
f 88/88/111 140/140/117 75/75/118 23/23/112
f 35/35/72 97/97/71 141/141/119 81/81/114
f 97/97/71 36/36/70 74/74/120 141/141/119
f 141/141/119 74/74/120 24/24/121 80/80/122
f 81/81/114 141/141/119 80/80/122 28/28/115
f 24/24/121 74/74/120 142/142/123 102/102/124
f 74/74/120 36/36/70 101/101/102 142/142/123
f 142/142/123 101/101/102 40/40/106 98/98/125
f 102/102/124 142/142/123 98/98/125 39/39/126
f 11/11/30 55/55/28 143/143/127 104/104/128
f 55/55/28 1/1/22 103/103/129 143/143/127
f 143/143/127 103/103/129 21/21/85 86/86/92
f 104/104/128 143/143/127 86/86/92 31/31/94
f 5/5/18 48/48/20 144/144/130 106/106/131
f 48/48/20 7/7/1 105/105/132 144/144/130
f 144/144/130 105/105/132 27/27/64 79/79/82
f 106/106/131 144/144/130 79/79/82 25/25/77
f 3/3/48 56/56/45 145/145/133 108/108/134
f 56/56/45 12/12/44 107/107/135 145/145/133
f 145/145/133 107/107/135 32/32/107 87/87/110
f 108/108/134 145/145/133 87/87/110 23/23/112
f 19/19/62 71/71/60 146/146/136 110/110/137
f 71/71/60 4/4/58 109/109/138 146/146/136
f 146/146/136 109/109/138 24/24/121 102/102/124
f 110/110/137 146/146/136 102/102/124 39/39/126
f 4/4/58 49/49/57 147/147/139 109/109/138
f 49/49/57 8/8/52 111/111/140 147/147/139
f 147/147/139 111/111/140 28/28/115 80/80/122
f 109/109/138 147/147/139 80/80/122 24/24/121
f 7/7/1 42/42/4 148/148/141 105/105/132
f 42/42/4 2/2/9 112/112/142 148/148/141
f 148/148/141 112/112/142 22/22/68 73/73/65
f 105/105/132 148/148/141 73/73/65 27/27/64
f 12/12/44 58/58/47 149/149/143 107/107/135
f 58/58/47 13/13/26 113/113/144 149/149/143
f 149/149/143 113/113/144 33/33/90 89/89/108
f 107/107/135 149/149/143 89/89/108 32/32/107
f 6/6/36 51/51/35 150/150/145 115/115/146
f 51/51/35 9/9/34 114/114/147 150/150/145
f 150/150/145 114/114/147 29/29/100 82/82/99
f 115/115/146 150/150/145 82/82/99 26/26/98
f 9/9/34 44/44/55 151/151/148 114/114/147
f 44/44/55 3/3/48 108/108/134 151/151/148
f 151/151/148 108/108/134 23/23/112 75/75/118
f 114/114/147 151/151/148 75/75/118 29/29/100
f 13/13/26 59/59/31 152/152/149 113/113/144
f 59/59/31 11/11/30 104/104/128 152/152/149
f 152/152/149 104/104/128 31/31/94 90/90/93
f 113/113/144 152/152/149 90/90/93 33/33/90
f 1/1/22 52/52/25 153/153/150 103/103/129
f 52/52/25 10/10/10 116/116/151 153/153/150
f 153/153/150 116/116/151 30/30/73 83/83/86
f 103/103/129 153/153/150 83/83/86 21/21/85
f 20/20/40 67/67/63 154/154/152 117/117/153
f 67/67/63 19/19/62 110/110/137 154/154/152
f 154/154/152 110/110/137 39/39/126 98/98/125
f 117/117/153 154/154/152 98/98/125 40/40/106
f 10/10/10 45/45/13 155/155/154 116/116/151
f 45/45/13 5/5/18 106/106/131 155/155/154
f 155/155/154 106/106/131 25/25/77 76/76/74
f 116/116/151 155/155/154 76/76/74 30/30/73
f 18/18/42 68/68/41 156/156/155 118/118/156
f 68/68/41 20/20/40 117/117/153 156/156/155
f 156/156/155 117/117/153 40/40/106 99/99/105
f 118/118/156 156/156/155 99/99/105 38/38/104
f 8/8/52 46/46/51 157/157/157 111/111/140
f 46/46/51 6/6/36 115/115/146 157/157/157
f 157/157/157 115/115/146 26/26/98 77/77/116
f 111/111/140 157/157/157 77/77/116 28/28/115
f 2/2/9 69/69/43 158/158/158 112/112/142
f 69/69/43 18/18/42 118/118/156 158/158/158
f 158/158/158 118/118/156 38/38/104 100/100/103
f 112/112/142 158/158/158 100/100/103 22/22/68
